<svg width="94" height="271" viewBox="0 0 94 271" fill="none" xmlns="http://www.w3.org/2000/svg">
<g filter="url(#filter0_d)">
<rect x="15" y="11" width="63.1663" height="61.1626" rx="15.9938" fill="#B6E13D"/>
</g>
<path d="M54.6624 44.0635C52.5094 41.4179 49.7881 39.9609 46.9995 39.9609C44.211 39.9609 41.4896 41.4179 39.3368 44.0635C37.4016 46.4415 36.2463 49.4385 36.2463 52.0804C36.2463 53.3637 36.6318 54.3412 37.3921 54.9859C38.1424 55.6222 39.1331 55.8375 40.2383 55.8374C41.4143 55.8374 42.7202 55.5937 44.0032 55.3541C45.1244 55.1448 46.1834 54.9471 46.9996 54.9471C47.7041 54.9471 48.6974 55.1348 49.7488 55.3334C52.206 55.7977 54.9912 56.3239 56.6001 54.9624C57.365 54.3152 57.7528 53.3455 57.7528 52.0804C57.7529 49.4385 56.5976 46.4415 54.6624 44.0635Z" fill="#5C6C2F"/>
<path d="M54.8825 29.6973C54.0947 28.5153 52.9667 27.8374 51.7877 27.8374C50.6086 27.8374 49.4807 28.5153 48.693 29.6973C47.9694 30.7832 47.5708 32.2091 47.5708 33.7126C47.5708 35.216 47.9693 36.642 48.693 37.7278C49.4807 38.9098 50.6087 39.5877 51.7877 39.5877C52.9668 39.5877 54.0947 38.9098 54.8825 37.7278C55.6061 36.642 56.0046 35.216 56.0046 33.7126C56.0046 32.2091 55.6061 30.7831 54.8825 29.6973Z" fill="#5C6C2F"/>
<path d="M62.8136 38.9192C62.4961 37.8198 61.8154 37.0209 60.8971 36.6699C60.1581 36.3874 59.324 36.4353 58.5482 36.8048C57.4792 37.3139 56.6054 38.3652 56.151 39.6891C55.7797 40.7709 55.7334 41.9144 56.0207 42.9091C56.3383 44.0085 57.019 44.8073 57.9373 45.1584C58.2551 45.2799 58.5904 45.3402 58.9312 45.3402C59.3828 45.3402 59.8441 45.2341 60.2863 45.0234C61.3553 44.5143 62.2291 43.463 62.6835 42.1392V42.1391C63.0547 41.0574 63.101 39.9138 62.8136 38.9192Z" fill="#5C6C2F"/>
<path d="M45.3063 29.6973C44.5185 28.5153 43.3906 27.8374 42.2115 27.8374C41.0324 27.8374 39.9045 28.5153 39.1168 29.6973C38.3932 30.7832 37.9946 32.2091 37.9946 33.7126C37.9946 35.216 38.3931 36.642 39.1168 37.7278C39.9045 38.9098 41.0324 39.5878 42.2115 39.5878C43.3906 39.5878 44.5185 38.9098 45.3063 37.7278C46.0299 36.642 46.4284 35.2161 46.4284 33.7126C46.4284 32.2091 46.0299 30.7831 45.3063 29.6973Z" fill="#5C6C2F"/>
<path d="M37.849 39.689C37.3946 38.3651 36.5208 37.3139 35.4518 36.8048C34.676 36.4353 33.8418 36.3874 33.1028 36.6698C32.1845 37.021 31.5038 37.8198 31.1863 38.9192C30.899 39.9138 30.9453 41.0573 31.3166 42.1391V42.1392C31.7711 43.4631 32.6448 44.5143 33.7138 45.0234C34.156 45.234 34.6172 45.3402 35.0689 45.3402C35.4096 45.3402 35.745 45.2798 36.0627 45.1583C36.9812 44.8072 37.6618 44.0084 37.9794 42.909C38.2665 41.9145 38.2202 40.7709 37.849 39.689Z" fill="#5C6C2F"/>
<g filter="url(#filter1_d)">
<rect x="15" y="100" width="63.1663" height="61.1626" rx="15.9938" fill="#FFAD0E"/>
</g>
<path d="M54.6624 133.064C52.5094 130.418 49.7881 128.961 46.9995 128.961C44.211 128.961 41.4896 130.418 39.3368 133.064C37.4016 135.442 36.2463 138.438 36.2463 141.08C36.2463 142.364 36.6318 143.341 37.3921 143.986C38.1424 144.622 39.1331 144.837 40.2383 144.837C41.4143 144.837 42.7202 144.594 44.0032 144.354C45.1244 144.145 46.1834 143.947 46.9996 143.947C47.7041 143.947 48.6974 144.135 49.7488 144.333C52.206 144.798 54.9912 145.324 56.6001 143.962C57.365 143.315 57.7528 142.346 57.7528 141.08C57.7529 138.438 56.5976 135.442 54.6624 133.064Z" fill="#986503"/>
<path d="M54.8825 118.697C54.0947 117.515 52.9667 116.837 51.7877 116.837C50.6086 116.837 49.4807 117.515 48.693 118.697C47.9694 119.783 47.5708 121.209 47.5708 122.713C47.5708 124.216 47.9693 125.642 48.693 126.728C49.4807 127.91 50.6087 128.588 51.7877 128.588C52.9668 128.588 54.0947 127.91 54.8825 126.728C55.6061 125.642 56.0046 124.216 56.0046 122.713C56.0046 121.209 55.6061 119.783 54.8825 118.697Z" fill="#986503"/>
<path d="M62.8136 127.919C62.4961 126.82 61.8154 126.021 60.8971 125.67C60.1581 125.387 59.324 125.435 58.5482 125.805C57.4792 126.314 56.6054 127.365 56.151 128.689C55.7797 129.771 55.7334 130.914 56.0207 131.909C56.3383 133.008 57.019 133.807 57.9373 134.158C58.2551 134.28 58.5904 134.34 58.9312 134.34C59.3828 134.34 59.8441 134.234 60.2863 134.023C61.3553 133.514 62.2291 132.463 62.6835 131.139V131.139C63.0547 130.057 63.101 128.914 62.8136 127.919Z" fill="#986503"/>
<path d="M45.3063 118.697C44.5185 117.515 43.3906 116.837 42.2115 116.837C41.0324 116.837 39.9045 117.515 39.1168 118.697C38.3932 119.783 37.9946 121.209 37.9946 122.713C37.9946 124.216 38.3931 125.642 39.1168 126.728C39.9045 127.91 41.0324 128.588 42.2115 128.588C43.3906 128.588 44.5185 127.91 45.3063 126.728C46.0299 125.642 46.4284 124.216 46.4284 122.713C46.4284 121.209 46.0299 119.783 45.3063 118.697Z" fill="#986503"/>
<path d="M37.849 128.689C37.3946 127.365 36.5208 126.314 35.4518 125.805C34.676 125.435 33.8418 125.387 33.1028 125.67C32.1845 126.021 31.5038 126.82 31.1863 127.919C30.899 128.914 30.9453 130.057 31.3166 131.139V131.139C31.7711 132.463 32.6448 133.514 33.7138 134.023C34.156 134.234 34.6172 134.34 35.0689 134.34C35.4096 134.34 35.745 134.28 36.0627 134.158C36.9812 133.807 37.6618 133.008 37.9794 131.909C38.2665 130.914 38.2202 129.771 37.849 128.689Z" fill="#986503"/>
<g filter="url(#filter2_d)">
<rect x="15" y="189" width="63.1663" height="61.1626" rx="15.9938" fill="#E73E30"/>
</g>
<path d="M54.6624 222.064C52.5094 219.418 49.7881 217.961 46.9995 217.961C44.211 217.961 41.4896 219.418 39.3368 222.064C37.4016 224.442 36.2463 227.438 36.2463 230.08C36.2463 231.364 36.6318 232.341 37.3921 232.986C38.1424 233.622 39.1331 233.837 40.2383 233.837C41.4143 233.837 42.7202 233.594 44.0032 233.354C45.1244 233.145 46.1834 232.947 46.9996 232.947C47.7041 232.947 48.6974 233.135 49.7488 233.333C52.206 233.798 54.9912 234.324 56.6001 232.962C57.365 232.315 57.7528 231.346 57.7528 230.08C57.7529 227.438 56.5976 224.442 54.6624 222.064Z" fill="#F5A29B"/>
<path d="M54.8825 207.697C54.0947 206.515 52.9667 205.837 51.7877 205.837C50.6086 205.837 49.4807 206.515 48.693 207.697C47.9694 208.783 47.5708 210.209 47.5708 211.713C47.5708 213.216 47.9693 214.642 48.693 215.728C49.4807 216.91 50.6087 217.588 51.7877 217.588C52.9668 217.588 54.0947 216.91 54.8825 215.728C55.6061 214.642 56.0046 213.216 56.0046 211.713C56.0046 210.209 55.6061 208.783 54.8825 207.697Z" fill="#F5A29B"/>
<path d="M62.8136 216.919C62.4961 215.82 61.8154 215.021 60.8971 214.67C60.1581 214.387 59.324 214.435 58.5482 214.805C57.4792 215.314 56.6054 216.365 56.151 217.689C55.7797 218.771 55.7334 219.914 56.0207 220.909C56.3383 222.008 57.019 222.807 57.9373 223.158C58.2551 223.28 58.5904 223.34 58.9312 223.34C59.3828 223.34 59.8441 223.234 60.2863 223.023C61.3553 222.514 62.2291 221.463 62.6835 220.139V220.139C63.0547 219.057 63.101 217.914 62.8136 216.919Z" fill="#F5A29B"/>
<path d="M45.3063 207.697C44.5185 206.515 43.3906 205.837 42.2115 205.837C41.0324 205.837 39.9045 206.515 39.1168 207.697C38.3932 208.783 37.9946 210.209 37.9946 211.713C37.9946 213.216 38.3931 214.642 39.1168 215.728C39.9045 216.91 41.0324 217.588 42.2115 217.588C43.3906 217.588 44.5185 216.91 45.3063 215.728C46.0299 214.642 46.4284 213.216 46.4284 211.713C46.4284 210.209 46.0299 208.783 45.3063 207.697Z" fill="#F5A29B"/>
<path d="M37.849 217.689C37.3946 216.365 36.5208 215.314 35.4518 214.805C34.676 214.435 33.8418 214.387 33.1028 214.67C32.1845 215.021 31.5038 215.82 31.1863 216.919C30.899 217.914 30.9453 219.057 31.3166 220.139V220.139C31.7711 221.463 32.6448 222.514 33.7138 223.023C34.156 223.234 34.6172 223.34 35.0689 223.34C35.4096 223.34 35.745 223.28 36.0627 223.158C36.9812 222.807 37.6618 222.008 37.9794 220.909C38.2665 219.914 38.2202 218.771 37.849 217.689Z" fill="#F5A29B"/>
<defs>
<filter id="filter0_d" x="0" y="0.921182" width="93.1663" height="91.1626" filterUnits="userSpaceOnUse" color-interpolation-filters="sRGB">
<feFlood flood-opacity="0" result="BackgroundImageFix"/>
<feColorMatrix in="SourceAlpha" type="matrix" values="0 0 0 0 0 0 0 0 0 0 0 0 0 0 0 0 0 0 127 0"/>
<feOffset dy="4.92118"/>
<feGaussianBlur stdDeviation="7.5"/>
<feColorMatrix type="matrix" values="0 0 0 0 0.12549 0 0 0 0 0.12549 0 0 0 0 0.12549 0 0 0 0.3 0"/>
<feBlend mode="normal" in2="BackgroundImageFix" result="effect1_dropShadow"/>
<feBlend mode="normal" in="SourceGraphic" in2="effect1_dropShadow" result="shape"/>
</filter>
<filter id="filter1_d" x="0" y="89.9212" width="93.1663" height="91.1626" filterUnits="userSpaceOnUse" color-interpolation-filters="sRGB">
<feFlood flood-opacity="0" result="BackgroundImageFix"/>
<feColorMatrix in="SourceAlpha" type="matrix" values="0 0 0 0 0 0 0 0 0 0 0 0 0 0 0 0 0 0 127 0"/>
<feOffset dy="4.92118"/>
<feGaussianBlur stdDeviation="7.5"/>
<feColorMatrix type="matrix" values="0 0 0 0 0.12549 0 0 0 0 0.12549 0 0 0 0 0.12549 0 0 0 0.3 0"/>
<feBlend mode="normal" in2="BackgroundImageFix" result="effect1_dropShadow"/>
<feBlend mode="normal" in="SourceGraphic" in2="effect1_dropShadow" result="shape"/>
</filter>
<filter id="filter2_d" x="0" y="178.921" width="93.1663" height="91.1626" filterUnits="userSpaceOnUse" color-interpolation-filters="sRGB">
<feFlood flood-opacity="0" result="BackgroundImageFix"/>
<feColorMatrix in="SourceAlpha" type="matrix" values="0 0 0 0 0 0 0 0 0 0 0 0 0 0 0 0 0 0 127 0"/>
<feOffset dy="4.92118"/>
<feGaussianBlur stdDeviation="7.5"/>
<feColorMatrix type="matrix" values="0 0 0 0 0.12549 0 0 0 0 0.12549 0 0 0 0 0.12549 0 0 0 0.3 0"/>
<feBlend mode="normal" in2="BackgroundImageFix" result="effect1_dropShadow"/>
<feBlend mode="normal" in="SourceGraphic" in2="effect1_dropShadow" result="shape"/>
</filter>
</defs>
</svg>
