<svg width="35" height="43" viewBox="0 0 35 43" fill="none" xmlns="http://www.w3.org/2000/svg">
<path d="M18.973 12.8235C19.7745 12.1443 20.4173 11.3042 20.8579 10.3603C21.2985 9.41641 21.5265 8.39075 21.5265 7.35294C21.5265 5.40282 20.7353 3.53257 19.3268 2.15363C17.9184 0.774683 16.0081 2.63104e-07 14.0163 2.63104e-07C12.0245 2.63104e-07 10.1142 0.774683 8.7058 2.15363C7.29737 3.53257 6.50612 5.40282 6.50612 7.35294C6.50611 8.39075 6.73413 9.41641 7.17472 10.3603C7.6153 11.3042 8.25813 12.1443 9.05959 12.8235C6.95694 13.7557 5.17301 15.2611 3.92108 17.1596C2.66915 19.0582 2.00221 21.2696 2 23.5294C2 23.9194 2.15825 24.2935 2.43994 24.5693C2.72162 24.8451 3.10367 25 3.50204 25C3.90041 25 4.28245 24.8451 4.56414 24.5693C4.84583 24.2935 5.00408 23.9194 5.00408 23.5294C5.00408 21.1893 5.95358 18.945 7.6437 17.2902C9.33383 15.6355 11.6261 14.7059 14.0163 14.7059C16.4065 14.7059 18.6988 15.6355 20.3889 17.2902C22.0791 18.945 23.0286 21.1893 23.0286 23.5294C23.0286 23.9194 23.1868 24.2935 23.4685 24.5693C23.7502 24.8451 24.1322 25 24.5306 25C24.929 25 25.311 24.8451 25.5927 24.5693C25.8744 24.2935 26.0326 23.9194 26.0326 23.5294C26.0304 21.2696 25.3635 19.0582 24.1116 17.1596C22.8596 15.2611 21.0757 13.7557 18.973 12.8235ZM14.0163 11.7647C13.1251 11.7647 12.2539 11.506 11.5129 11.0212C10.7718 10.5364 10.1943 9.84739 9.85321 9.04125C9.51215 8.23511 9.42291 7.34805 9.59678 6.49225C9.77065 5.63645 10.1998 4.85035 10.83 4.23335C11.4602 3.61636 12.2631 3.19618 13.1372 3.02595C14.0113 2.85572 14.9173 2.94309 15.7407 3.277C16.5641 3.61092 17.2679 4.17638 17.763 4.9019C18.2582 5.62741 18.5224 6.48038 18.5224 7.35294C18.5224 8.52301 18.0477 9.64516 17.2026 10.4725C16.3576 11.2999 15.2114 11.7647 14.0163 11.7647ZM28.6462 12.2353C29.6074 11.1755 30.2354 9.86626 30.4543 8.4652C30.6733 7.06415 30.4741 5.63099 29.8805 4.33824C29.287 3.04548 28.3244 1.94823 27.1088 1.17856C25.8932 0.408897 24.4762 -0.000378824 23.0286 2.63104e-07C22.6302 2.63104e-07 22.2481 0.154937 21.9665 0.430726C21.6848 0.706514 21.5265 1.08056 21.5265 1.47059C21.5265 1.86061 21.6848 2.23466 21.9665 2.51045C22.2481 2.78624 22.6302 2.94118 23.0286 2.94118C24.2236 2.94118 25.3698 3.40599 26.2149 4.23335C27.0599 5.06072 27.5347 6.18287 27.5347 7.35294C27.5325 8.12535 27.3233 8.88368 26.9279 9.55209C26.5326 10.2205 25.9649 10.7756 25.2816 11.1618C25.0589 11.2875 24.8729 11.4672 24.7414 11.6834C24.6099 11.8997 24.5373 12.1454 24.5306 12.3971C24.5243 12.6467 24.5831 12.8938 24.7013 13.1151C24.8196 13.3364 24.9934 13.5245 25.2065 13.6618L25.7923 14.0441L25.9876 14.1471C27.7981 14.9878 29.3256 16.3176 30.39 17.9799C31.4545 19.6421 32.0116 21.5676 31.9957 23.5294C31.9957 23.9194 32.154 24.2935 32.4357 24.5693C32.7174 24.8451 33.0994 25 33.4978 25C33.8961 25 34.2782 24.8451 34.5599 24.5693C34.8416 24.2935 34.9998 23.9194 34.9998 23.5294C35.0121 21.2727 34.4348 19.0504 33.3227 17.0736C32.2107 15.0969 30.6009 13.4313 28.6462 12.2353Z" fill="#0B469D"/>
<g clip-path="url(#clip0)">
<path d="M13.9841 36.4206C13.8501 36.4207 13.7174 36.3944 13.5935 36.3431C13.4693 36.2917 13.3564 36.2163 13.2614 36.1213C13.1663 36.0262 13.0909 35.9134 13.0396 35.7892C12.9882 35.6651 12.9619 35.5321 12.9621 35.3978C12.9621 35.3977 12.9621 35.3976 12.9621 35.3975L12.9573 30.9843L8.5433 30.9795L8.54301 30.9795C8.27227 30.9789 8.0127 30.8708 7.82117 30.6792C7.62965 30.4877 7.52154 30.2281 7.52093 29.9574C7.52032 29.6866 7.62733 29.4268 7.81872 29.2354C8.01011 29.0441 8.26988 28.937 8.54067 28.9377L8.54096 28.9377L12.9527 28.9527L12.9377 24.541L12.9377 24.5407C12.937 24.2699 13.0441 24.0101 13.2354 23.8187C13.4268 23.6273 13.6866 23.5203 13.9574 23.5209C14.2281 23.5215 14.4877 23.6296 14.6792 23.8212C14.8708 24.0127 14.9789 24.2723 14.9795 24.543L14.9795 24.5433L14.9843 28.9573L19.3975 28.9621C19.3976 28.9621 19.3978 28.9621 19.3979 28.9621C19.5321 28.9619 19.6651 28.9882 19.7892 29.0396C19.9134 29.0909 20.0262 29.1663 20.1213 29.2614C20.2163 29.3564 20.2917 29.4693 20.3431 29.5935C20.3944 29.7174 20.4207 29.8501 20.4206 29.9841C20.4213 30.1181 20.3956 30.2509 20.3448 30.3749L20.1134 30.2801L20.3448 30.3749C20.2938 30.4992 20.2187 30.6121 20.1237 30.707C20.0288 30.802 19.9159 30.8771 19.7916 30.928C19.6675 30.9789 19.5344 31.0047 19.4002 31.0039C19.4001 31.0039 19.4 31.0039 19.3999 31.0039L14.9888 30.9888L15.0039 35.3998C15.0039 35.4 15.0039 35.4001 15.0039 35.4003C15.0047 35.5345 14.9789 35.6675 14.928 35.7916L14.6997 35.698L14.928 35.7916C14.8771 35.9159 14.802 36.0288 14.707 36.1237C14.6121 36.2187 14.4992 36.2938 14.3749 36.3448L14.2813 36.1163L14.3749 36.3448C14.251 36.3956 14.1182 36.4213 13.9841 36.4206ZM13.9841 36.4206C13.9838 36.4206 13.9835 36.4206 13.9831 36.4206L13.9847 36.1706L13.9852 36.4206C13.9848 36.4206 13.9845 36.4206 13.9841 36.4206Z" fill="#0B469D" stroke="#0B469D" stroke-width="0.5"/>
</g>
<defs>
<clipPath id="clip0">
<rect width="18.385" height="18.4678" fill="white" transform="translate(0.941406 29.9414) rotate(-45)"/>
</clipPath>
</defs>
</svg>
