<svg width="32" height="43" viewBox="0 0 32 43" fill="none" xmlns="http://www.w3.org/2000/svg">
<path d="M28.125 24.9753V18.4403C28.1222 15.5285 27.148 12.7118 25.3749 10.4889C23.6019 8.26597 21.1443 6.78031 18.4375 6.29502V4.05503C18.4375 3.51001 18.2334 2.9873 17.87 2.60191C17.5067 2.21651 17.0139 2 16.5 2C15.9861 2 15.4933 2.21651 15.13 2.60191C14.7666 2.9873 14.5625 3.51001 14.5625 4.05503V6.29502C11.8557 6.78031 9.39814 8.26597 7.62506 10.4889C5.85198 12.7118 4.87778 15.5285 4.875 18.4403V24.9753C3.74437 25.3993 2.76506 26.1838 2.07132 27.2213C1.37758 28.2588 1.00337 29.4985 1 30.7705V34.8806C1 35.4256 1.20413 35.9483 1.56748 36.3337C1.93083 36.7191 2.42364 36.9356 2.9375 36.9356H9.02125C9.46742 38.677 10.4414 40.2142 11.793 41.3102C13.1446 42.4062 14.7987 43 16.5 43C18.2013 43 19.8554 42.4062 21.207 41.3102C22.5586 40.2142 23.5326 38.677 23.9788 36.9356H30.0625C30.5764 36.9356 31.0692 36.7191 31.4325 36.3337C31.7959 35.9483 32 35.4256 32 34.8806V30.7705C31.9966 29.4985 31.6224 28.2588 30.9287 27.2213C30.2349 26.1838 29.2556 25.3993 28.125 24.9753ZM8.75 18.4403C8.75 16.2602 9.56652 14.1693 11.0199 12.6278C12.4733 11.0862 14.4446 10.2201 16.5 10.2201C18.5554 10.2201 20.5267 11.0862 21.9801 12.6278C23.4335 14.1693 24.25 16.2602 24.25 18.4403V24.6054H8.75V18.4403ZM16.5 38.9906C15.8238 38.9863 15.1604 38.7943 14.5757 38.4338C13.9911 38.0733 13.5056 37.5568 13.1675 36.9356H19.8325C19.4944 37.5568 19.0089 38.0733 18.4243 38.4338C17.8396 38.7943 17.1762 38.9863 16.5 38.9906ZM28.125 32.8255H4.875V30.7705C4.875 30.2255 5.07913 29.7028 5.44248 29.3174C5.80583 28.932 6.29864 28.7155 6.8125 28.7155H26.1875C26.7014 28.7155 27.1942 28.932 27.5575 29.3174C27.9209 29.7028 28.125 30.2255 28.125 30.7705V32.8255Z" fill="#4B0B9D"/>
</svg>
