<svg width="290" height="208" viewBox="0 0 290 208" fill="none" xmlns="http://www.w3.org/2000/svg">
<path d="M104.788 81.8664L104.788 81.8664C116.046 68.8856 130.21 61.8086 144.648 61.8086C159.086 61.8086 173.249 68.8856 184.508 81.8664L185.263 81.2112L184.508 81.8664C194.639 93.5471 200.644 108.226 200.643 121.08C200.643 127.139 198.675 131.642 194.912 134.629C190.918 137.801 185.378 138.835 179.078 138.74C172.789 138.645 165.924 137.431 159.394 136.273L159.22 137.257L159.394 136.273L159.306 136.257C153.802 135.281 148.471 134.336 144.648 134.336C140.234 134.336 134.552 135.332 128.669 136.362L128.594 136.376C121.772 137.571 114.941 138.764 108.811 138.764C103.052 138.764 98.0689 137.708 94.3477 134.747L93.725 135.529L94.3477 134.747C90.6131 131.775 88.6523 127.238 88.6523 121.08C88.6523 108.226 94.6572 93.5471 104.788 81.8664Z" fill="#4B0B9D" stroke="#4B0B9D" stroke-width="2"/>
<path d="M154.438 10.3456C158.459 4.68497 164.154 1.51709 170.026 1.51709C175.898 1.51709 181.593 4.68469 185.614 10.3456L185.614 10.3457C189.314 15.5548 191.377 22.4377 191.377 29.7348C191.377 37.0319 189.314 43.9145 185.614 49.124C181.593 54.7847 175.899 57.9525 170.026 57.9525C164.154 57.9525 158.459 54.7847 154.438 49.124C150.738 43.9145 148.675 37.0319 148.675 29.7348C148.675 22.4378 150.738 15.5552 154.438 10.3456ZM154.438 10.3456L153.623 9.76655L154.438 10.3456Z" fill="#4B0B9D" stroke="#4B0B9D" stroke-width="2"/>
<mask id="path-3-inside-1" fill="white">
<path d="M228.467 55.6282C226.784 50.1607 223.176 46.188 218.309 44.4421C214.392 43.0373 209.971 43.2755 205.859 45.1131C200.193 47.645 195.562 52.8733 193.154 59.457C191.185 64.8371 190.94 70.5238 192.463 75.4702C194.146 80.9377 197.754 84.9104 202.621 86.6562C204.306 87.2604 206.083 87.5606 207.889 87.5606C210.283 87.5606 212.728 87.0327 215.071 85.9853C220.738 83.4534 225.369 78.2251 227.777 71.6417V71.6414C229.745 66.2616 229.991 60.5746 228.467 55.6282Z"/>
</mask>
<path d="M228.467 55.6282C226.784 50.1607 223.176 46.188 218.309 44.4421C214.392 43.0373 209.971 43.2755 205.859 45.1131C200.193 47.645 195.562 52.8733 193.154 59.457C191.185 64.8371 190.94 70.5238 192.463 75.4702C194.146 80.9377 197.754 84.9104 202.621 86.6562C204.306 87.2604 206.083 87.5606 207.889 87.5606C210.283 87.5606 212.728 87.0327 215.071 85.9853C220.738 83.4534 225.369 78.2251 227.777 71.6417V71.6414C229.745 66.2616 229.991 60.5746 228.467 55.6282Z" fill="#4B0B9D"/>
<path d="M228.467 55.6282L226.556 56.2166L226.556 56.2168L228.467 55.6282ZM218.309 44.4421L218.985 42.5596L218.984 42.5596L218.309 44.4421ZM205.859 45.1131L206.675 46.9391L206.675 46.939L205.859 45.1131ZM193.154 59.457L195.032 60.1441L195.032 60.1441L193.154 59.457ZM192.463 75.4702L194.374 74.8818L194.374 74.8818L192.463 75.4702ZM202.621 86.6562L203.297 84.7737L203.297 84.7737L202.621 86.6562ZM215.071 85.9853L214.256 84.1593L214.255 84.1594L215.071 85.9853ZM227.777 71.6417L229.656 72.3288L229.777 71.996V71.6417H227.777ZM227.777 71.6414L225.899 70.9544L225.777 71.2871V71.6414H227.777ZM230.379 55.0397C228.533 49.0441 224.514 44.5428 218.985 42.5596L217.634 46.3247C221.839 47.8331 225.035 51.2774 226.556 56.2166L230.379 55.0397ZM218.984 42.5596C214.54 40.9654 209.584 41.258 205.043 43.2871L206.675 46.939C210.358 45.2931 214.245 45.1092 217.634 46.3247L218.984 42.5596ZM205.043 43.2871C198.818 46.0689 193.843 51.7506 191.275 58.77L195.032 60.1441C197.281 53.9959 201.568 49.221 206.675 46.9391L205.043 43.2871ZM191.275 58.7699C189.174 64.5139 188.886 70.65 190.551 76.0587L194.374 74.8818C192.994 70.3975 193.197 65.1604 195.032 60.1441L191.275 58.7699ZM190.551 76.0587C192.397 82.0543 196.417 86.5556 201.946 88.5388L203.297 84.7737C199.091 83.2653 195.895 79.821 194.374 74.8818L190.551 76.0587ZM201.946 88.5388C203.854 89.2233 205.861 89.5606 207.889 89.5606V85.5606C206.305 85.5606 204.757 85.2976 203.297 84.7737L201.946 88.5388ZM207.889 89.5606C210.578 89.5606 213.3 88.9678 215.887 87.8113L214.255 84.1594C212.156 85.0976 209.989 85.5606 207.889 85.5606V89.5606ZM215.887 87.8113C222.113 85.0295 227.088 79.3478 229.656 72.3288L225.899 70.9546C223.65 77.1025 219.362 81.8773 214.256 84.1593L215.887 87.8113ZM229.777 71.6417V71.6414H225.777V71.6417H229.777ZM229.656 72.3284C231.756 66.5848 232.044 60.4483 230.379 55.0396L226.556 56.2168C227.937 60.7009 227.734 65.9384 225.899 70.9544L229.656 72.3284Z" fill="#4B0B9D" mask="url(#path-3-inside-1)"/>
<path d="M119.269 1.51709C125.142 1.51709 130.836 4.68467 134.857 10.3456C138.557 15.5548 140.62 22.4377 140.62 29.7348C140.62 37.0322 138.557 43.9145 134.857 49.124C130.836 54.785 125.142 57.9529 119.269 57.9529C113.397 57.9529 107.702 54.785 103.682 49.124L102.866 49.7031L103.682 49.124C99.9812 43.9145 97.9185 37.0319 97.9185 29.7348C97.9185 22.4378 99.9815 15.5551 103.682 10.3456C107.702 4.68499 113.397 1.51709 119.269 1.51709Z" fill="#4B0B9D" stroke="#4B0B9D" stroke-width="2"/>
<path d="M71.3281 45.3833C66.7915 47.0107 63.3895 50.7193 61.7877 55.9223C60.336 60.6376 60.5603 66.0998 62.4618 71.2977L62.4881 71.3696C64.8245 77.7015 69.2705 82.6743 74.6365 85.0722C76.8585 86.065 79.1643 86.5605 81.411 86.5605C83.1057 86.5605 84.7687 86.2786 86.3411 85.7148M71.3281 45.3833C74.9808 44.0734 79.135 44.2842 83.0326 46.0259L83.4406 45.1129L83.0326 46.0259C88.4189 48.4329 92.8784 53.4341 95.2074 59.8C97.1086 64.9986 97.3328 70.4609 95.8818 75.176C94.2799 80.3789 90.8783 84.0874 86.3411 85.7148M71.3281 45.3833L70.9905 44.442L71.3281 45.3833ZM86.3411 85.7148L86.6787 86.6561L86.3411 85.7148Z" fill="#4B0B9D" stroke="#4B0B9D" stroke-width="2"/>
<path d="M58.6953 163.28C58.6953 166 57.7353 168.352 55.8153 170.336C53.8953 172.288 51.0953 173.696 47.4153 174.56C49.3993 175.104 50.9033 176 51.9273 177.248C52.9513 178.464 53.4633 179.872 53.4633 181.472C53.4633 184 52.6633 186.192 51.0633 188.048C49.4953 189.904 47.1913 191.344 44.1512 192.368C41.1113 193.36 37.4473 193.856 33.1593 193.856C31.5593 193.856 30.2793 193.808 29.3193 193.712C29.2873 194.608 28.9033 195.28 28.1673 195.728C27.4313 196.176 26.4873 196.4 25.3353 196.4C24.1833 196.4 23.3833 196.144 22.9353 195.632C22.5193 195.12 22.3433 194.368 22.4073 193.376C22.6953 188.896 23.2553 184.208 24.0872 179.312C24.9193 174.384 25.9753 169.632 27.2553 165.056C27.4793 164.256 27.9273 163.696 28.5993 163.376C29.2713 163.056 30.1513 162.896 31.2393 162.896C33.1913 162.896 34.1673 163.44 34.1673 164.528C34.1673 164.976 34.0713 165.488 33.8793 166.064C33.0473 168.56 32.2153 171.952 31.3833 176.24C30.5513 180.496 29.9593 184.56 29.6073 188.432C31.1433 188.56 32.3913 188.624 33.3513 188.624C37.8313 188.624 41.1113 187.984 43.1913 186.704C45.3033 185.392 46.3593 183.728 46.3593 181.712C46.3593 180.304 45.7513 179.12 44.5353 178.16C43.3513 177.2 41.3513 176.672 38.5353 176.576C37.8953 176.544 37.4473 176.384 37.1913 176.096C36.9353 175.808 36.8073 175.344 36.8073 174.704C36.8073 173.776 36.9993 173.024 37.3833 172.448C37.7673 171.872 38.4713 171.568 39.4953 171.536C41.7673 171.472 43.8153 171.136 45.6393 170.528C47.4953 169.92 48.9513 169.072 50.0073 167.984C51.0633 166.864 51.5913 165.568 51.5913 164.096C51.5913 162.24 50.6793 160.784 48.8553 159.728C47.0313 158.64 44.2313 158.096 40.4553 158.096C37.0313 158.096 33.7193 158.544 30.5193 159.44C27.3193 160.304 24.5993 161.408 22.3593 162.752C21.3353 163.36 20.4713 163.664 19.7673 163.664C19.1913 163.664 18.7433 163.472 18.4233 163.088C18.1353 162.672 17.9913 162.16 17.9913 161.552C17.9913 160.752 18.1513 160.064 18.4713 159.488C18.8233 158.912 19.6393 158.256 20.9193 157.52C23.6073 155.984 26.7593 154.784 30.3753 153.92C33.9913 153.056 37.6873 152.624 41.4633 152.624C47.2553 152.624 51.5753 153.6 54.4233 155.552C57.2713 157.504 58.6953 160.08 58.6953 163.28ZM63.0205 194.24C61.0365 194.24 59.4525 193.52 58.2685 192.08C57.0845 190.64 56.4925 188.752 56.4925 186.416C56.4925 183.856 57.0845 181.44 58.2685 179.168C59.4525 176.864 61.0205 175.024 62.9725 173.648C64.9565 172.24 67.0525 171.536 69.2605 171.536C69.9645 171.536 70.4285 171.68 70.6525 171.968C70.9085 172.224 71.1165 172.704 71.2765 173.408C71.9485 173.28 72.6525 173.216 73.3885 173.216C74.9565 173.216 75.7405 173.776 75.7405 174.896C75.7405 175.568 75.5005 177.168 75.0205 179.696C74.2845 183.376 73.9165 185.936 73.9165 187.376C73.9165 187.856 74.0285 188.24 74.2525 188.528C74.5085 188.816 74.8285 188.96 75.2125 188.96C75.8205 188.96 76.5565 188.576 77.4205 187.808C78.2845 187.008 79.4525 185.728 80.9245 183.968C81.3085 183.52 81.7405 183.296 82.2205 183.296C82.6365 183.296 82.9565 183.488 83.1805 183.872C83.4365 184.256 83.5645 184.784 83.5645 185.456C83.5645 186.736 83.2605 187.728 82.6525 188.432C81.3405 190.064 79.9485 191.44 78.4765 192.56C77.0045 193.68 75.5805 194.24 74.2045 194.24C73.1485 194.24 72.1725 193.888 71.2765 193.184C70.4125 192.448 69.7565 191.456 69.3085 190.208C67.6445 192.896 65.5485 194.24 63.0205 194.24ZM64.7485 189.392C65.4525 189.392 66.1245 188.976 66.7645 188.144C67.4045 187.312 67.8685 186.208 68.1565 184.832L69.9325 176C68.5885 176.032 67.3405 176.544 66.1885 177.536C65.0685 178.496 64.1725 179.776 63.5005 181.376C62.8285 182.976 62.4925 184.672 62.4925 186.464C62.4925 187.456 62.6845 188.192 63.0685 188.672C63.4845 189.152 64.0445 189.392 64.7485 189.392ZM83.0714 194.24C81.8554 194.24 80.9914 193.6 80.4794 192.32C79.9994 191.04 79.7594 188.992 79.7594 186.176C79.7594 182.016 80.3514 178.064 81.5354 174.32C81.8234 173.392 82.2874 172.72 82.9274 172.304C83.5994 171.856 84.5274 171.632 85.7114 171.632C86.3514 171.632 86.7994 171.712 87.0554 171.872C87.3114 172.032 87.4394 172.336 87.4394 172.784C87.4394 173.296 87.1994 174.448 86.7194 176.24C86.3994 177.52 86.1434 178.64 85.9514 179.6C85.7594 180.56 85.5994 181.744 85.4714 183.152C86.5274 180.4 87.7114 178.16 89.0234 176.432C90.3354 174.704 91.6154 173.472 92.8634 172.736C94.1434 172 95.3114 171.632 96.3674 171.632C98.4474 171.632 99.4874 172.672 99.4874 174.752C99.4874 175.168 99.3434 176.176 99.0554 177.776C98.7994 179.056 98.6714 179.856 98.6714 180.176C98.6714 181.296 99.0714 181.856 99.8714 181.856C100.767 181.856 101.919 181.152 103.327 179.744C103.743 179.328 104.175 179.12 104.623 179.12C105.039 179.12 105.359 179.312 105.583 179.696C105.839 180.048 105.967 180.528 105.967 181.136C105.967 182.32 105.647 183.248 105.007 183.92C104.111 184.848 103.055 185.648 101.839 186.32C100.655 186.96 99.3914 187.28 98.0474 187.28C96.3514 187.28 95.0554 186.848 94.1594 185.984C93.2954 185.12 92.8634 183.952 92.8634 182.48C92.8634 182 92.9114 181.52 93.0074 181.04C93.0714 180.4 93.1034 179.968 93.1034 179.744C93.1034 179.232 92.9274 178.976 92.5754 178.976C92.0954 178.976 91.4554 179.52 90.6554 180.608C89.8874 181.664 89.1194 183.072 88.3514 184.832C87.5834 186.592 86.9594 188.448 86.4794 190.4C86.1274 191.904 85.7114 192.928 85.2314 193.472C84.7834 193.984 84.0634 194.24 83.0714 194.24ZM129.251 183.296C129.667 183.296 129.987 183.488 130.211 183.872C130.467 184.256 130.595 184.784 130.595 185.456C130.595 186.736 130.291 187.728 129.683 188.432C128.243 190.192 126.787 191.6 125.315 192.656C123.843 193.712 122.099 194.24 120.083 194.24C117.619 194.24 115.635 193.536 114.131 192.128C112.627 190.72 111.875 188.848 111.875 186.512C111.875 185.264 112.515 184.368 113.795 183.824C115.203 183.216 116.211 182.576 116.819 181.904C117.427 181.2 117.731 180.352 117.731 179.36C117.731 178.784 117.603 178.352 117.347 178.064C117.123 177.776 116.835 177.632 116.483 177.632C115.619 177.632 114.659 178.256 113.603 179.504C112.579 180.752 111.619 182.368 110.723 184.352C109.827 186.304 109.123 188.32 108.611 190.4C108.259 191.904 107.843 192.928 107.363 193.472C106.915 193.984 106.195 194.24 105.203 194.24C104.211 194.24 103.475 193.888 102.995 193.184C102.547 192.448 102.243 191.328 102.083 189.824C101.923 188.32 101.843 186.112 101.843 183.2C101.843 178.272 102.339 173.136 103.331 167.792C104.355 162.448 105.843 157.968 107.795 154.352C109.779 150.704 112.147 148.88 114.899 148.88C116.371 148.88 117.555 149.52 118.451 150.8C119.379 152.048 119.843 153.68 119.843 155.696C119.843 158.928 118.899 162.288 117.011 165.776C115.123 169.232 112.051 173.28 107.795 177.92C107.699 179.584 107.651 181.296 107.651 183.056C109.187 179.056 110.947 176.16 112.931 174.368C114.915 172.544 116.771 171.632 118.499 171.632C120.099 171.632 121.379 172.176 122.339 173.264C123.331 174.352 123.827 175.696 123.827 177.296C123.827 179.056 123.379 180.672 122.483 182.144C121.587 183.616 120.051 184.928 117.875 186.08C118.003 186.944 118.387 187.648 119.027 188.192C119.699 188.704 120.499 188.96 121.427 188.96C122.419 188.96 123.379 188.576 124.307 187.808C125.235 187.04 126.451 185.76 127.955 183.968C128.339 183.52 128.771 183.296 129.251 183.296ZM113.891 153.632C113.315 153.632 112.675 154.464 111.971 156.128C111.267 157.76 110.579 159.984 109.907 162.8C109.267 165.584 108.739 168.624 108.323 171.92C110.307 169.584 111.939 167.04 113.219 164.288C114.531 161.536 115.187 159.04 115.187 156.8C115.187 155.776 115.075 154.992 114.851 154.448C114.627 153.904 114.307 153.632 113.891 153.632ZM147.27 188.624C147.942 188.624 148.454 188.848 148.806 189.296C149.158 189.744 149.334 190.304 149.334 190.976C149.334 191.808 149.062 192.56 148.518 193.232C148.006 193.872 147.302 194.192 146.406 194.192C144.87 194.192 142.582 194.08 139.542 193.856C138.934 193.824 137.814 193.76 136.182 193.664C134.55 193.568 133.27 193.52 132.342 193.52C131.926 193.52 131.318 193.664 130.518 193.952C130.358 193.984 130.038 194.064 129.558 194.192C129.11 194.32 128.726 194.384 128.406 194.384C127.894 194.384 127.462 194.16 127.11 193.712C126.79 193.232 126.63 192.528 126.63 191.6C126.63 190.576 126.87 189.792 127.35 189.248C127.83 188.672 128.582 188.16 129.606 187.712C131.782 186.752 133.83 185.536 135.75 184.064C137.702 182.56 139.254 180.944 140.406 179.216C141.59 177.488 142.182 175.84 142.182 174.272C142.182 173.024 141.894 172.112 141.318 171.536C140.774 170.928 139.894 170.624 138.678 170.624C137.27 170.624 136.134 171.008 135.27 171.776C134.438 172.544 134.022 173.616 134.022 174.992C134.022 176.88 133.078 177.824 131.19 177.824C130.294 177.824 129.59 177.568 129.078 177.056C128.598 176.544 128.358 175.808 128.358 174.848C128.358 173.248 128.774 171.776 129.606 170.432C130.438 169.088 131.686 168.016 133.35 167.216C135.014 166.384 137.046 165.968 139.446 165.968C142.326 165.968 144.582 166.688 146.214 168.128C147.846 169.568 148.662 171.568 148.662 174.128C148.662 176.56 147.59 179.104 145.446 181.76C143.334 184.416 140.278 186.768 136.278 188.816L147.27 188.624ZM162.417 194.24C161.233 194.24 160.385 193.984 159.873 193.472C159.361 192.928 159.105 191.92 159.105 190.448C159.105 189.456 159.201 188.192 159.393 186.656C159.617 185.088 159.969 182.944 160.449 180.224C161.281 175.2 161.937 170.848 162.417 167.168C162.705 164.864 162.849 162.944 162.849 161.408C162.849 159.968 162.321 159.248 161.265 159.248C160.433 159.248 159.425 159.68 158.241 160.544C157.089 161.376 155.809 162.72 154.401 164.576C153.953 165.184 153.457 165.488 152.913 165.488C152.465 165.488 152.065 165.28 151.713 164.864C151.393 164.416 151.233 163.92 151.233 163.376C151.233 162.864 151.329 162.352 151.521 161.84C151.745 161.296 152.097 160.688 152.577 160.016C154.113 157.872 155.825 156.224 157.713 155.072C159.601 153.888 161.489 153.296 163.377 153.296C165.137 153.296 166.481 153.856 167.409 154.976C168.369 156.096 168.849 157.728 168.849 159.872C168.849 160.736 168.769 161.76 168.609 162.944C168.449 164.096 168.305 165.04 168.177 165.776C168.049 166.512 167.953 167.024 167.889 167.312C169.713 162.096 171.761 158.464 174.033 156.416C176.305 154.336 178.801 153.296 181.521 153.296C183.601 153.296 185.233 154.032 186.417 155.504C187.633 156.976 188.241 159.056 188.241 161.744C188.241 162.8 188.097 164.112 187.809 165.68C189.409 161.264 191.281 158.096 193.425 156.176C195.569 154.256 198.033 153.296 200.817 153.296C203.057 153.296 204.769 154.016 205.953 155.456C207.169 156.896 207.777 158.912 207.777 161.504C207.777 162.912 207.569 164.624 207.153 166.64L204.225 180.368C203.905 181.968 203.745 183.344 203.745 184.496C203.745 185.84 204.049 186.848 204.657 187.52C205.297 188.192 206.177 188.528 207.297 188.528C208.353 188.528 209.377 188.176 210.369 187.472C211.393 186.768 212.593 185.6 213.969 183.968C214.353 183.52 214.785 183.296 215.265 183.296C215.681 183.296 216.001 183.488 216.225 183.872C216.481 184.256 216.609 184.784 216.609 185.456C216.609 186.704 216.305 187.696 215.697 188.432C214.033 190.448 212.385 191.92 210.753 192.848C209.121 193.776 207.409 194.24 205.617 194.24C202.897 194.24 200.769 193.44 199.233 191.84C197.697 190.208 196.929 188.032 196.929 185.312C196.929 183.424 197.313 180.688 198.081 177.104L200.001 168.32C200.065 168.032 200.177 167.52 200.337 166.784C200.497 166.048 200.625 165.36 200.721 164.72C200.817 164.048 200.865 163.392 200.865 162.752C200.865 161.632 200.641 160.8 200.193 160.256C199.777 159.68 199.169 159.392 198.369 159.392C196.865 159.392 195.281 160.368 193.617 162.32C191.985 164.24 190.417 167.44 188.913 171.92C187.441 176.4 186.241 182.224 185.313 189.392C185.089 191.312 184.689 192.608 184.113 193.28C183.569 193.92 182.673 194.24 181.425 194.24C180.337 194.24 179.537 193.984 179.025 193.472C178.545 192.96 178.305 192 178.305 190.592C178.305 189.28 178.481 187.568 178.833 185.456C179.185 183.312 179.633 180.8 180.177 177.92C181.649 170.176 182.385 165.184 182.385 162.944C182.385 161.728 182.145 160.832 181.665 160.256C181.217 159.68 180.529 159.392 179.601 159.392C178.033 159.392 176.417 160.288 174.753 162.08C173.089 163.84 171.457 166.992 169.857 171.536C168.289 176.048 166.977 182.16 165.921 189.872C165.697 191.504 165.361 192.64 164.913 193.28C164.497 193.92 163.665 194.24 162.417 194.24ZM234.15 183.296C234.566 183.296 234.886 183.488 235.109 183.872C235.366 184.256 235.494 184.784 235.494 185.456C235.494 186.736 235.19 187.728 234.582 188.432C233.398 189.872 231.718 191.2 229.542 192.416C227.398 193.632 225.094 194.24 222.63 194.24C219.27 194.24 216.662 193.328 214.806 191.504C212.95 189.68 212.021 187.184 212.021 184.016C212.021 181.808 212.486 179.76 213.414 177.872C214.342 175.952 215.622 174.432 217.254 173.312C218.918 172.192 220.79 171.632 222.87 171.632C224.726 171.632 226.214 172.192 227.334 173.312C228.454 174.4 229.014 175.888 229.014 177.776C229.014 179.984 228.214 181.888 226.614 183.488C225.046 185.056 222.374 186.304 218.598 187.232C219.398 188.704 220.918 189.44 223.158 189.44C224.598 189.44 226.23 188.944 228.054 187.952C229.91 186.928 231.51 185.6 232.854 183.968C233.238 183.52 233.67 183.296 234.15 183.296ZM222.054 176.336C220.87 176.336 219.862 177.024 219.03 178.4C218.23 179.776 217.83 181.44 217.83 183.392V183.488C219.718 183.04 221.206 182.368 222.294 181.472C223.382 180.576 223.926 179.536 223.926 178.352C223.926 177.744 223.75 177.264 223.398 176.912C223.078 176.528 222.63 176.336 222.054 176.336ZM252.993 183.296C253.409 183.296 253.729 183.488 253.953 183.872C254.209 184.256 254.337 184.784 254.337 185.456C254.337 186.736 254.033 187.728 253.425 188.432C252.241 189.872 250.561 191.2 248.385 192.416C246.241 193.632 243.937 194.24 241.473 194.24C238.113 194.24 235.505 193.328 233.649 191.504C231.793 189.68 230.865 187.184 230.865 184.016C230.865 181.808 231.329 179.76 232.257 177.872C233.185 175.952 234.465 174.432 236.097 173.312C237.761 172.192 239.633 171.632 241.713 171.632C243.569 171.632 245.057 172.192 246.177 173.312C247.297 174.4 247.857 175.888 247.857 177.776C247.857 179.984 247.057 181.888 245.457 183.488C243.889 185.056 241.217 186.304 237.441 187.232C238.241 188.704 239.761 189.44 242.001 189.44C243.441 189.44 245.073 188.944 246.897 187.952C248.753 186.928 250.353 185.6 251.697 183.968C252.081 183.52 252.513 183.296 252.993 183.296ZM240.897 176.336C239.713 176.336 238.705 177.024 237.873 178.4C237.073 179.776 236.673 181.44 236.673 183.392V183.488C238.561 183.04 240.049 182.368 241.137 181.472C242.225 180.576 242.769 179.536 242.769 178.352C242.769 177.744 242.593 177.264 242.241 176.912C241.921 176.528 241.473 176.336 240.897 176.336ZM271.837 183.296C272.253 183.296 272.573 183.488 272.797 183.872C273.053 184.256 273.181 184.784 273.181 185.456C273.181 186.736 272.877 187.728 272.269 188.432C270.893 190.128 269.389 191.52 267.757 192.608C266.125 193.696 264.253 194.24 262.141 194.24C255.613 194.24 252.349 189.648 252.349 180.464C252.349 179.056 252.397 177.632 252.493 176.192H250.621C249.661 176.192 249.005 176.016 248.653 175.664C248.333 175.312 248.173 174.752 248.173 173.984C248.173 172.192 248.893 171.296 250.333 171.296H253.069C253.613 167.776 254.445 164.56 255.565 161.648C256.685 158.736 258.029 156.416 259.597 154.688C261.197 152.96 262.909 152.096 264.733 152.096C266.077 152.096 267.133 152.688 267.901 153.872C268.669 155.056 269.053 156.544 269.053 158.336C269.053 163.296 266.973 167.616 262.813 171.296H268.189C268.701 171.296 269.069 171.408 269.293 171.632C269.517 171.856 269.629 172.272 269.629 172.88C269.629 175.088 267.821 176.192 264.205 176.192H258.349C258.285 177.792 258.253 179.04 258.253 179.936C258.253 183.264 258.637 185.6 259.405 186.944C260.205 188.288 261.453 188.96 263.149 188.96C264.525 188.96 265.741 188.544 266.797 187.712C267.853 186.88 269.101 185.632 270.541 183.968C270.925 183.52 271.357 183.296 271.837 183.296ZM263.437 156.704C262.957 156.704 262.413 157.312 261.805 158.528C261.229 159.712 260.669 161.376 260.125 163.52C259.613 165.632 259.181 167.984 258.829 170.576C260.717 168.944 262.125 167.12 263.053 165.104C264.013 163.056 264.493 161.2 264.493 159.536C264.493 157.648 264.141 156.704 263.437 156.704Z" fill="#333333"/>
</svg>
