<svg width="32" height="32" viewBox="0 0 32 32" fill="none" xmlns="http://www.w3.org/2000/svg">
<path d="M29.4846 27.2334C30.4768 25.9034 31.1578 24.3674 31.4771 22.739C31.7965 21.1106 31.7461 19.4313 31.3297 17.8249C30.9133 16.2186 30.1415 14.7262 29.0713 13.458C28.0011 12.1898 26.6597 11.1781 25.1462 10.4976C24.8166 8.60093 24.0589 6.80435 22.9309 5.24437C21.8028 3.68439 20.334 2.40206 18.6361 1.49481C16.9382 0.587566 15.0558 0.0792713 13.132 0.00855072C11.2082 -0.0621698 9.29356 0.306545 7.53361 1.08668C5.77365 1.86681 4.21467 3.03784 2.97512 4.51078C1.73558 5.98372 0.848069 7.71983 0.380041 9.58718C-0.0879871 11.4545 -0.124222 13.404 0.274089 15.2874C0.6724 17.1709 1.49478 18.9388 2.67873 20.4568L0.4779 22.6418C0.258201 22.8644 0.109373 23.1472 0.0501976 23.4543C-0.00897814 23.7615 0.0241494 24.0793 0.1454 24.3676C0.264182 24.6567 0.465895 24.9043 0.725119 25.079C0.984343 25.2537 1.28948 25.3477 1.60207 25.3493H10.6112C11.5084 27.2407 12.923 28.8394 14.6911 29.9602C16.4592 31.0811 18.5086 31.6782 20.6021 31.6826H30.1021C30.4147 31.681 30.7198 31.587 30.979 31.4123C31.2382 31.2376 31.44 30.9901 31.5587 30.7009C31.68 30.4126 31.7131 30.0948 31.6539 29.7876C31.5948 29.4805 31.4459 29.1978 31.2262 28.9751L29.4846 27.2334ZM9.51873 20.5993C9.52091 21.1295 9.56325 21.6588 9.6454 22.1826H5.4179L5.97207 21.6443C6.12047 21.4971 6.23826 21.322 6.31865 21.129C6.39903 20.9361 6.44041 20.7291 6.44041 20.5201C6.44041 20.3111 6.39903 20.1041 6.31865 19.9112C6.23826 19.7182 6.12047 19.5431 5.97207 19.3959C5.0847 18.5183 4.38121 17.4726 3.90274 16.3199C3.42426 15.1672 3.18039 13.9306 3.1854 12.6826C3.1854 10.163 4.18629 7.74668 5.96789 5.96508C7.74948 4.18349 10.1658 3.1826 12.6854 3.1826C14.6514 3.17078 16.5717 3.77538 18.1763 4.91138C19.7809 6.04739 20.9892 7.6577 21.6312 9.51593C21.2829 9.51593 20.9504 9.51593 20.6021 9.51593C17.6626 9.51593 14.8435 10.6836 12.765 12.7622C10.6864 14.8407 9.51873 17.6598 9.51873 20.5993ZM26.2071 28.5159L26.2862 28.5951H20.6021C18.7707 28.5918 16.9971 27.9537 15.5834 26.7895C14.1697 25.6252 13.2034 24.0068 12.8491 22.2101C12.4948 20.4133 12.7744 18.5492 13.6403 16.9355C14.5061 15.3217 15.9047 14.0581 17.5978 13.3598C19.2908 12.6615 21.1736 12.5718 22.9253 13.106C24.6771 13.6402 26.1895 14.7652 27.2048 16.2894C28.2201 17.8135 28.6756 19.6425 28.4937 21.4649C28.3118 23.2872 27.5037 24.9901 26.2071 26.2834C25.9087 26.5758 25.738 26.9741 25.7321 27.3918C25.7329 27.6013 25.7754 27.8085 25.8569 28.0015C25.9384 28.1944 26.0575 28.3693 26.2071 28.5159V28.5159Z" fill="#4B0B9D"/>
</svg>
