<svg width="35" height="43" viewBox="0 0 35 43" fill="none" xmlns="http://www.w3.org/2000/svg">
<path d="M18.0316 12.8235C18.8331 12.1443 19.4759 11.3042 19.9165 10.3603C20.3571 9.41641 20.5851 8.39075 20.5851 7.35294C20.5851 5.40282 19.7939 3.53257 18.3854 2.15363C16.977 0.774683 15.0667 2.63104e-07 13.0749 2.63104e-07C11.0831 2.63104e-07 9.17283 0.774683 7.7644 2.15363C6.35596 3.53257 5.56471 5.40282 5.56471 7.35294C5.5647 8.39075 5.79272 9.41641 6.23331 10.3603C6.67389 11.3042 7.31673 12.1443 8.11818 12.8235C6.01553 13.7557 4.2316 15.2611 2.97967 17.1596C1.72775 19.0582 1.0608 21.2696 1.05859 23.5294C1.05859 23.9194 1.21684 24.2935 1.49853 24.5693C1.78022 24.8451 2.16227 25 2.56063 25C2.959 25 3.34105 24.8451 3.62274 24.5693C3.90442 24.2935 4.06267 23.9194 4.06267 23.5294C4.06267 21.1893 5.01217 18.945 6.7023 17.2902C8.39242 15.6355 10.6847 14.7059 13.0749 14.7059C15.4651 14.7059 17.7574 15.6355 19.4475 17.2902C21.1376 18.945 22.0871 21.1893 22.0871 23.5294C22.0871 23.9194 22.2454 24.2935 22.5271 24.5693C22.8088 24.8451 23.1908 25 23.5892 25C23.9876 25 24.3696 24.8451 24.6513 24.5693C24.933 24.2935 25.0912 23.9194 25.0912 23.5294C25.089 21.2696 24.4221 19.0582 23.1701 17.1596C21.9182 15.2611 20.1343 13.7557 18.0316 12.8235V12.8235ZM13.0749 11.7647C12.1837 11.7647 11.3125 11.506 10.5714 11.0212C9.83042 10.5364 9.25286 9.84739 8.9118 9.04125C8.57074 8.23511 8.48151 7.34805 8.65538 6.49225C8.82925 5.63645 9.25841 4.85035 9.8886 4.23335C10.5188 3.61636 11.3217 3.19618 12.1958 3.02595C13.0699 2.85572 13.9759 2.94309 14.7993 3.277C15.6227 3.61092 16.3265 4.17639 16.8216 4.9019C17.3167 5.62741 17.581 6.48038 17.581 7.35294C17.581 8.52301 17.1063 9.64516 16.2612 10.4725C15.4162 11.2999 14.27 11.7647 13.0749 11.7647ZM27.7048 12.2353C28.666 11.1755 29.2939 9.86626 29.5129 8.4652C29.7319 7.06415 29.5326 5.63099 28.9391 4.33824C28.3456 3.04548 27.383 1.94823 26.1674 1.17856C24.9518 0.408897 23.5348 -0.000378824 22.0871 2.63104e-07C21.6888 2.63104e-07 21.3067 0.154937 21.025 0.430726C20.7434 0.706514 20.5851 1.08056 20.5851 1.47059C20.5851 1.86061 20.7434 2.23466 21.025 2.51045C21.3067 2.78624 21.6888 2.94118 22.0871 2.94118C23.2822 2.94118 24.4284 3.40599 25.2735 4.23335C26.1185 5.06072 26.5933 6.18287 26.5933 7.35294C26.5911 8.12535 26.3819 8.88368 25.9865 9.55209C25.5911 10.2205 25.0234 10.7756 24.3402 11.1618C24.1175 11.2875 23.9315 11.4672 23.8 11.6834C23.6685 11.8997 23.5959 12.1454 23.5892 12.3971C23.5829 12.6467 23.6417 12.8938 23.7599 13.1151C23.8782 13.3364 24.052 13.5245 24.2651 13.6618L24.8509 14.0441L25.0462 14.1471C26.8567 14.9878 28.3842 16.3176 29.4486 17.9799C30.5131 19.6421 31.0702 21.5676 31.0543 23.5294C31.0543 23.9194 31.2126 24.2935 31.4943 24.5693C31.7759 24.8451 32.158 25 32.5564 25C32.9547 25 33.3368 24.8451 33.6185 24.5693C33.9002 24.2935 34.0584 23.9194 34.0584 23.5294C34.0707 21.2727 33.4934 19.0504 32.3813 17.0736C31.2693 15.0969 29.6594 13.4313 27.7048 12.2353V12.2353Z" fill="#4B0B9D"/>
<g clip-path="url(#clip0)">
<path d="M13.0427 36.4206C12.9087 36.4207 12.776 36.3944 12.6521 36.3431C12.5279 36.2917 12.415 36.2163 12.32 36.1213C12.2249 36.0262 12.1495 35.9134 12.0981 35.7892C12.0468 35.6651 12.0205 35.5321 12.0207 35.3979C12.0207 35.3978 12.0207 35.3976 12.0207 35.3975L12.0159 30.9843L7.60189 30.9795L7.6016 30.9795C7.33087 30.9789 7.07129 30.8708 6.87977 30.6792C6.68824 30.4877 6.58013 30.2281 6.57952 29.9574C6.57891 29.6866 6.68592 29.4268 6.87731 29.2354C7.0687 29.0441 7.32847 28.937 7.59926 28.9377L7.59955 28.9377L12.0113 28.9527L11.9963 24.541L11.9962 24.5407C11.9956 24.2699 12.1027 24.0101 12.294 23.8187C12.4854 23.6273 12.7452 23.5203 13.016 23.5209C13.2867 23.5215 13.5463 23.6296 13.7378 23.8212C13.9293 24.0127 14.0375 24.2723 14.0381 24.543L14.0381 24.5433L14.0429 28.9573L18.4561 28.9621L18.4566 29.2121M13.0427 36.4206C13.0424 36.4206 13.0421 36.4206 13.0417 36.4206L13.0433 36.1706L13.0438 36.4206C13.0434 36.4206 13.0431 36.4206 13.0427 36.4206ZM13.0427 36.4206C13.1767 36.4213 13.3096 36.3956 13.4335 36.3448C13.5578 36.2938 13.6707 36.2187 13.7656 36.1237C13.8606 36.0288 13.9357 35.9159 13.9866 35.7916C14.0375 35.6675 14.0633 35.5345 14.0625 35.4003L14.0625 35.4006L13.8125 35.4014M13.8125 35.4014L14.0625 35.3998L14.0474 30.9888M13.8125 35.4014L13.7974 30.988L14.0474 30.9888M13.8125 35.4014L14.0466 30.7388M14.0474 30.9888L18.4584 31.0039L18.46 30.7539L18.4592 31.0039L18.4589 31.0039C18.5931 31.0047 18.7261 30.9789 18.8502 30.928C18.9745 30.8771 19.0874 30.802 19.1823 30.707C19.2773 30.6121 19.3524 30.4992 19.4034 30.3749C19.4542 30.251 19.4799 30.1182 19.4792 29.9842M14.0474 30.9888L14.0466 30.7388M19.4792 29.9842C19.4793 29.8502 19.453 29.7174 19.4017 29.5935C19.3503 29.4693 19.2749 29.3564 19.1799 29.2614C19.0848 29.1663 18.972 29.0909 18.8478 29.0395C18.7237 28.9882 18.5908 28.9619 18.4567 28.9621H18.4568L18.4566 29.2121M19.4792 29.9842C19.4792 29.9845 19.4792 29.9848 19.4792 29.9852L19.2292 29.9847M19.4792 29.9842C19.4792 29.9838 19.4792 29.9835 19.4792 29.9831L19.2292 29.9847M18.4566 29.2121C18.5579 29.2119 18.6584 29.2318 18.7522 29.2706C18.846 29.3094 18.9313 29.3663 19.0031 29.4382C19.0749 29.51 19.1319 29.5953 19.1707 29.6891C19.2095 29.7829 19.2294 29.8834 19.2292 29.9847M18.4566 29.2121L13.7931 29.207L19.2292 29.9847M19.2292 29.9847C19.2298 30.0861 19.2104 30.1864 19.172 30.2801C19.1337 30.3737 19.0771 30.4587 19.0056 30.5302C18.9341 30.6017 18.849 30.6583 18.7554 30.6967C18.6618 30.7351 18.5614 30.7545 18.46 30.7539L14.0466 30.7388M19.2292 29.9847L14.0466 30.7388" fill="#4B0B9D" stroke="#4B0B9D" stroke-width="0.5"/>
</g>
<defs>
<clipPath id="clip0">
<rect width="18.385" height="18.4678" fill="white" transform="translate(0 29.9414) rotate(-45)"/>
</clipPath>
</defs>
</svg>
