<svg width="882" height="834" viewBox="0 0 882 834" fill="none" xmlns="http://www.w3.org/2000/svg">
<rect width="882" height="834" fill="#A1B0FF"/>
<path d="M447.886 313.611L543.062 347.524V485.867C543.062 488.555 541.992 491.132 540.088 493.032C538.183 494.932 535.6 496 532.906 496H492.281C489.588 496 487.004 494.932 485.1 493.032C483.195 491.132 482.125 488.555 482.125 485.867V414.938H380.562V485.867C380.562 488.555 379.492 491.132 377.588 493.032C375.683 494.932 373.1 496 370.406 496H329.781C327.088 496 324.504 494.932 322.6 493.032C320.695 491.132 319.625 488.555 319.625 485.867V350.399C296.037 342.008 279 319.728 279 293.345C279 287.971 281.14 282.816 284.949 279.016C288.759 275.215 293.925 273.08 299.312 273.08C304.7 273.08 309.866 275.215 313.676 279.016C317.485 282.816 319.625 287.971 319.625 293.345C319.635 298.717 321.778 303.866 325.586 307.664C329.393 311.462 334.553 313.601 339.938 313.611H447.886ZM604 242.682V262.947C604 273.697 599.72 284.006 592.101 291.607C584.483 299.208 574.149 303.478 563.375 303.478H543.062V326.011L461.812 297.063V202.151C461.812 193.126 472.743 188.605 479.148 194.988L496.464 212.284H530.507C537.432 212.284 545.583 217.299 548.674 223.487L553.219 232.549H593.844C596.537 232.549 599.121 233.617 601.025 235.517C602.93 237.417 604 239.994 604 242.682ZM532.906 242.682C532.906 240.678 532.311 238.719 531.195 237.052C530.079 235.386 528.492 234.087 526.637 233.32C524.781 232.553 522.739 232.353 520.769 232.744C518.798 233.135 516.989 234.1 515.568 235.517C514.148 236.934 513.181 238.739 512.789 240.705C512.397 242.671 512.598 244.708 513.367 246.559C514.136 248.411 515.437 249.993 517.107 251.107C518.778 252.22 520.741 252.814 522.75 252.814C525.444 252.814 528.027 251.747 529.932 249.847C531.836 247.946 532.906 245.369 532.906 242.682Z" fill="white"/>
</svg>
