<svg width="94" height="93" viewBox="0 0 94 93" fill="none" xmlns="http://www.w3.org/2000/svg">
<g filter="url(#filter0_d)">
<rect x="15" y="11" width="63.1663" height="61.1626" rx="15.9938" fill="#B6E13D"/>
</g>
<path d="M54.6624 44.0635C52.5095 41.4179 49.7882 39.9609 46.9996 39.9609C44.211 39.9609 41.4897 41.4179 39.3368 44.0635C37.4017 46.4415 36.2464 49.4385 36.2464 52.0804C36.2464 53.3637 36.6319 54.3412 37.3921 54.9859C38.1425 55.6222 39.1331 55.8375 40.2384 55.8374C41.4144 55.8374 42.7203 55.5937 44.0033 55.3541C45.1244 55.1448 46.1834 54.9471 46.9997 54.9471C47.7041 54.9471 48.6974 55.1348 49.7488 55.3334C52.2061 55.7977 54.9913 56.3239 56.6002 54.9624C57.365 54.3152 57.7528 53.3455 57.7528 52.0804C57.7529 49.4385 56.5976 46.4415 54.6624 44.0635Z" fill="#5C6C2F"/>
<path d="M54.8825 29.6973C54.0947 28.5153 52.9667 27.8374 51.7877 27.8374C50.6086 27.8374 49.4807 28.5153 48.693 29.6973C47.9694 30.7832 47.5708 32.2091 47.5708 33.7126C47.5708 35.216 47.9693 36.642 48.693 37.7278C49.4807 38.9098 50.6087 39.5877 51.7877 39.5877C52.9668 39.5877 54.0947 38.9098 54.8825 37.7278C55.6061 36.642 56.0046 35.216 56.0046 33.7126C56.0046 32.2091 55.6061 30.7831 54.8825 29.6973Z" fill="#5C6C2F"/>
<path d="M62.8137 38.9192C62.4962 37.8198 61.8155 37.021 60.8972 36.6699C60.1582 36.3875 59.324 36.4354 58.5483 36.8049C57.4793 37.314 56.6055 38.3653 56.1511 39.6892C55.7798 40.771 55.7335 41.9145 56.0208 42.9091C56.3384 44.0085 57.019 44.8074 57.9374 45.1584C58.2552 45.2799 58.5905 45.3403 58.9312 45.3403C59.3829 45.3403 59.8441 45.2341 60.2863 45.0235C61.3554 44.5144 62.2292 43.4631 62.6835 42.1393V42.1392C63.0548 41.0574 63.1011 39.9139 62.8137 38.9192Z" fill="#5C6C2F"/>
<path d="M45.3063 29.6973C44.5185 28.5153 43.3906 27.8374 42.2115 27.8374C41.0324 27.8374 39.9045 28.5153 39.1168 29.6973C38.3932 30.7832 37.9946 32.2091 37.9946 33.7126C37.9946 35.216 38.3931 36.642 39.1168 37.7278C39.9045 38.9098 41.0324 39.5878 42.2115 39.5878C43.3906 39.5878 44.5185 38.9098 45.3063 37.7278C46.0299 36.642 46.4284 35.2161 46.4284 33.7126C46.4284 32.2091 46.0299 30.7831 45.3063 29.6973Z" fill="#5C6C2F"/>
<path d="M37.849 39.6891C37.3946 38.3652 36.5208 37.3139 35.4518 36.8048C34.676 36.4353 33.8418 36.3875 33.1028 36.6699C32.1845 37.021 31.5038 37.8199 31.1863 38.9192C30.899 39.9139 30.9453 41.0574 31.3166 42.1392V42.1392C31.7711 43.4631 32.6448 44.5144 33.7138 45.0235C34.156 45.2341 34.6172 45.3403 35.0689 45.3403C35.4096 45.3403 35.745 45.2798 36.0627 45.1584C36.9812 44.8073 37.6618 44.0084 37.9794 42.9091C38.2665 41.9145 38.2202 40.771 37.849 39.6891Z" fill="#5C6C2F"/>
<defs>
<filter id="filter0_d" x="0" y="0.921182" width="93.1663" height="91.1626" filterUnits="userSpaceOnUse" color-interpolation-filters="sRGB">
<feFlood flood-opacity="0" result="BackgroundImageFix"/>
<feColorMatrix in="SourceAlpha" type="matrix" values="0 0 0 0 0 0 0 0 0 0 0 0 0 0 0 0 0 0 127 0"/>
<feOffset dy="4.92118"/>
<feGaussianBlur stdDeviation="7.5"/>
<feColorMatrix type="matrix" values="0 0 0 0 0.12549 0 0 0 0 0.12549 0 0 0 0 0.12549 0 0 0 0.3 0"/>
<feBlend mode="normal" in2="BackgroundImageFix" result="effect1_dropShadow"/>
<feBlend mode="normal" in="SourceGraphic" in2="effect1_dropShadow" result="shape"/>
</filter>
</defs>
</svg>
