<svg width="882" height="834" viewBox="0 0 882 834" fill="none" xmlns="http://www.w3.org/2000/svg">
<rect width="882" height="834" fill="#A1B0FF"/>
<path d="M441 174C469.443 174 492.5 193.7 492.5 218C492.5 242.3 469.443 262 441 262C412.558 262 389.5 242.3 389.5 218C389.5 193.7 412.558 174 441 174ZM536.986 417.498L498.361 285.498C497.316 281.928 494.905 278.759 491.51 276.495C488.115 274.23 483.932 273 479.625 273H470.484C452.209 280.18 430.579 280.49 411.516 273H402.375C398.068 273 393.885 274.23 390.49 276.495C387.095 278.759 384.684 281.928 383.64 285.498L345.015 417.498C341.971 427.897 351.183 438 363.75 438H408.813V509.5C408.813 518.613 417.459 526 428.125 526H453.875C464.541 526 473.188 518.613 473.188 509.5V438H518.25C530.796 438 540.034 427.914 536.986 417.498Z" fill="white"/>
</svg>
