<svg width="95" height="46" viewBox="0 0 95 46" fill="none" xmlns="http://www.w3.org/2000/svg">
<path d="M67.0888 20.1526L67.0888 20.1526C68.2346 18.6328 69.6313 17.8607 71 17.8607C72.3686 17.8607 73.7653 18.6328 74.9112 20.1526L75.2761 19.8775L74.9112 20.1526C75.9431 21.5212 76.5489 23.2372 76.5488 24.7189C76.5488 25.3937 76.3595 25.829 76.0632 26.0996L76.3698 26.4352L76.0632 26.0996C75.7478 26.3877 75.2838 26.508 74.6611 26.4972C74.0382 26.4863 73.348 26.3472 72.6464 26.2041L72.6464 26.2041L72.6034 26.1953C72.0459 26.0816 71.4475 25.9595 71 25.9595C70.4904 25.9595 69.8547 26.0876 69.2541 26.2087L69.2157 26.2164C68.4814 26.3644 67.7987 26.5 67.1967 26.5H67.1967C66.6377 26.5001 66.2257 26.3819 65.9332 26.1142L65.9332 26.1142C65.6412 25.8469 65.4512 25.4082 65.4512 24.7189C65.4512 23.2372 66.0569 21.5212 67.0888 20.1526Z" fill="url(#paint0_linear)" stroke="#5C6C2F"/>
<path d="M75.0088 11.3919L75.0087 11.3919C74.6284 10.7759 74.1354 10.5 73.6934 10.5C73.2513 10.5 72.7583 10.776 72.378 11.3919L75.0088 11.3919ZM75.0088 11.3919C75.359 11.9591 75.5654 12.7303 75.5654 13.5671C75.5654 14.4038 75.3589 15.175 75.0088 15.7422L75.0088 11.3919ZM71.8213 13.5671C71.8213 12.7303 72.0278 11.9591 72.378 11.3919L75.0087 15.7422C74.6284 16.3582 74.1355 16.6341 73.6934 16.6341C73.2513 16.6341 72.7583 16.3581 72.378 15.7422C72.0277 15.175 71.8213 14.4038 71.8213 13.5671Z" fill="url(#paint1_linear)" stroke="#5C6C2F"/>
<path d="M79.4126 16.8575L79.4126 16.8575C79.2637 16.301 78.9654 15.9645 78.6268 15.8248L79.4126 16.8575ZM79.4126 16.8575C79.547 17.3598 79.5288 17.9563 79.3459 18.5317L79.3432 18.5401C79.1168 19.2459 78.6988 19.7566 78.2453 19.9897L78.2453 19.9897C78.0618 20.0841 77.8803 20.1267 77.7117 20.1267C77.5844 20.1267 77.4607 20.1026 77.3433 20.0541L77.3433 20.0541C77.0047 19.9144 76.7064 19.5779 76.5575 19.0214L76.5575 19.0214C76.4231 18.5192 76.4413 17.9227 76.6243 17.3472L76.6243 17.3472C76.8501 16.6371 77.2696 16.1232 77.7248 15.8892L77.7249 15.8892M79.4126 16.8575L77.7249 15.8892M77.7249 15.8892C78.0442 15.725 78.3601 15.7148 78.6268 15.8248L77.7249 15.8892ZM76.0747 19.1506L76.0859 19.1476L76.0747 19.1506Z" fill="url(#paint2_linear)" stroke="#5C6C2F"/>
<path d="M69.622 11.3919L69.622 11.3919C69.2417 10.7759 68.7487 10.5 68.3066 10.5C67.8645 10.5 67.3715 10.776 66.9912 11.3919M69.622 11.3919L70.1787 13.5671C70.1787 14.4039 69.9722 15.175 69.622 15.7422M69.622 11.3919C69.9722 11.9591 70.1787 12.7303 70.1787 13.5671L69.622 11.3919ZM66.9912 11.3919L66.5658 11.1292M66.9912 11.3919L66.5658 11.1292M66.9912 11.3919C66.641 11.9591 66.4346 12.7303 66.4346 13.5671C66.4346 14.4038 66.641 15.175 66.9912 15.7422L66.9912 15.7422C67.3716 16.3582 67.8645 16.6342 68.3066 16.6342C68.7487 16.6342 69.2417 16.3582 69.622 15.7422M66.5658 11.1292C67.0089 10.4116 67.6434 10 68.3066 10C68.9699 10 69.6044 10.4116 70.0475 11.1292C70.4545 11.7885 70.6787 12.6543 70.6787 13.5671L70.0475 16.0049C69.6044 16.7225 68.9699 17.1342 68.3066 17.1342C67.6434 17.1342 67.0089 16.7225 66.5658 16.0049C66.1587 15.3456 65.9346 14.4799 65.9346 13.5671C65.9346 12.6543 66.1588 11.7885 66.5658 11.1292ZM69.622 15.7422L70.0381 15.9991L69.622 15.7422Z" fill="url(#paint3_linear)" stroke="#5C6C2F"/>
<path d="M64.2756 15.8892L64.2756 15.8892C63.9562 15.725 63.6403 15.7148 63.3736 15.8248L64.2756 15.8892ZM64.2756 15.8892C64.7308 16.1232 65.1503 16.637 65.3761 17.3471L64.2756 15.8892ZM62.6572 18.54L62.6546 18.5317C62.4716 17.9563 62.4534 17.3597 62.5878 16.8575C62.7367 16.3011 63.0349 15.9646 63.3736 15.8248L62.6572 18.54ZM62.6572 18.54C62.8837 19.2459 63.3017 19.7566 63.7551 19.9897L62.6572 18.54ZM65.3762 17.3472C65.5591 17.9227 65.5773 18.5192 65.443 19.0214L65.3762 17.3472ZM64.2888 20.1267C64.1202 20.1267 63.9387 20.084 63.7551 19.9897L64.6571 20.0541C64.5397 20.1025 64.4159 20.1267 64.2888 20.1267ZM65.443 19.0214C65.294 19.5779 64.9959 19.9143 64.6572 20.0541L65.443 19.0214Z" fill="url(#paint4_linear)" stroke="#5C6C2F"/>
<g filter="url(#filter0_d)">
<rect x="5.5" y="1.5" width="84" height="35" rx="13.5" stroke="#5C6C2F" stroke-width="3"/>
</g>
<path d="M15.816 28.216C14.964 28.216 14.178 28.06 13.458 27.748C12.75 27.424 12.168 26.968 11.712 26.38L13.332 24.436C14.016 25.36 14.796 25.822 15.672 25.822C16.86 25.822 17.454 25.126 17.454 23.734V17.74H13.026V15.4H20.352V23.572C20.352 25.12 19.968 26.284 19.2 27.064C18.432 27.832 17.304 28.216 15.816 28.216ZM27.5757 28.144C26.5557 28.144 25.6377 27.934 24.8217 27.514C24.0177 27.082 23.3877 26.488 22.9317 25.732C22.4757 24.976 22.2477 24.118 22.2477 23.158C22.2477 22.198 22.4757 21.34 22.9317 20.584C23.3877 19.828 24.0177 19.24 24.8217 18.82C25.6377 18.388 26.5557 18.172 27.5757 18.172C28.5957 18.172 29.5077 18.388 30.3117 18.82C31.1157 19.24 31.7457 19.828 32.2017 20.584C32.6577 21.34 32.8857 22.198 32.8857 23.158C32.8857 24.118 32.6577 24.976 32.2017 25.732C31.7457 26.488 31.1157 27.082 30.3117 27.514C29.5077 27.934 28.5957 28.144 27.5757 28.144ZM27.5757 25.84C28.2957 25.84 28.8837 25.6 29.3397 25.12C29.8077 24.628 30.0417 23.974 30.0417 23.158C30.0417 22.342 29.8077 21.694 29.3397 21.214C28.8837 20.722 28.2957 20.476 27.5757 20.476C26.8557 20.476 26.2617 20.722 25.7937 21.214C25.3257 21.694 25.0917 22.342 25.0917 23.158C25.0917 23.974 25.3257 24.628 25.7937 25.12C26.2617 25.6 26.8557 25.84 27.5757 25.84ZM34.696 18.316H37.504V28H34.696V18.316ZM36.1 16.966C35.584 16.966 35.164 16.816 34.84 16.516C34.516 16.216 34.354 15.844 34.354 15.4C34.354 14.956 34.516 14.584 34.84 14.284C35.164 13.984 35.584 13.834 36.1 13.834C36.616 13.834 37.036 13.978 37.36 14.266C37.684 14.554 37.846 14.914 37.846 15.346C37.846 15.814 37.684 16.204 37.36 16.516C37.036 16.816 36.616 16.966 36.1 16.966ZM45.9295 18.172C47.1295 18.172 48.0955 18.532 48.8275 19.252C49.5715 19.972 49.9435 21.04 49.9435 22.456V28H47.1355V22.888C47.1355 22.12 46.9675 21.55 46.6315 21.178C46.2955 20.794 45.8095 20.602 45.1735 20.602C44.4655 20.602 43.9015 20.824 43.4815 21.268C43.0615 21.7 42.8515 22.348 42.8515 23.212V28H40.0435V18.316H42.7255V19.45C43.0975 19.042 43.5595 18.73 44.1115 18.514C44.6635 18.286 45.2695 18.172 45.9295 18.172Z" fill="#5C6C2F"/>
<defs>
<filter id="filter0_d" x="0" y="0" width="95" height="46" filterUnits="userSpaceOnUse" color-interpolation-filters="sRGB">
<feFlood flood-opacity="0" result="BackgroundImageFix"/>
<feColorMatrix in="SourceAlpha" type="matrix" values="0 0 0 0 0 0 0 0 0 0 0 0 0 0 0 0 0 0 127 0"/>
<feOffset dy="4"/>
<feGaussianBlur stdDeviation="2"/>
<feColorMatrix type="matrix" values="0 0 0 0 0 0 0 0 0 0 0 0 0 0 0 0 0 0 0.25 0"/>
<feBlend mode="normal" in2="BackgroundImageFix" result="effect1_dropShadow"/>
<feBlend mode="normal" in="SourceGraphic" in2="effect1_dropShadow" result="shape"/>
</filter>
<linearGradient id="paint0_linear" x1="71" y1="17.3607" x2="71" y2="27" gradientUnits="userSpaceOnUse">
<stop stop-color="#B6E13D"/>
</linearGradient>
<linearGradient id="paint1_linear" x1="73.6934" y1="10" x2="73.6934" y2="17.1341" gradientUnits="userSpaceOnUse">
<stop stop-color="#B6E13D"/>
</linearGradient>
<linearGradient id="paint2_linear" x1="77.9851" y1="15.2522" x2="77.9851" y2="20.6267" gradientUnits="userSpaceOnUse">
<stop stop-color="#B6E13D"/>
</linearGradient>
<linearGradient id="paint3_linear" x1="68.3066" y1="10" x2="68.3066" y2="17.1342" gradientUnits="userSpaceOnUse">
<stop stop-color="#B6E13D"/>
</linearGradient>
<linearGradient id="paint4_linear" x1="64.0153" y1="15.2522" x2="64.0153" y2="20.6267" gradientUnits="userSpaceOnUse">
<stop stop-color="#B6E13D"/>
</linearGradient>
</defs>
</svg>
