<svg width="30" height="31" viewBox="0 0 30 31" fill="none" xmlns="http://www.w3.org/2000/svg">
<path fill-rule="evenodd" clip-rule="evenodd" d="M15.2837 18.3156C17.2844 18.3156 18.8873 16.6543 18.8873 14.5963L18.8994 7.15776C18.8994 5.09976 17.2844 3.43848 15.2837 3.43848C13.2831 3.43848 11.6681 5.09976 11.6681 7.15776V14.5963C11.6681 16.6543 13.2831 18.3156 15.2837 18.3156ZM21.6714 14.5963C21.6714 18.3156 18.6101 20.9191 15.2837 20.9191C11.9573 20.9191 8.89604 18.3156 8.89604 14.5963H6.84717C6.84717 18.8239 10.1254 22.3201 14.0785 22.9275V26.994H16.4889V22.9275C20.442 22.3325 23.7202 18.8363 23.7202 14.5963H21.6714Z" fill="#808080"/>
</svg>
