<svg width="201" height="43" viewBox="0 0 201 43" fill="none" xmlns="http://www.w3.org/2000/svg">
<path d="M14.1231 24.6042L14.1232 24.6042C15.6792 21.4991 18.0508 19.4904 20.7447 18.8197C23.4386 18.1489 26.4751 18.8112 29.3056 20.8241L29.8852 20.0091L29.3056 20.8241C31.8631 22.6428 33.7224 25.2338 34.3331 27.6868C34.6031 28.7711 34.4357 29.5464 33.9951 30.1259L34.7125 30.6712L33.9951 30.126C33.5054 30.7702 32.6407 31.2096 31.4107 31.4959C30.1905 31.78 28.7874 31.8759 27.374 31.97L27.374 31.97L27.2954 31.9752C26.1634 32.0506 24.9648 32.1303 24.1117 32.3427C23.1384 32.5851 21.9727 33.105 20.8579 33.6022L20.7941 33.6306C19.4409 34.2341 18.1685 34.7981 16.9922 35.091L16.9922 35.091C15.889 35.3657 15.0224 35.3607 14.3421 35.0455L14.3421 35.0455C13.6918 34.7443 13.1769 34.1336 12.9004 33.0231C12.2897 30.5701 12.7171 27.4098 14.1231 24.6042Z" fill="#4B0B9D" stroke="#4B0B9D" stroke-width="2"/>
<path d="M25.7781 5.88079L25.778 5.88076C24.8183 5.04782 23.7441 4.78748 22.8339 5.01413C21.9235 5.24077 21.0969 5.97438 20.6398 7.16006L25.7781 5.88079ZM25.7781 5.88079C26.668 6.65305 27.3708 7.82722 27.7143 9.2067C28.0577 10.5861 27.9875 11.9528 27.5636 13.0523C27.1064 14.238 26.2798 14.9716 25.3695 15.1982C24.4592 15.4248 23.385 15.1645 22.4253 14.3316C21.5353 13.5592 20.8325 12.3851 20.4891 11.0056C20.1456 9.62621 20.2159 8.25961 20.6397 7.16011L25.7781 5.88079Z" fill="#4B0B9D" stroke="#4B0B9D" stroke-width="2"/>
<path d="M36.5645 13.0088L36.5645 13.0087C36.0769 12.194 35.3932 11.7642 34.6578 11.6873L36.5645 13.0088ZM36.5645 13.0088C37.0096 13.7523 37.2195 14.7242 37.1136 15.7503L37.112 15.7655C36.9788 17.02 36.4099 18.0723 35.6241 18.6932L35.624 18.6932C35.3034 18.9466 34.9572 19.1148 34.6111 19.201C34.35 19.266 34.087 19.285 33.8298 19.2581L33.8298 19.2581C33.0943 19.1812 32.4106 18.7514 31.923 17.9367L31.923 17.9367C31.478 17.1932 31.2681 16.2212 31.3741 15.1951L31.3741 15.1951C31.5042 13.9339 32.0746 12.8755 32.8636 12.2522L32.8636 12.2521M36.5645 13.0088L32.8636 12.2521M32.8636 12.2521C33.4257 11.808 34.0643 11.6253 34.6578 11.6873L32.8636 12.2521Z" fill="#4B0B9D" stroke="#4B0B9D" stroke-width="2"/>
<path d="M15.3708 8.47207L15.3708 8.47206C14.4111 7.63912 13.337 7.37878 12.4266 7.60543C11.5163 7.83209 10.6896 8.56574 10.2325 9.75138C9.80863 10.8509 9.73839 12.2175 10.0818 13.5969C10.4253 14.9764 11.1281 16.1505 12.018 16.9229L12.0181 16.9229C12.9779 17.7559 14.0519 18.0162 14.9623 17.7896C15.8726 17.5629 16.6992 16.8293 17.1564 15.6436C17.5802 14.5441 17.6505 13.1775 17.3071 11.7981L15.3708 8.47207ZM15.3708 8.47207C16.2607 9.24435 16.9635 10.4185 17.307 11.798L15.3708 8.47207Z" fill="#4B0B9D" stroke="#4B0B9D" stroke-width="2"/>
<path d="M6.96261 18.7011L6.96259 18.7011C6.25783 18.5724 5.60811 18.7105 5.11297 19.0435L6.96261 18.7011ZM6.96261 18.7011C7.95172 18.8818 8.95167 19.5491 9.6581 20.602L6.96261 18.7011ZM4.85749 23.7963L4.84899 23.7836C4.27432 22.927 4.00391 21.9701 4.04836 21.1047L4.85749 23.7963ZM4.85749 23.7963C5.56351 24.842 6.55938 25.5047 7.54452 25.6846L4.85749 23.7963ZM9.65816 20.6021C10.2328 21.4588 10.5032 22.4157 10.4589 23.281C10.4102 24.2291 10.0079 24.9293 9.3943 25.3422L9.65816 20.6021ZM4.04836 21.1047C4.09707 20.1566 4.49935 19.4564 5.11289 19.0436L4.04836 21.1047ZM8.67738 25.6581C8.33126 25.7443 7.94666 25.758 7.54455 25.6846L9.39422 25.3422C9.1796 25.4865 8.93834 25.5932 8.67738 25.6581Z" fill="#4B0B9D" stroke="#4B0B9D" stroke-width="2"/>
<path d="M57.7012 24.05C58.6845 24.2333 59.4928 24.725 60.1262 25.525C60.7595 26.325 61.0762 27.2417 61.0762 28.275C61.0762 29.2083 60.8428 30.0333 60.3762 30.75C59.9262 31.45 59.2678 32 58.4012 32.4C57.5345 32.8 56.5095 33 55.3262 33H47.8012V15.55H55.0012C56.1845 15.55 57.2012 15.7417 58.0512 16.125C58.9178 16.5083 59.5678 17.0417 60.0012 17.725C60.4512 18.4083 60.6762 19.1833 60.6762 20.05C60.6762 21.0667 60.4012 21.9167 59.8512 22.6C59.3178 23.2833 58.6012 23.7667 57.7012 24.05ZM51.3012 22.75H54.5012C55.3345 22.75 55.9762 22.5667 56.4262 22.2C56.8762 21.8167 57.1012 21.275 57.1012 20.575C57.1012 19.875 56.8762 19.3333 56.4262 18.95C55.9762 18.5667 55.3345 18.375 54.5012 18.375H51.3012V22.75ZM54.8262 30.15C55.6762 30.15 56.3345 29.95 56.8012 29.55C57.2845 29.15 57.5262 28.5833 57.5262 27.85C57.5262 27.1 57.2762 26.5167 56.7762 26.1C56.2762 25.6667 55.6012 25.45 54.7512 25.45H51.3012V30.15H54.8262ZM73.0656 29.675H66.1156L64.9656 33H61.2906L67.5656 15.525H71.6406L77.9156 33H74.2156L73.0656 29.675ZM72.1156 26.875L69.5906 19.575L67.0656 26.875H72.1156ZM87.7611 33L83.9111 26.2H82.2611V33H78.7611V15.55H85.3111C86.6611 15.55 87.8111 15.7917 88.7611 16.275C89.7111 16.7417 90.4195 17.3833 90.8861 18.2C91.3695 19 91.6111 19.9 91.6111 20.9C91.6111 22.05 91.2778 23.0917 90.6111 24.025C89.9445 24.9417 88.9528 25.575 87.6361 25.925L91.8111 33H87.7611ZM82.2611 23.575H85.1861C86.1361 23.575 86.8445 23.35 87.3111 22.9C87.7778 22.4333 88.0111 21.7917 88.0111 20.975C88.0111 20.175 87.7778 19.5583 87.3111 19.125C86.8445 18.675 86.1361 18.45 85.1861 18.45H82.2611V23.575ZM103.127 33L96.7768 25.225V33H93.2768V15.55H96.7768V23.375L103.127 15.55H107.352L100.152 24.2L107.552 33H103.127ZM113.511 29.05C115.111 27.7167 116.386 26.6083 117.336 25.725C118.286 24.825 119.078 23.8917 119.711 22.925C120.344 21.9583 120.661 21.0083 120.661 20.075C120.661 19.225 120.461 18.5583 120.061 18.075C119.661 17.5917 119.044 17.35 118.211 17.35C117.378 17.35 116.736 17.6333 116.286 18.2C115.836 18.75 115.603 19.5083 115.586 20.475H112.186C112.253 18.475 112.844 16.9583 113.961 15.925C115.094 14.8917 116.528 14.375 118.261 14.375C120.161 14.375 121.619 14.8833 122.636 15.9C123.653 16.9 124.161 18.225 124.161 19.875C124.161 21.175 123.811 22.4167 123.111 23.6C122.411 24.7833 121.611 25.8167 120.711 26.7C119.811 27.5667 118.636 28.6167 117.186 29.85H124.561V32.75H112.211V30.15L113.511 29.05ZM149.648 15.55V33H146.148V21.65L141.473 33H138.823L134.123 21.65V33H130.623V15.55H134.598L140.148 28.525L145.698 15.55H149.648ZM155.109 18.375V22.75H160.984V25.525H155.109V30.15H161.734V33H151.609V15.525H161.734V18.375H155.109ZM166.914 18.375V22.75H172.789V25.525H166.914V30.15H173.539V33H163.414V15.525H173.539V18.375H166.914ZM187.095 15.55V18.375H182.445V33H178.945V18.375H174.295V15.55H187.095Z" fill="#333333"/>
</svg>
