<svg width="368" height="70" viewBox="0 0 368 70" fill="none" xmlns="http://www.w3.org/2000/svg">
<path d="M25.3263 43.3748L25.3263 43.3748C28.233 37.5746 32.7064 33.7435 37.8661 32.4588C43.0259 31.1741 48.7733 32.4605 54.0606 36.2205C58.8264 39.6097 62.3338 44.4625 63.4967 49.1335C64.0311 51.28 63.7234 52.9548 62.7419 54.2461L63.4931 54.8172L62.7418 54.2461C61.6831 55.639 59.8906 56.4956 57.5915 57.0308C55.302 57.5638 52.6883 57.7403 50.1399 57.91L50.1398 57.91L50.0543 57.9157C47.9561 58.0555 45.8416 58.1963 44.3658 58.5637C42.6709 58.9857 40.611 59.9043 38.5521 60.8225L38.4838 60.853C36.046 61.9401 33.6699 62.9963 31.4537 63.548L31.4536 63.5481C29.3731 64.0662 27.5855 64.0985 26.1087 63.4143L26.1087 63.4143C24.6514 62.7392 23.5913 61.3927 23.0466 59.2048C21.8836 54.5337 22.7061 48.6029 25.3263 43.3748Z" fill="#4B0B9D" stroke="#4B0B9D" stroke-width="2"/>
<path d="M47.7246 9.16726L47.7245 9.16722C45.8211 7.51532 43.6079 6.93421 41.655 7.42044C39.702 7.90668 38.0198 9.4578 37.1131 11.8093M47.7246 9.16726L37.1131 11.8093M47.7246 9.16726C49.4814 10.6918 50.8346 12.9755 51.4924 15.6172C52.1501 18.2588 52.0255 20.9104 51.1887 23.0809M47.7246 9.16726L51.1887 23.0809M37.1131 11.8093C36.2763 13.9797 36.1517 16.6312 36.8095 19.2729C37.4672 21.9146 38.8204 24.1982 40.5773 25.7229C42.4807 27.3747 44.694 27.9559 46.6468 27.4697C48.5998 26.9834 50.282 25.4323 51.1887 23.0809M37.1131 11.8093L51.1887 23.0809" fill="#4B0B9D" stroke="#4B0B9D" stroke-width="2"/>
<path d="M67.4521 22.2916L67.4521 22.2916C68.3593 23.8069 68.7672 25.7492 68.5592 27.7652L68.5562 27.794C68.2953 30.2544 67.1744 32.3762 65.5528 33.6574L65.5528 33.6575C64.8852 34.185 64.1533 34.5439 63.4078 34.7295C62.8454 34.8696 62.2733 34.9117 61.7097 34.8527L61.7096 34.8527C60.0887 34.6833 58.6362 33.7327 57.6379 32.0649L57.6379 32.0649C56.7309 30.5495 56.323 28.6074 56.5311 26.5912L56.5311 26.5912C56.7863 24.1185 57.9096 21.9851 59.5375 20.699L59.5375 20.6989C60.7083 19.7737 62.0745 19.3672 63.3805 19.5037C65.0013 19.6731 66.4539 20.6238 67.4521 22.2916Z" fill="#4B0B9D" stroke="#4B0B9D" stroke-width="2"/>
<path d="M28.8495 13.8669L28.8495 13.8669C26.9461 12.215 24.733 11.6339 22.78 12.1201C20.827 12.6064 19.1446 14.1576 18.2381 16.5089M28.8495 13.8669L32.6174 20.3169C33.2751 22.9587 33.1505 25.6101 32.3137 27.7806C31.4071 30.1321 29.7248 31.6832 27.7719 32.1695C25.8189 32.6557 23.6057 32.0745 21.7023 30.4226L21.7023 30.4226C19.9454 28.8979 18.5922 26.6143 17.9345 23.9726C17.2767 21.331 17.4013 18.6794 18.2381 16.5089M28.8495 13.8669C30.6062 15.3915 31.9595 17.6752 32.6174 20.3169L28.8495 13.8669ZM18.2381 16.5089L17.305 16.1492M18.2381 16.5089L17.305 16.1492M17.305 16.1492C18.3069 13.5507 20.2143 11.7284 22.5384 11.1498C24.8625 10.5711 27.4015 11.2862 29.505 13.1117L17.305 16.1492Z" fill="#4B0B9D" stroke="#4B0B9D" stroke-width="2"/>
<path d="M13.2129 32.2328L13.2129 32.2328C11.7449 31.9646 10.3475 32.2462 9.258 32.979L13.2129 32.2328ZM13.2129 32.2328C15.2537 32.6055 17.2461 33.963 18.6311 36.0273L13.2129 32.2328ZM8.5738 42.7282L8.55775 42.7042C7.42862 41.0212 6.87822 39.1144 6.96881 37.3506C7.06852 35.4097 7.90571 33.8889 9.25792 32.9791L8.5738 42.7282ZM8.5738 42.7282C9.95826 44.7792 11.9431 46.1277 13.976 46.499C14.8132 46.6519 15.6278 46.6258 16.3733 46.4401C16.9355 46.3001 17.4607 46.0689 17.9309 45.7527C19.2834 44.8429 20.1205 43.3221 20.2202 41.3811C20.3106 39.6176 19.7602 37.7108 18.6311 36.0274L8.5738 42.7282Z" fill="#4B0B9D" stroke="#4B0B9D" stroke-width="2"/>
<path d="M105.646 39.816C107.534 40.168 109.086 41.112 110.302 42.648C111.518 44.184 112.126 45.944 112.126 47.928C112.126 49.72 111.678 51.304 110.782 52.68C109.918 54.024 108.654 55.08 106.99 55.848C105.326 56.616 103.358 57 101.086 57H86.6382V23.496H100.462C102.734 23.496 104.686 23.864 106.318 24.6C107.982 25.336 109.23 26.36 110.062 27.672C110.926 28.984 111.358 30.472 111.358 32.136C111.358 34.088 110.83 35.72 109.774 37.032C108.75 38.344 107.374 39.272 105.646 39.816ZM93.3582 37.32H99.5022C101.102 37.32 102.334 36.968 103.198 36.264C104.062 35.528 104.494 34.488 104.494 33.144C104.494 31.8 104.062 30.76 103.198 30.024C102.334 29.288 101.102 28.92 99.5022 28.92H93.3582V37.32ZM100.126 51.528C101.758 51.528 103.022 51.144 103.918 50.376C104.846 49.608 105.31 48.52 105.31 47.112C105.31 45.672 104.83 44.552 103.87 43.752C102.91 42.92 101.614 42.504 99.9822 42.504H93.3582V51.528H100.126ZM135.146 50.616H121.802L119.594 57H112.538L124.586 23.448H132.41L144.458 57H137.354L135.146 50.616ZM133.322 45.24L128.474 31.224L123.626 45.24H133.322ZM163.361 57L155.969 43.944H152.801V57H146.081V23.496H158.657C161.249 23.496 163.457 23.96 165.281 24.888C167.105 25.784 168.465 27.016 169.361 28.584C170.289 30.12 170.753 31.848 170.753 33.768C170.753 35.976 170.113 37.976 168.833 39.768C167.553 41.528 165.649 42.744 163.121 43.416L171.137 57H163.361ZM152.801 38.904H158.417C160.241 38.904 161.601 38.472 162.497 37.608C163.393 36.712 163.841 35.48 163.841 33.912C163.841 32.376 163.393 31.192 162.497 30.36C161.601 29.496 160.241 29.064 158.417 29.064H152.801V38.904ZM192.863 57L180.671 42.072V57H173.951V23.496H180.671V38.52L192.863 23.496H200.975L187.151 40.104L201.359 57H192.863ZM212.801 49.416C215.873 46.856 218.321 44.728 220.145 43.032C221.969 41.304 223.489 39.512 224.705 37.656C225.921 35.8 226.529 33.976 226.529 32.184C226.529 30.552 226.145 29.272 225.377 28.344C224.609 27.416 223.425 26.952 221.825 26.952C220.225 26.952 218.993 27.496 218.129 28.584C217.265 29.64 216.817 31.096 216.785 32.952H210.257C210.385 29.112 211.521 26.2 213.665 24.216C215.841 22.232 218.593 21.24 221.921 21.24C225.569 21.24 228.369 22.216 230.321 24.168C232.273 26.088 233.249 28.632 233.249 31.8C233.249 34.296 232.577 36.68 231.233 38.952C229.889 41.224 228.353 43.208 226.625 44.904C224.897 46.568 222.641 48.584 219.857 50.952H234.017V56.52H210.305V51.528L212.801 49.416ZM282.185 23.496V57H275.465V35.208L266.489 57H261.401L252.377 35.208V57H245.657V23.496H253.289L263.945 48.408L274.601 23.496H282.185ZM292.669 28.92V37.32H303.949V42.648H292.669V51.528H305.389V57H285.949V23.448H305.389V28.92H292.669ZM315.336 28.92V37.32H326.616V42.648H315.336V51.528H328.056V57H308.616V23.448H328.056V28.92H315.336ZM354.083 23.496V28.92H345.155V57H338.435V28.92H329.507V23.496H354.083Z" fill="#333333"/>
</svg>
