<svg width="94" height="92" viewBox="0 0 94 92" fill="none" xmlns="http://www.w3.org/2000/svg">
<g filter="url(#filter0_d)">
<rect x="15" y="10.3252" width="63.1663" height="61.1626" rx="15.9938" fill="#FFAD0E"/>
</g>
<path d="M54.6625 43.3887C52.5095 40.7431 49.7882 39.2861 46.9997 39.2861C44.2111 39.2861 41.4897 40.7431 39.3369 43.3887C37.4017 45.7667 36.2465 48.7637 36.2465 51.4056C36.2465 52.6889 36.632 53.6664 37.3922 54.3111C38.1425 54.9474 39.1332 55.1627 40.2384 55.1626C41.4145 55.1626 42.7203 54.9189 44.0033 54.6793C45.1245 54.47 46.1835 54.2723 46.9997 54.2723C47.7042 54.2723 48.6975 54.4599 49.7489 54.6586C52.2062 55.1229 54.9913 55.6491 56.6003 54.2876C57.3651 53.6404 57.7529 52.6707 57.7529 51.4056C57.753 48.7637 56.5977 45.7667 54.6625 43.3887Z" fill="#986503"/>
<path d="M54.8825 29.0225C54.0947 27.8405 52.9667 27.1626 51.7877 27.1626C50.6086 27.1626 49.4807 27.8405 48.693 29.0225C47.9694 30.1083 47.5708 31.5343 47.5708 33.0378C47.5708 34.5412 47.9693 35.9672 48.693 37.053C49.4807 38.235 50.6087 38.9129 51.7877 38.9129C52.9668 38.9129 54.0947 38.235 54.8825 37.053C55.6061 35.9672 56.0046 34.5412 56.0046 33.0378C56.0046 31.5343 55.6061 30.1083 54.8825 29.0225Z" fill="#986503"/>
<path d="M62.8136 38.2444C62.4961 37.145 61.8154 36.3462 60.8971 35.9951C60.1581 35.7126 59.324 35.7605 58.5482 36.13C57.4792 36.6392 56.6054 37.6905 56.151 39.0143C55.7797 40.0962 55.7334 41.2397 56.0207 42.2343C56.3383 43.3337 57.019 44.1326 57.9373 44.4836C58.2551 44.6051 58.5904 44.6655 58.9312 44.6655C59.3828 44.6655 59.8441 44.5593 60.2863 44.3487C61.3553 43.8396 62.2291 42.7883 62.6835 41.4645V41.4644C63.0547 40.3826 63.101 39.2391 62.8136 38.2444Z" fill="#986503"/>
<path d="M45.3063 29.0225C44.5185 27.8405 43.3906 27.1626 42.2115 27.1626C41.0324 27.1626 39.9045 27.8405 39.1168 29.0225C38.3932 30.1083 37.9946 31.5343 37.9946 33.0378C37.9946 34.5412 38.3931 35.9672 39.1168 37.053C39.9045 38.235 41.0324 38.913 42.2115 38.913C43.3906 38.913 44.5185 38.235 45.3063 37.053C46.0299 35.9672 46.4284 34.5413 46.4284 33.0378C46.4284 31.5343 46.0299 30.1083 45.3063 29.0225Z" fill="#986503"/>
<path d="M37.849 39.0143C37.3946 37.6904 36.5208 36.6391 35.4518 36.13C34.676 35.7605 33.8418 35.7127 33.1028 35.9951C32.1845 36.3462 31.5038 37.1451 31.1863 38.2444C30.899 39.239 30.9453 40.3826 31.3166 41.4644V41.4644C31.7711 42.7883 32.6448 43.8396 33.7138 44.3487C34.156 44.5593 34.6172 44.6654 35.0689 44.6654C35.4096 44.6654 35.745 44.605 36.0627 44.4836C36.9812 44.1325 37.6618 43.3336 37.9794 42.2343C38.2665 41.2397 38.2202 40.0962 37.849 39.0143Z" fill="#986503"/>
<defs>
<filter id="filter0_d" x="0" y="0.246377" width="93.1663" height="91.1626" filterUnits="userSpaceOnUse" color-interpolation-filters="sRGB">
<feFlood flood-opacity="0" result="BackgroundImageFix"/>
<feColorMatrix in="SourceAlpha" type="matrix" values="0 0 0 0 0 0 0 0 0 0 0 0 0 0 0 0 0 0 127 0"/>
<feOffset dy="4.92118"/>
<feGaussianBlur stdDeviation="7.5"/>
<feColorMatrix type="matrix" values="0 0 0 0 0.12549 0 0 0 0 0.12549 0 0 0 0 0.12549 0 0 0 0.3 0"/>
<feBlend mode="normal" in2="BackgroundImageFix" result="effect1_dropShadow"/>
<feBlend mode="normal" in="SourceGraphic" in2="effect1_dropShadow" result="shape"/>
</filter>
</defs>
</svg>
