<svg width="36" height="36" viewBox="0 0 36 36" fill="none" xmlns="http://www.w3.org/2000/svg">
<circle cx="18" cy="18" r="17" stroke="url(#paint0_linear)" stroke-width="2"/>
<path d="M13.874 19.4277L13.874 19.4277C15.0721 17.9363 16.543 17.1655 17.9998 17.1655C19.4565 17.1655 20.9275 17.9363 22.1256 19.4277L22.5154 19.1145L22.1256 19.4277C23.2062 20.7728 23.8366 22.4541 23.8365 23.9001C23.8365 24.5521 23.643 24.9742 23.3319 25.2409L23.6548 25.6176L23.3319 25.2409C22.9942 25.5303 22.4953 25.6508 21.8342 25.64C21.1757 25.6293 20.4477 25.4913 19.7139 25.3509L19.7139 25.3509C19.7002 25.3482 19.6864 25.3456 19.6727 25.343C19.0855 25.2305 18.463 25.1114 17.9998 25.1114C17.4715 25.1114 16.8098 25.2365 16.1778 25.3561L16.1412 25.363C15.3733 25.5083 14.6526 25.6428 14.0155 25.6428H14.0155C13.4205 25.6429 12.977 25.5241 12.6641 25.2552L12.664 25.2552C12.3575 24.9919 12.1631 24.5667 12.1631 23.9001C12.1631 22.4541 12.7934 20.7728 13.874 19.4277Z" fill="url(#paint1_linear)" stroke="#5C6C2F"/>
<path d="M22.2272 10.8135L22.2273 10.8135C22.592 11.3679 22.8062 12.1201 22.8062 12.9356C22.8062 13.751 22.592 14.5032 22.2272 15.0576C21.8326 15.6574 21.3101 15.9427 20.8213 15.9427C20.3325 15.9427 19.8099 15.6574 19.4153 15.0576C19.0505 14.5032 18.8363 13.7511 18.8363 12.9356C18.8363 12.1201 19.0506 11.3679 19.4153 10.8135C19.8099 10.2138 20.3325 9.92847 20.8213 9.92847C21.3101 9.92847 21.8327 10.2137 22.2272 10.8135Z" fill="url(#paint2_linear)" stroke="#5C6C2F"/>
<mask id="path-4-inside-1" fill="white">
<path d="M27.3188 16.0435C27.1317 15.3873 26.7305 14.9104 26.1894 14.7008C25.7539 14.5322 25.2624 14.5608 24.8052 14.7814C24.1753 15.0853 23.6604 15.7128 23.3926 16.5031C23.1738 17.1489 23.1465 17.8315 23.3158 18.4252C23.5029 19.0815 23.9041 19.5584 24.4452 19.7679C24.6325 19.8405 24.8301 19.8765 25.0309 19.8765C25.2971 19.8765 25.5689 19.8131 25.8294 19.6874C26.4594 19.3835 26.9743 18.7559 27.2421 17.9657V17.9657C27.4608 17.3199 27.4881 16.6373 27.3188 16.0435Z"/>
</mask>
<path d="M27.3188 16.0435C27.1317 15.3873 26.7305 14.9104 26.1894 14.7008C25.7539 14.5322 25.2624 14.5608 24.8052 14.7814C24.1753 15.0853 23.6604 15.7128 23.3926 16.5031C23.1738 17.1489 23.1465 17.8315 23.3158 18.4252C23.5029 19.0815 23.9041 19.5584 24.4452 19.7679C24.6325 19.8405 24.8301 19.8765 25.0309 19.8765C25.2971 19.8765 25.5689 19.8131 25.8294 19.6874C26.4594 19.3835 26.9743 18.7559 27.2421 17.9657V17.9657C27.4608 17.3199 27.4881 16.6373 27.3188 16.0435Z" fill="url(#paint3_linear)"/>
<path d="M27.3188 16.0435L26.3571 16.3177L26.3571 16.3178L27.3188 16.0435ZM26.1894 14.7008L26.5505 13.7683L26.5505 13.7683L26.1894 14.7008ZM24.8052 14.7814L25.2397 15.682L25.2398 15.682L24.8052 14.7814ZM23.3926 16.5031L24.3397 16.824L24.3397 16.824L23.3926 16.5031ZM23.3158 18.4252L24.2775 18.151L24.2775 18.151L23.3158 18.4252ZM24.4452 19.7679L24.8063 18.8354L24.8063 18.8354L24.4452 19.7679ZM25.8294 19.6874L25.3949 18.7867L25.3949 18.7868L25.8294 19.6874ZM27.2421 17.9657L28.1892 18.2866L28.2421 18.1305V17.9657H27.2421ZM27.2421 17.9657L26.2949 17.6448L26.2421 17.8009V17.9657H27.2421ZM28.2805 15.7693C28.0245 14.8715 27.4375 14.1118 26.5505 13.7683L25.8283 15.6334C26.0235 15.709 26.2388 15.903 26.3571 16.3177L28.2805 15.7693ZM26.5505 13.7683C25.8329 13.4904 25.053 13.5515 24.3707 13.8807L25.2398 15.682C25.4717 15.5701 25.675 15.574 25.8283 15.6334L26.5505 13.7683ZM24.3707 13.8807C23.4531 14.3234 22.7815 15.1905 22.4455 16.1822L24.3397 16.824C24.5392 16.2352 24.8975 15.8472 25.2397 15.682L24.3707 13.8807ZM22.4455 16.1822C22.1686 16.9993 22.1234 17.8902 22.3541 18.6995L24.2775 18.151C24.1696 17.7728 24.179 17.2985 24.3397 16.824L22.4455 16.1822ZM22.3541 18.6995C22.6101 19.5972 23.1971 20.357 24.0841 20.7005L24.8063 18.8354C24.6111 18.7598 24.3958 18.5658 24.2775 18.151L22.3541 18.6995ZM24.0841 20.7005C24.3893 20.8186 24.7096 20.8765 25.0309 20.8765V18.8765C24.9506 18.8765 24.8757 18.8623 24.8063 18.8354L24.0841 20.7005ZM25.0309 20.8765C25.4568 20.8765 25.8765 20.775 26.264 20.5881L25.3949 18.7868C25.2613 18.8512 25.1373 18.8765 25.0309 18.8765V20.8765ZM26.2639 20.5881C27.1816 20.1454 27.8532 19.2783 28.1892 18.2866L26.295 17.6448C26.0955 18.2335 25.7372 18.6216 25.3949 18.7867L26.2639 20.5881ZM28.2421 17.9657V17.9657H26.2421V17.9657H28.2421ZM28.1892 18.2865C28.466 17.4695 28.5113 16.5786 28.2804 15.7693L26.3571 16.3178C26.465 16.696 26.4557 17.1703 26.2949 17.6448L28.1892 18.2865Z" fill="#5C6C2F" mask="url(#path-4-inside-1)"/>
<path d="M16.5842 10.8135L16.5842 10.8135C16.1896 10.2137 15.667 9.92847 15.1782 9.92847C14.6894 9.92847 14.1668 10.2138 13.7722 10.8135C13.4075 11.3679 13.1932 12.1201 13.1932 12.9356C13.1932 13.7511 13.4075 14.5032 13.7722 15.0576L13.7722 15.0576C14.1668 15.6574 14.6894 15.9427 15.1782 15.9427C15.667 15.9427 16.1896 15.6574 16.5842 15.0576C16.9489 14.5032 17.1632 13.7511 17.1632 12.9356L16.5842 10.8135ZM16.5842 10.8135C16.9489 11.3679 17.1631 12.1201 17.1632 12.9356L16.5842 10.8135Z" fill="url(#paint4_linear)" stroke="#5C6C2F"/>
<path d="M10.9775 15.2317L10.9775 15.2317C10.633 15.0655 10.2855 15.0531 9.99117 15.1671L10.9775 15.2317ZM10.9775 15.2317C11.4636 15.4662 11.9002 15.974 12.1339 16.6635L10.9775 15.2317ZM9.23428 17.8133L9.23152 17.8052C9.04174 17.2451 9.02343 16.6666 9.16201 16.1806C9.31469 15.6452 9.62288 15.3097 9.99111 15.1671L9.23428 17.8133ZM9.23428 17.8133C9.46865 18.4988 9.90368 19.0035 10.3879 19.2371C10.585 19.3322 10.7829 19.3765 10.9691 19.3765C11.1096 19.3765 11.2459 19.3513 11.3742 19.3017L9.23428 17.8133ZM12.1339 16.6635C12.3236 17.2237 12.3419 17.8022 12.2034 18.2881L12.1339 16.6635ZM12.2034 18.2882C12.0507 18.8236 11.7426 19.159 11.3743 19.3016L12.2034 18.2882Z" fill="url(#paint5_linear)" stroke="#5C6C2F"/>
<defs>
<linearGradient id="paint0_linear" x1="18" y1="0" x2="18" y2="36" gradientUnits="userSpaceOnUse">
<stop stop-color="#B6E13D"/>
</linearGradient>
<linearGradient id="paint1_linear" x1="17.9998" y1="16.6655" x2="17.9998" y2="26.1428" gradientUnits="userSpaceOnUse">
<stop stop-color="#B6E13D"/>
</linearGradient>
<linearGradient id="paint2_linear" x1="20.8213" y1="9.42847" x2="20.8213" y2="16.4427" gradientUnits="userSpaceOnUse">
<stop stop-color="#B6E13D"/>
</linearGradient>
<linearGradient id="paint3_linear" x1="25.3173" y1="14.5923" x2="25.3173" y2="19.8765" gradientUnits="userSpaceOnUse">
<stop stop-color="#B6E13D"/>
</linearGradient>
<linearGradient id="paint4_linear" x1="15.1782" y1="9.42847" x2="15.1782" y2="16.4427" gradientUnits="userSpaceOnUse">
<stop stop-color="#B6E13D"/>
</linearGradient>
<linearGradient id="paint5_linear" x1="10.6827" y1="14.5923" x2="10.6827" y2="19.8765" gradientUnits="userSpaceOnUse">
<stop stop-color="#B6E13D"/>
</linearGradient>
</defs>
</svg>
