<svg width="22" height="23" viewBox="0 0 22 23" fill="none" xmlns="http://www.w3.org/2000/svg">
<path d="M15.4271 14.3158H14.4749L14.1375 13.9811C15.3186 12.5678 16.0297 10.7329 16.0297 8.73692C16.0297 4.28617 12.5225 0.678467 8.19574 0.678467C3.869 0.678467 0.361816 4.28617 0.361816 8.73692C0.361816 13.1877 3.869 16.7954 8.19574 16.7954C10.1361 16.7954 11.9199 16.0639 13.2938 14.8489L13.6192 15.1961V16.1755L19.6453 22.3619L21.4411 20.5147L15.4271 14.3158ZM8.19574 14.3158C5.19475 14.3158 2.77226 11.8239 2.77226 8.73692C2.77226 5.64991 5.19475 3.15799 8.19574 3.15799C11.1967 3.15799 13.6192 5.64991 13.6192 8.73692C13.6192 11.8239 11.1967 14.3158 8.19574 14.3158Z" fill="#808080"/>
</svg>
