<svg width="21" height="24" viewBox="0 0 21 24" fill="none" xmlns="http://www.w3.org/2000/svg">
<path d="M14.7975 14.6667H13.9088L13.5938 14.3067C14.6963 12.7867 15.36 10.8133 15.36 8.66667C15.36 3.88 12.0863 0 8.04752 0C4.00877 0 0.735016 3.88 0.735016 8.66667C0.735016 13.4533 4.00877 17.3333 8.04752 17.3333C9.85877 17.3333 11.5238 16.5467 12.8063 15.24L13.11 15.6133V16.6667L18.735 23.32L20.4113 21.3333L14.7975 14.6667ZM8.04752 14.6667C5.24627 14.6667 2.98502 11.9867 2.98502 8.66667C2.98502 5.34667 5.24627 2.66667 8.04752 2.66667C10.8488 2.66667 13.11 5.34667 13.11 8.66667C13.11 11.9867 10.8488 14.6667 8.04752 14.6667Z" fill="#073170"/>
</svg>
