<svg width="335" height="84" viewBox="0 0 335 84" fill="none" xmlns="http://www.w3.org/2000/svg">
<path d="M119.695 31.28C119.695 34 118.735 36.352 116.815 38.336C114.895 40.288 112.095 41.696 108.415 42.56C110.399 43.104 111.903 44 112.927 45.248C113.951 46.464 114.463 47.872 114.463 49.472C114.463 52 113.663 54.192 112.063 56.048C110.495 57.904 108.191 59.344 105.151 60.368C102.111 61.36 98.4473 61.856 94.1593 61.856C92.5593 61.856 91.2793 61.808 90.3193 61.712C90.2873 62.608 89.9033 63.28 89.1673 63.728C88.4313 64.176 87.4873 64.4 86.3353 64.4C85.1833 64.4 84.3833 64.144 83.9353 63.632C83.5193 63.12 83.3433 62.368 83.4073 61.376C83.6953 56.896 84.2553 52.208 85.0872 47.312C85.9193 42.384 86.9753 37.632 88.2553 33.056C88.4793 32.256 88.9273 31.696 89.5993 31.376C90.2713 31.056 91.1513 30.896 92.2393 30.896C94.1913 30.896 95.1673 31.44 95.1673 32.528C95.1673 32.976 95.0713 33.488 94.8793 34.064C94.0473 36.56 93.2153 39.952 92.3833 44.24C91.5513 48.496 90.9593 52.56 90.6073 56.432C92.1433 56.56 93.3913 56.624 94.3513 56.624C98.8313 56.624 102.111 55.984 104.191 54.704C106.303 53.392 107.359 51.728 107.359 49.712C107.359 48.304 106.751 47.12 105.535 46.16C104.351 45.2 102.351 44.672 99.5353 44.576C98.8953 44.544 98.4473 44.384 98.1913 44.096C97.9353 43.808 97.8073 43.344 97.8073 42.704C97.8073 41.776 97.9993 41.024 98.3833 40.448C98.7673 39.872 99.4713 39.568 100.495 39.536C102.767 39.472 104.815 39.136 106.639 38.528C108.495 37.92 109.951 37.072 111.007 35.984C112.063 34.864 112.591 33.568 112.591 32.096C112.591 30.24 111.679 28.784 109.855 27.728C108.031 26.64 105.231 26.096 101.455 26.096C98.0313 26.096 94.7193 26.544 91.5193 27.44C88.3193 28.304 85.5993 29.408 83.3593 30.752C82.3353 31.36 81.4713 31.664 80.7673 31.664C80.1913 31.664 79.7433 31.472 79.4233 31.088C79.1353 30.672 78.9913 30.16 78.9913 29.552C78.9913 28.752 79.1513 28.064 79.4713 27.488C79.8233 26.912 80.6393 26.256 81.9193 25.52C84.6073 23.984 87.7593 22.784 91.3753 21.92C94.9913 21.056 98.6873 20.624 102.463 20.624C108.255 20.624 112.575 21.6 115.423 23.552C118.271 25.504 119.695 28.08 119.695 31.28ZM124.021 62.24C122.037 62.24 120.453 61.52 119.269 60.08C118.085 58.64 117.493 56.752 117.493 54.416C117.493 51.856 118.085 49.44 119.269 47.168C120.453 44.864 122.021 43.024 123.973 41.648C125.957 40.24 128.053 39.536 130.261 39.536C130.965 39.536 131.429 39.68 131.653 39.968C131.909 40.224 132.117 40.704 132.277 41.408C132.949 41.28 133.653 41.216 134.389 41.216C135.957 41.216 136.741 41.776 136.741 42.896C136.741 43.568 136.501 45.168 136.021 47.696C135.285 51.376 134.917 53.936 134.917 55.376C134.917 55.856 135.029 56.24 135.253 56.528C135.509 56.816 135.829 56.96 136.213 56.96C136.821 56.96 137.557 56.576 138.421 55.808C139.285 55.008 140.453 53.728 141.925 51.968C142.309 51.52 142.741 51.296 143.221 51.296C143.637 51.296 143.957 51.488 144.181 51.872C144.437 52.256 144.565 52.784 144.565 53.456C144.565 54.736 144.261 55.728 143.653 56.432C142.341 58.064 140.949 59.44 139.477 60.56C138.005 61.68 136.581 62.24 135.205 62.24C134.149 62.24 133.173 61.888 132.277 61.184C131.413 60.448 130.757 59.456 130.309 58.208C128.645 60.896 126.549 62.24 124.021 62.24ZM125.749 57.392C126.453 57.392 127.125 56.976 127.765 56.144C128.405 55.312 128.869 54.208 129.157 52.832L130.933 44C129.589 44.032 128.341 44.544 127.189 45.536C126.069 46.496 125.173 47.776 124.501 49.376C123.829 50.976 123.493 52.672 123.493 54.464C123.493 55.456 123.685 56.192 124.069 56.672C124.485 57.152 125.045 57.392 125.749 57.392ZM144.071 62.24C142.855 62.24 141.991 61.6 141.479 60.32C140.999 59.04 140.759 56.992 140.759 54.176C140.759 50.016 141.351 46.064 142.535 42.32C142.823 41.392 143.287 40.72 143.927 40.304C144.599 39.856 145.527 39.632 146.711 39.632C147.351 39.632 147.799 39.712 148.055 39.872C148.311 40.032 148.439 40.336 148.439 40.784C148.439 41.296 148.199 42.448 147.719 44.24C147.399 45.52 147.143 46.64 146.951 47.6C146.759 48.56 146.599 49.744 146.471 51.152C147.527 48.4 148.711 46.16 150.023 44.432C151.335 42.704 152.615 41.472 153.863 40.736C155.143 40 156.311 39.632 157.367 39.632C159.447 39.632 160.487 40.672 160.487 42.752C160.487 43.168 160.343 44.176 160.055 45.776C159.799 47.056 159.671 47.856 159.671 48.176C159.671 49.296 160.071 49.856 160.871 49.856C161.767 49.856 162.919 49.152 164.327 47.744C164.743 47.328 165.175 47.12 165.623 47.12C166.039 47.12 166.359 47.312 166.583 47.696C166.839 48.048 166.967 48.528 166.967 49.136C166.967 50.32 166.647 51.248 166.007 51.92C165.111 52.848 164.055 53.648 162.839 54.32C161.655 54.96 160.391 55.28 159.047 55.28C157.351 55.28 156.055 54.848 155.159 53.984C154.295 53.12 153.863 51.952 153.863 50.48C153.863 50 153.911 49.52 154.007 49.04C154.071 48.4 154.103 47.968 154.103 47.744C154.103 47.232 153.927 46.976 153.575 46.976C153.095 46.976 152.455 47.52 151.655 48.608C150.887 49.664 150.119 51.072 149.351 52.832C148.583 54.592 147.959 56.448 147.479 58.4C147.127 59.904 146.711 60.928 146.231 61.472C145.783 61.984 145.063 62.24 144.071 62.24ZM190.251 51.296C190.667 51.296 190.987 51.488 191.211 51.872C191.467 52.256 191.595 52.784 191.595 53.456C191.595 54.736 191.291 55.728 190.683 56.432C189.243 58.192 187.787 59.6 186.315 60.656C184.843 61.712 183.099 62.24 181.083 62.24C178.619 62.24 176.635 61.536 175.131 60.128C173.627 58.72 172.875 56.848 172.875 54.512C172.875 53.264 173.515 52.368 174.795 51.824C176.203 51.216 177.211 50.576 177.819 49.904C178.427 49.2 178.731 48.352 178.731 47.36C178.731 46.784 178.603 46.352 178.347 46.064C178.123 45.776 177.835 45.632 177.483 45.632C176.619 45.632 175.659 46.256 174.603 47.504C173.579 48.752 172.619 50.368 171.723 52.352C170.827 54.304 170.123 56.32 169.611 58.4C169.259 59.904 168.843 60.928 168.363 61.472C167.915 61.984 167.195 62.24 166.203 62.24C165.211 62.24 164.475 61.888 163.995 61.184C163.547 60.448 163.243 59.328 163.083 57.824C162.923 56.32 162.843 54.112 162.843 51.2C162.843 46.272 163.339 41.136 164.331 35.792C165.355 30.448 166.843 25.968 168.795 22.352C170.779 18.704 173.147 16.88 175.899 16.88C177.371 16.88 178.555 17.52 179.451 18.8C180.379 20.048 180.843 21.68 180.843 23.696C180.843 26.928 179.899 30.288 178.011 33.776C176.123 37.232 173.051 41.28 168.795 45.92C168.699 47.584 168.651 49.296 168.651 51.056C170.187 47.056 171.947 44.16 173.931 42.368C175.915 40.544 177.771 39.632 179.499 39.632C181.099 39.632 182.379 40.176 183.339 41.264C184.331 42.352 184.827 43.696 184.827 45.296C184.827 47.056 184.379 48.672 183.483 50.144C182.587 51.616 181.051 52.928 178.875 54.08C179.003 54.944 179.387 55.648 180.027 56.192C180.699 56.704 181.499 56.96 182.427 56.96C183.419 56.96 184.379 56.576 185.307 55.808C186.235 55.04 187.451 53.76 188.955 51.968C189.339 51.52 189.771 51.296 190.251 51.296ZM174.891 21.632C174.315 21.632 173.675 22.464 172.971 24.128C172.267 25.76 171.579 27.984 170.907 30.8C170.267 33.584 169.739 36.624 169.323 39.92C171.307 37.584 172.939 35.04 174.219 32.288C175.531 29.536 176.187 27.04 176.187 24.8C176.187 23.776 176.075 22.992 175.851 22.448C175.627 21.904 175.307 21.632 174.891 21.632ZM208.27 56.624C208.942 56.624 209.454 56.848 209.806 57.296C210.158 57.744 210.334 58.304 210.334 58.976C210.334 59.808 210.062 60.56 209.518 61.232C209.006 61.872 208.302 62.192 207.406 62.192C205.87 62.192 203.582 62.08 200.542 61.856C199.934 61.824 198.814 61.76 197.182 61.664C195.55 61.568 194.27 61.52 193.342 61.52C192.926 61.52 192.318 61.664 191.518 61.952C191.358 61.984 191.038 62.064 190.558 62.192C190.11 62.32 189.726 62.384 189.406 62.384C188.894 62.384 188.462 62.16 188.11 61.712C187.79 61.232 187.63 60.528 187.63 59.6C187.63 58.576 187.87 57.792 188.35 57.248C188.83 56.672 189.582 56.16 190.606 55.712C192.782 54.752 194.83 53.536 196.75 52.064C198.702 50.56 200.254 48.944 201.406 47.216C202.59 45.488 203.182 43.84 203.182 42.272C203.182 41.024 202.894 40.112 202.318 39.536C201.774 38.928 200.894 38.624 199.678 38.624C198.27 38.624 197.134 39.008 196.27 39.776C195.438 40.544 195.022 41.616 195.022 42.992C195.022 44.88 194.078 45.824 192.19 45.824C191.294 45.824 190.59 45.568 190.078 45.056C189.598 44.544 189.358 43.808 189.358 42.848C189.358 41.248 189.774 39.776 190.606 38.432C191.438 37.088 192.686 36.016 194.35 35.216C196.014 34.384 198.046 33.968 200.446 33.968C203.326 33.968 205.582 34.688 207.214 36.128C208.846 37.568 209.662 39.568 209.662 42.128C209.662 44.56 208.59 47.104 206.446 49.76C204.334 52.416 201.278 54.768 197.278 56.816L208.27 56.624ZM223.417 62.24C222.233 62.24 221.385 61.984 220.873 61.472C220.361 60.928 220.105 59.92 220.105 58.448C220.105 57.456 220.201 56.192 220.393 54.656C220.617 53.088 220.969 50.944 221.449 48.224C222.281 43.2 222.937 38.848 223.417 35.168C223.705 32.864 223.849 30.944 223.849 29.408C223.849 27.968 223.321 27.248 222.265 27.248C221.433 27.248 220.425 27.68 219.241 28.544C218.089 29.376 216.809 30.72 215.401 32.576C214.953 33.184 214.457 33.488 213.913 33.488C213.465 33.488 213.065 33.28 212.713 32.864C212.393 32.416 212.233 31.92 212.233 31.376C212.233 30.864 212.329 30.352 212.521 29.84C212.745 29.296 213.097 28.688 213.577 28.016C215.113 25.872 216.825 24.224 218.713 23.072C220.601 21.888 222.489 21.296 224.377 21.296C226.137 21.296 227.481 21.856 228.409 22.976C229.369 24.096 229.849 25.728 229.849 27.872C229.849 28.736 229.769 29.76 229.609 30.944C229.449 32.096 229.305 33.04 229.177 33.776C229.049 34.512 228.953 35.024 228.889 35.312C230.713 30.096 232.761 26.464 235.033 24.416C237.305 22.336 239.801 21.296 242.521 21.296C244.601 21.296 246.233 22.032 247.417 23.504C248.633 24.976 249.241 27.056 249.241 29.744C249.241 30.8 249.097 32.112 248.809 33.68C250.409 29.264 252.281 26.096 254.425 24.176C256.569 22.256 259.033 21.296 261.817 21.296C264.057 21.296 265.769 22.016 266.953 23.456C268.169 24.896 268.777 26.912 268.777 29.504C268.777 30.912 268.569 32.624 268.153 34.64L265.225 48.368C264.905 49.968 264.745 51.344 264.745 52.496C264.745 53.84 265.049 54.848 265.657 55.52C266.297 56.192 267.177 56.528 268.297 56.528C269.353 56.528 270.377 56.176 271.369 55.472C272.393 54.768 273.593 53.6 274.969 51.968C275.353 51.52 275.785 51.296 276.265 51.296C276.681 51.296 277.001 51.488 277.225 51.872C277.481 52.256 277.609 52.784 277.609 53.456C277.609 54.704 277.305 55.696 276.697 56.432C275.033 58.448 273.385 59.92 271.753 60.848C270.121 61.776 268.409 62.24 266.617 62.24C263.897 62.24 261.769 61.44 260.233 59.84C258.697 58.208 257.929 56.032 257.929 53.312C257.929 51.424 258.313 48.688 259.081 45.104L261.001 36.32C261.065 36.032 261.177 35.52 261.337 34.784C261.497 34.048 261.625 33.36 261.721 32.72C261.817 32.048 261.865 31.392 261.865 30.752C261.865 29.632 261.641 28.8 261.193 28.256C260.777 27.68 260.169 27.392 259.369 27.392C257.865 27.392 256.281 28.368 254.617 30.32C252.985 32.24 251.417 35.44 249.913 39.92C248.441 44.4 247.241 50.224 246.313 57.392C246.089 59.312 245.689 60.608 245.113 61.28C244.569 61.92 243.673 62.24 242.425 62.24C241.337 62.24 240.537 61.984 240.025 61.472C239.545 60.96 239.305 60 239.305 58.592C239.305 57.28 239.481 55.568 239.833 53.456C240.185 51.312 240.633 48.8 241.177 45.92C242.649 38.176 243.385 33.184 243.385 30.944C243.385 29.728 243.145 28.832 242.665 28.256C242.217 27.68 241.529 27.392 240.601 27.392C239.033 27.392 237.417 28.288 235.753 30.08C234.089 31.84 232.457 34.992 230.857 39.536C229.289 44.048 227.977 50.16 226.921 57.872C226.697 59.504 226.361 60.64 225.913 61.28C225.497 61.92 224.665 62.24 223.417 62.24ZM295.15 51.296C295.566 51.296 295.886 51.488 296.109 51.872C296.366 52.256 296.494 52.784 296.494 53.456C296.494 54.736 296.19 55.728 295.582 56.432C294.398 57.872 292.718 59.2 290.542 60.416C288.398 61.632 286.094 62.24 283.63 62.24C280.27 62.24 277.662 61.328 275.806 59.504C273.95 57.68 273.021 55.184 273.021 52.016C273.021 49.808 273.486 47.76 274.414 45.872C275.342 43.952 276.622 42.432 278.254 41.312C279.918 40.192 281.79 39.632 283.87 39.632C285.726 39.632 287.214 40.192 288.334 41.312C289.454 42.4 290.014 43.888 290.014 45.776C290.014 47.984 289.214 49.888 287.614 51.488C286.046 53.056 283.374 54.304 279.598 55.232C280.398 56.704 281.918 57.44 284.158 57.44C285.598 57.44 287.23 56.944 289.054 55.952C290.91 54.928 292.51 53.6 293.854 51.968C294.238 51.52 294.67 51.296 295.15 51.296ZM283.054 44.336C281.87 44.336 280.862 45.024 280.03 46.4C279.23 47.776 278.83 49.44 278.83 51.392V51.488C280.718 51.04 282.206 50.368 283.294 49.472C284.382 48.576 284.926 47.536 284.926 46.352C284.926 45.744 284.75 45.264 284.398 44.912C284.078 44.528 283.63 44.336 283.054 44.336ZM313.993 51.296C314.409 51.296 314.729 51.488 314.953 51.872C315.209 52.256 315.337 52.784 315.337 53.456C315.337 54.736 315.033 55.728 314.425 56.432C313.241 57.872 311.561 59.2 309.385 60.416C307.241 61.632 304.937 62.24 302.473 62.24C299.113 62.24 296.505 61.328 294.649 59.504C292.793 57.68 291.865 55.184 291.865 52.016C291.865 49.808 292.329 47.76 293.257 45.872C294.185 43.952 295.465 42.432 297.097 41.312C298.761 40.192 300.633 39.632 302.713 39.632C304.569 39.632 306.057 40.192 307.177 41.312C308.297 42.4 308.857 43.888 308.857 45.776C308.857 47.984 308.057 49.888 306.457 51.488C304.889 53.056 302.217 54.304 298.441 55.232C299.241 56.704 300.761 57.44 303.001 57.44C304.441 57.44 306.073 56.944 307.897 55.952C309.753 54.928 311.353 53.6 312.697 51.968C313.081 51.52 313.513 51.296 313.993 51.296ZM301.897 44.336C300.713 44.336 299.705 45.024 298.873 46.4C298.073 47.776 297.673 49.44 297.673 51.392V51.488C299.561 51.04 301.049 50.368 302.137 49.472C303.225 48.576 303.769 47.536 303.769 46.352C303.769 45.744 303.593 45.264 303.241 44.912C302.921 44.528 302.473 44.336 301.897 44.336ZM332.837 51.296C333.253 51.296 333.573 51.488 333.797 51.872C334.053 52.256 334.181 52.784 334.181 53.456C334.181 54.736 333.877 55.728 333.269 56.432C331.893 58.128 330.389 59.52 328.757 60.608C327.125 61.696 325.253 62.24 323.141 62.24C316.613 62.24 313.349 57.648 313.349 48.464C313.349 47.056 313.397 45.632 313.493 44.192H311.621C310.661 44.192 310.005 44.016 309.653 43.664C309.333 43.312 309.173 42.752 309.173 41.984C309.173 40.192 309.893 39.296 311.333 39.296H314.069C314.613 35.776 315.445 32.56 316.565 29.648C317.685 26.736 319.029 24.416 320.597 22.688C322.197 20.96 323.909 20.096 325.733 20.096C327.077 20.096 328.133 20.688 328.901 21.872C329.669 23.056 330.053 24.544 330.053 26.336C330.053 31.296 327.973 35.616 323.813 39.296H329.189C329.701 39.296 330.069 39.408 330.293 39.632C330.517 39.856 330.629 40.272 330.629 40.88C330.629 43.088 328.821 44.192 325.205 44.192H319.349C319.285 45.792 319.253 47.04 319.253 47.936C319.253 51.264 319.637 53.6 320.405 54.944C321.205 56.288 322.453 56.96 324.149 56.96C325.525 56.96 326.741 56.544 327.797 55.712C328.853 54.88 330.101 53.632 331.541 51.968C331.925 51.52 332.357 51.296 332.837 51.296ZM324.437 24.704C323.957 24.704 323.413 25.312 322.805 26.528C322.229 27.712 321.669 29.376 321.125 31.52C320.613 33.632 320.181 35.984 319.829 38.576C321.717 36.944 323.125 35.12 324.053 33.104C325.013 31.056 325.493 29.2 325.493 27.536C325.493 25.648 325.141 24.704 324.437 24.704Z" fill="#333333"/>
<path d="M30.317 50.6314L30.3171 50.6314C31.5386 44.5814 34.7024 39.9117 39.1438 37.3825C43.5852 34.8532 49.2154 34.5149 55.0421 36.551L55.372 35.607L55.0421 36.551C60.2959 38.3869 64.7497 41.8857 66.9939 45.8268C68.0208 47.63 68.1563 49.2207 67.5808 50.6429L68.4231 50.9838L67.5808 50.643C66.9577 52.1829 65.5233 53.4339 63.5329 54.5282C61.5521 55.6171 59.1814 56.4664 56.8674 57.2929L56.8673 57.2929L56.7882 57.3212C54.8845 58.0011 52.9632 58.6874 51.6896 59.4126C50.2272 60.2455 48.5531 61.6279 46.8818 63.0081L46.8252 63.0549C44.845 64.69 42.9158 66.2791 41.0077 67.3658L41.0076 67.3658C39.2154 68.3866 37.5767 68.8833 36.0496 68.6493L36.0496 68.6493C34.5485 68.4194 33.2437 67.482 32.1966 65.6431C29.9522 61.7021 29.2155 56.0865 30.317 50.6314Z" fill="#4B0B9D" stroke="#4B0B9D" stroke-width="2"/>
<path d="M42.3506 13.5168L42.3506 13.5168C40.1875 12.5164 38.0051 12.5672 36.328 13.5223C34.6508 14.4774 33.4938 16.3285 33.2504 18.6992L42.3506 13.5168ZM42.3506 13.5168C44.348 14.4405 46.1658 16.1592 47.4343 18.3867C48.7027 20.614 49.2533 23.0543 49.0287 25.2435L42.3506 13.5168Z" fill="#4B0B9D" stroke="#4B0B9D" stroke-width="2"/>
<path d="M59.4602 18.8339C60.9923 18.5632 62.56 19.0457 63.8897 20.292L63.8897 20.2921C65.0989 21.4254 65.9599 23.0769 66.2743 24.9599L66.2788 24.9871C66.6559 27.2866 66.1587 29.5064 64.9882 31.0959L64.9881 31.096C64.5062 31.7504 63.9226 32.2688 63.2826 32.6333C62.7998 32.9082 62.2839 33.0964 61.7508 33.1906L61.7508 33.1906C60.2186 33.4613 58.6509 32.9788 57.3212 31.7325L57.3212 31.7325C56.1121 30.5991 55.2511 28.9476 54.9368 27.0645L54.9368 27.0645C54.5514 24.7552 55.0478 22.5242 56.223 20.9285L56.223 20.9284C57.0685 19.7802 58.2244 19.0522 59.4602 18.8339ZM59.4602 18.8339L59.2862 17.8491M59.4602 18.8339L59.2862 17.8491M59.2862 17.8491C61.1633 17.5175 63.0411 18.126 64.5735 19.5624L61.9248 34.1753C60.0476 34.507 58.1698 33.8985 56.6374 32.4621C55.2509 31.1625 54.2968 29.3042 53.9505 27.2291C53.5266 24.6899 54.0615 22.1772 55.4177 20.3355C56.4018 18.999 57.7757 18.116 59.2862 17.8491Z" fill="#4B0B9D" stroke="#4B0B9D" stroke-width="2"/>
<path d="M26.0825 22.7812L26.0825 22.7812C23.9194 21.7808 21.7371 21.8316 20.0599 22.7867C18.3827 23.7418 17.2256 25.593 16.9823 27.9636C16.7577 30.1528 17.3083 32.5931 18.5768 34.8205C19.8452 37.0479 21.663 38.7666 23.6604 39.6903L23.6605 39.6903C25.8236 40.6907 28.0059 40.6401 29.6831 39.6849C31.3603 38.7298 32.5173 36.8788 32.7606 34.508C32.9853 32.3188 32.4347 29.8786 31.1662 27.6511L26.0825 22.7812ZM26.0825 22.7812C28.0798 23.7049 29.8976 25.4237 31.1662 27.6511L26.0825 22.7812Z" fill="#4B0B9D" stroke="#4B0B9D" stroke-width="2"/>
<path d="M16.2804 43.6747L16.2804 43.6747C14.8615 43.8161 13.6455 44.4389 12.8272 45.3902L16.2804 43.6747ZM16.2804 43.6747C18.2524 43.4783 20.4243 44.1895 22.2138 45.6992L16.2804 43.6747ZM14.64 54.3938C16.4257 55.8915 18.5884 56.5965 20.5527 56.4009C21.3616 56.3202 22.1051 56.0828 22.7451 55.7184C23.2278 55.4435 23.653 55.0956 24.006 54.6853C25.0207 53.5054 25.4055 51.911 25.0121 50.1317C24.6541 48.5138 23.673 46.9306 22.2139 45.6993L14.64 54.3938ZM14.64 54.3938L14.6192 54.3762C13.1601 53.1452 12.1789 51.562 11.8211 49.9438M14.64 54.3938L12.8272 45.3902C11.8126 46.57 11.4277 48.1645 11.8211 49.9438M11.8211 49.9438L10.8447 50.1597L11.8211 49.9438Z" fill="#4B0B9D" stroke="#4B0B9D" stroke-width="2"/>
</svg>
