<svg width="2000" height="1000" viewBox="0 0 2000 1000" fill="none" xmlns="http://www.w3.org/2000/svg">
<g clip-path="url(#clip0)">
<rect width="2000" height="1000" fill="url(#paint0_linear)"/>
<g opacity="0.5">
<path d="M922.039 555.906L922.039 555.906C928.535 541.724 939.068 531.946 951.641 528.254C964.214 524.563 978.361 527.096 991.493 535.516C1003.31 543.094 1012.29 554.336 1015.58 565.517C1017.12 570.779 1016.55 575.178 1014.05 578.72C1011.4 582.483 1006.85 584.797 1001.33 586.326C995.828 587.853 989.533 588.552 983.535 589.216L983.632 590.096L983.535 589.216L983.446 589.226C978.399 589.785 973.497 590.328 970.153 591.31C966.292 592.443 961.582 594.77 956.716 597.173L956.647 597.207C950.996 599.998 945.347 602.785 940.005 604.353C934.987 605.827 930.39 606.177 926.412 604.56L926.035 605.487L926.412 604.56C922.423 602.939 919.566 599.512 917.996 594.164C914.714 582.983 916.193 568.67 922.039 555.906Z" fill="#4B0B9D" stroke="#4B0B9D" stroke-width="2"/>
<path d="M974.146 472.875L974.146 472.875C978.693 476.455 982.245 481.909 984.108 488.255C985.971 494.601 985.931 501.11 984.041 506.58C981.988 512.522 977.848 516.719 972.754 518.214C967.661 519.709 961.909 518.417 956.97 514.527C952.424 510.947 948.871 505.492 947.008 499.147C945.145 492.801 945.186 486.292 947.075 480.822C949.128 474.88 953.268 470.683 958.362 469.188C963.455 467.693 969.207 468.985 974.146 472.875Z" fill="#4B0B9D" stroke="#4B0B9D" stroke-width="2"/>
<path d="M1022.36 501.852L1022.36 501.852C1019.65 497.747 1015.75 495.403 1011.41 495.149M1022.36 501.852L1011.41 495.149M1022.36 501.852C1024.82 505.572 1026.02 510.371 1025.69 515.372L1025.69 515.441C1025.27 521.538 1022.67 526.989 1018.62 530.437L1018.62 530.437C1016.95 531.864 1015.07 532.881 1013.13 533.453C1011.66 533.884 1010.14 534.063 1008.64 533.975L1008.58 534.974L1008.64 533.975C1004.29 533.721 1000.4 531.377 997.682 527.273L996.848 527.824L997.682 527.273C995.22 523.552 994.022 518.754 994.35 513.752L993.354 513.687L994.35 513.752C994.752 507.627 997.355 502.148 1001.42 498.687L1001.42 498.687C1004.36 496.184 1007.91 494.944 1011.41 495.149M1022.36 501.852L1011.47 494.151L1011.41 495.149" fill="#4B0B9D" stroke="#4B0B9D" stroke-width="2"/>
<path d="M912.666 527.534L912.048 528.319L912.666 527.534C908.12 523.954 904.568 518.499 902.705 512.153C900.842 505.808 900.882 499.298 902.771 493.829C904.824 487.886 908.965 483.69 914.058 482.195C919.152 480.699 924.904 481.991 929.843 485.881C934.389 489.461 937.941 494.916 939.804 501.262C941.667 507.608 941.627 514.117 939.738 519.586C937.685 525.529 933.545 529.725 928.451 531.221C923.357 532.716 917.606 531.424 912.666 527.534Z" fill="#4B0B9D" stroke="#4B0B9D" stroke-width="2"/>
<path d="M893.917 529.296L893.783 530.286C889.956 529.769 886.299 530.646 883.467 532.709L893.917 529.296ZM893.917 529.296L893.783 530.286M893.917 529.296L893.783 530.286M882.421 557.501L882.379 557.445C879.4 553.415 877.814 548.73 877.874 544.269C877.94 539.349 879.949 535.272 883.467 532.709L882.421 557.501ZM882.421 557.501C886.068 562.405 891.2 565.586 896.471 566.298C896.471 566.298 896.471 566.298 896.471 566.298L896.337 567.289C898.651 567.601 900.92 567.435 903.009 566.822L882.421 557.501ZM893.783 530.286C899.073 531.001 904.225 534.203 907.874 539.139L893.783 530.286Z" fill="#4B0B9D" stroke="#4B0B9D" stroke-width="2"/>
</g>
<g opacity="0.5">
<path d="M290.333 320.386L290.333 320.386C299.266 315.829 308.445 315.118 316.208 318.256C323.97 321.393 330.078 328.282 333.337 337.766C336.272 346.306 336.304 355.543 333.512 362.452C332.211 365.672 330.225 367.586 327.654 368.343L327.937 369.302L327.654 368.343C324.906 369.152 321.758 368.535 318.367 367.105C314.986 365.679 311.53 363.518 308.21 361.44L308.136 361.393C305.365 359.659 302.636 357.95 300.512 357.092C298.066 356.103 294.713 355.386 291.293 354.654L291.219 354.638C287.217 353.781 283.257 352.931 279.946 351.592C276.835 350.335 274.444 348.704 273.129 346.382L273.129 346.382C271.82 344.069 271.731 341.295 273.055 338.019C275.847 331.11 282.289 324.489 290.333 320.386Z" fill="#4B0B9D" stroke="#4B0B9D" stroke-width="2"/>
<path d="M349.712 298.923L349.712 298.923C350.563 302.491 350.185 306.617 348.602 310.533C347.02 314.448 344.425 317.678 341.334 319.653C337.979 321.796 334.306 322.234 331.239 320.995C328.173 319.755 325.835 316.888 324.912 313.016C324.061 309.448 324.439 305.322 326.021 301.407C327.603 297.491 330.199 294.261 333.29 292.286C336.644 290.143 340.317 289.705 343.384 290.944C346.451 292.184 348.788 295.051 349.712 298.923Z" fill="#4B0B9D" stroke="#4B0B9D" stroke-width="2"/>
<path d="M362.548 332.933L362.548 332.933C362.309 335.729 361.024 338.579 358.892 340.937L358.861 340.971C356.252 343.841 352.824 345.514 349.487 345.633L349.487 345.633C348.109 345.683 346.796 345.453 345.624 344.979C344.74 344.621 343.934 344.125 343.235 343.502L343.235 343.502C341.221 341.707 340.218 339.063 340.481 335.982L339.485 335.897L340.481 335.982C340.719 333.186 342.004 330.336 344.137 327.977L343.396 327.307L344.137 327.977C346.751 325.087 350.192 323.401 353.542 323.281L353.542 323.281C355.96 323.195 358.172 323.967 359.794 325.413C361.807 327.207 362.811 329.851 362.548 332.933Z" fill="#4B0B9D" stroke="#4B0B9D" stroke-width="2"/>
<path d="M297.167 301.803L297.167 301.803C298.09 305.675 300.427 308.542 303.494 309.782C306.561 311.021 310.234 310.583 313.589 308.44C316.68 306.465 319.275 303.235 320.857 299.32L297.167 301.803ZM297.167 301.803C296.316 298.235 296.694 294.109 298.276 290.193C299.858 286.278 302.454 283.048 305.545 281.073C308.899 278.93 312.572 278.492 315.639 279.731C318.706 280.971 321.043 283.838 321.966 287.71L322.939 287.478M297.167 301.803L322.939 287.478M322.939 287.478L321.966 287.71C322.817 291.278 322.439 295.404 320.857 299.32L322.939 287.478Z" fill="#4B0B9D" stroke="#4B0B9D" stroke-width="2"/>
<path d="M285.868 295.931L285.868 295.931C284.189 294.188 282.061 293.207 279.89 293.12L285.868 295.931ZM285.868 295.931C288.194 298.345 289.498 301.948 289.369 305.843M285.868 295.931L289.369 305.843M269.751 304.957L269.753 304.912C269.858 301.734 270.914 298.791 272.685 296.615C274.637 294.216 277.195 293.012 279.89 293.12L269.751 304.957ZM269.751 304.957C269.634 308.834 270.937 312.419 273.254 314.824C274.211 315.817 275.315 316.564 276.487 317.037C277.371 317.395 278.296 317.598 279.231 317.635L269.751 304.957ZM289.369 305.843C289.264 309.021 288.208 311.964 286.437 314.14L289.369 305.843ZM286.437 314.14C284.485 316.539 281.927 317.743 279.232 317.635L286.437 314.14Z" fill="#4B0B9D" stroke="#4B0B9D" stroke-width="2"/>
</g>
<g opacity="0.5">
<path d="M431.079 20.9505L431.079 20.9505C440.752 18.3055 449.884 19.4759 456.846 24.1259C463.809 28.7758 468.388 36.7627 469.65 46.7112C470.787 55.6704 468.941 64.7211 464.802 70.9175C462.873 73.8052 460.539 75.2761 457.869 75.4946L457.95 76.4912L457.869 75.4946C455.014 75.7281 452.057 74.4838 449.027 72.3938C446.007 70.3099 443.063 67.4919 440.234 64.7814L440.171 64.7208C437.811 62.4594 435.486 60.2314 433.582 58.9595C431.388 57.4942 428.251 56.1096 425.051 54.6975L424.982 54.6669C421.238 53.0145 417.533 51.3763 414.563 49.3927C411.773 47.5294 409.764 45.4459 408.948 42.9051L408.948 42.9051C408.137 40.3745 408.614 37.6398 410.576 34.7014C414.715 28.5048 422.368 23.3324 431.079 20.9505Z" fill="#F5FF7D" stroke="#F5FF7D" stroke-width="2"/>
<path d="M493.581 12.0098L493.581 12.0098C493.689 15.6763 492.48 19.6395 490.134 23.1513C487.789 26.663 484.591 29.2977 481.163 30.6031C477.443 32.0194 473.758 31.7015 471.007 29.8643C468.256 28.0271 466.551 24.7447 466.434 20.7657C466.326 17.099 467.535 13.136 469.881 9.62423C472.226 6.11248 475.424 3.47777 478.852 2.17245C482.572 0.756086 486.257 1.07401 489.008 2.91126C491.759 4.74843 493.464 8.03065 493.581 12.0098Z" fill="#F5FF7D" stroke="#F5FF7D" stroke-width="2"/>
<path d="M499.234 47.919L499.234 47.919C498.432 50.608 496.594 53.1373 494.026 55.0131L493.99 55.0398C490.851 57.3189 487.155 58.2604 483.864 57.6985L483.864 57.6985C482.504 57.4665 481.266 56.9744 480.214 56.2722C479.421 55.7425 478.733 55.0925 478.175 54.3404L478.175 54.3404C476.569 52.1737 476.124 49.3809 477.008 46.4175L476.05 46.1317L477.008 46.4175C477.81 43.7285 479.648 41.1994 482.215 39.3236L481.626 38.5171L482.215 39.3236C485.362 37.025 489.074 36.0741 492.378 36.6381L492.378 36.6381C494.764 37.0452 496.773 38.2506 498.067 39.9961C499.673 42.1627 500.118 44.9556 499.234 47.919Z" fill="#F5FF7D" stroke="#F5FF7D" stroke-width="2"/>
<path d="M441.548 4.14512L441.548 4.14514C441.665 8.12432 443.37 11.4066 446.121 13.2438C448.872 15.0811 452.557 15.399 456.277 13.9825C459.706 12.6772 462.903 10.0426 465.249 6.53073L441.548 4.14512ZM441.548 4.14512C441.441 0.478434 442.65 -3.4846 444.995 -6.99637C447.34 -10.5081 450.538 -13.1428 453.966 -14.4482C457.686 -15.8646 461.372 -15.5466 464.123 -13.7093C466.873 -11.8721 468.579 -8.58997 468.696 -4.61082L469.695 -4.64013M441.548 4.14512L469.695 -4.64013M469.695 -4.64013L468.696 -4.61082C468.803 -0.944413 467.594 3.01878 465.249 6.53069L469.695 -4.64013Z" fill="#F5FF7D" stroke="#F5FF7D" stroke-width="2"/>
<path d="M431.68 -3.90166L431.68 -3.90167C430.39 -5.94953 428.506 -7.3431 426.399 -7.86992L431.68 -3.90166ZM431.68 -3.90166C433.466 -1.06541 434.01 2.72743 433.092 6.51459M431.68 -3.90166L433.092 6.51459M414.064 1.65796L414.075 1.61475C414.824 -1.47574 416.456 -4.14213 418.633 -5.91299C421.031 -7.86444 423.782 -8.5236 426.398 -7.86995L414.064 1.65796ZM414.064 1.65796C413.161 5.43094 413.707 9.20567 415.487 12.0311C416.223 13.1986 417.151 14.1537 418.203 14.8559C418.996 15.3856 419.86 15.7724 420.768 15.9994L414.064 1.65796ZM433.092 6.51459C432.343 9.60528 430.71 12.2717 428.534 14.0426L433.092 6.51459ZM428.534 14.0426C426.136 15.994 423.386 16.6533 420.768 15.9994L428.534 14.0426Z" fill="#F5FF7D" stroke="#F5FF7D" stroke-width="2"/>
</g>
<g opacity="0.5">
<path d="M781.589 328.124L781.589 328.124C790.958 324.546 800.16 324.819 807.543 328.766C814.927 332.714 820.264 340.215 822.493 349.993C824.5 358.798 823.546 367.986 820.033 374.557C818.396 377.619 816.216 379.311 813.58 379.789L813.759 380.773L813.58 379.789C810.762 380.301 807.697 379.351 804.478 377.567C801.268 375.788 798.063 373.271 794.983 370.85L794.914 370.796C792.345 368.776 789.813 366.786 787.794 365.706C785.467 364.462 782.21 363.391 778.887 362.298L778.815 362.274C774.928 360.996 771.081 359.727 767.931 358.043C764.972 356.462 762.769 354.584 761.71 352.135L761.71 352.135C760.654 349.696 760.862 346.928 762.528 343.812C766.042 337.241 773.153 331.345 781.589 328.124Z" fill="#F5FF7D" stroke="#F5FF7D" stroke-width="2"/>
<path d="M842.919 313.119L842.919 313.119C843.384 316.758 842.568 320.82 840.577 324.544C838.586 328.268 835.661 331.203 832.377 332.837C828.813 334.61 825.114 334.653 822.197 333.094C819.28 331.534 817.262 328.434 816.757 324.485C816.292 320.847 817.107 316.785 819.099 313.061C821.09 309.336 824.015 306.402 827.299 304.768C830.863 302.995 834.562 302.951 837.479 304.511C840.396 306.071 842.414 309.17 842.919 313.119Z" fill="#F5FF7D" stroke="#F5FF7D" stroke-width="2"/>
<path d="M852.053 348.304L852.053 348.304C851.517 351.059 849.936 353.755 847.563 355.873L847.53 355.903C844.629 358.478 841.042 359.776 837.712 359.538L837.712 359.538C836.336 359.44 835.055 359.072 833.94 358.476C833.099 358.026 832.35 357.446 831.722 356.752L831.722 356.752C829.912 354.753 829.196 352.017 829.787 348.981L828.805 348.79L829.787 348.981C830.322 346.227 831.904 343.53 834.276 341.412L833.611 340.667L834.276 341.412C837.183 338.817 840.784 337.508 844.128 337.747L844.128 337.747C846.542 337.919 848.659 338.922 850.117 340.533C851.927 342.532 852.643 345.268 852.053 348.304Z" fill="#F5FF7D" stroke="#F5FF7D" stroke-width="2"/>
<path d="M790.366 310.376L790.366 310.376C790.871 314.324 792.889 317.424 795.806 318.984C798.724 320.544 802.422 320.5 805.986 318.727C809.271 317.093 812.196 314.158 814.187 310.434L790.366 310.376ZM790.366 310.376C789.901 306.737 790.717 302.675 792.708 298.951C794.699 295.227 797.624 292.292 800.909 290.658C804.472 288.885 808.171 288.841 811.088 290.401C814.006 291.961 816.024 295.061 816.528 299.009L817.52 298.882M790.366 310.376L817.52 298.882M817.52 298.882L816.528 299.009C816.994 302.648 816.178 306.71 814.187 310.434L817.52 298.882Z" fill="#F5FF7D" stroke="#F5FF7D" stroke-width="2"/>
<path d="M779.759 303.332L779.759 303.332C778.275 301.42 776.265 300.217 774.115 299.899L779.759 303.332ZM779.759 303.332C781.814 305.98 782.726 309.702 782.182 313.56M779.759 303.332L782.182 313.56M762.771 310.586L762.777 310.542C763.221 307.393 764.585 304.58 766.578 302.605C768.775 300.429 771.447 299.504 774.115 299.899L762.771 310.586ZM762.771 310.586C762.241 314.429 763.153 318.133 765.201 320.771C766.047 321.861 767.064 322.72 768.179 323.317C769.02 323.766 769.918 324.067 770.844 324.204L762.771 310.586ZM782.182 313.56C781.739 316.71 780.375 319.523 778.382 321.498L782.182 313.56ZM778.382 321.498C776.185 323.674 773.513 324.599 770.844 324.204L778.382 321.498Z" fill="#F5FF7D" stroke="#F5FF7D" stroke-width="2"/>
</g>
<g opacity="0.5">
<path d="M7.35272 363.275L7.35274 363.275C16.033 358.254 25.1618 357.06 33.0788 359.783C40.9958 362.507 47.458 369.064 51.2125 378.363C54.5938 386.737 55.1135 395.96 52.6894 403.006C51.5598 406.289 49.6773 408.306 47.1506 409.198L47.4833 410.141L47.1506 409.198C44.4492 410.151 41.2727 409.7 37.811 408.451C34.3594 407.205 30.7945 405.23 27.3691 403.329L27.2925 403.286C24.4346 401.701 21.6187 400.138 19.4532 399.393C16.9584 398.535 13.5719 397.995 10.118 397.445L10.0432 397.433C6.00179 396.788 2.0024 396.148 -1.37487 394.986C-4.54762 393.895 -7.02141 392.392 -8.45675 390.142L-8.45677 390.142C-9.88642 387.902 -10.1213 385.136 -8.97187 381.794C-6.54796 374.748 -0.464598 367.797 7.35272 363.275Z" fill="#F5FF7D" stroke="#F5FF7D" stroke-width="2"/>
<path d="M65.5166 338.711L65.5167 338.711C66.5546 342.229 66.3948 346.369 65.0211 350.363C63.6474 354.356 61.2261 357.718 58.2435 359.854C55.0067 362.171 51.3621 362.802 48.234 361.726C45.1061 360.65 42.6209 357.91 41.4946 354.092C40.4567 350.574 40.6164 346.433 41.9901 342.44C43.3638 338.447 45.7851 335.085 48.7677 332.949C52.0045 330.632 55.6491 330.001 58.7772 331.077C61.9051 332.153 64.3904 334.893 65.5166 338.711Z" fill="#F5FF7D" stroke="#F5FF7D" stroke-width="2"/>
<path d="M80.1281 371.996L80.1281 371.996C80.0376 374.801 78.9046 377.715 76.8993 380.183L76.8708 380.218C74.4161 383.221 71.0818 385.073 67.7556 385.368L67.7555 385.368C66.3814 385.49 65.0587 385.329 63.8631 384.918C62.9612 384.608 62.13 384.154 61.3993 383.569L61.3993 383.569C59.2941 381.883 58.1528 379.296 58.2528 376.205L57.2533 376.172L58.2528 376.205C58.3435 373.4 59.4764 370.487 61.4819 368.019L60.7068 367.389L61.4819 368.019C63.9393 364.994 67.2866 363.129 70.6257 362.833L70.6258 362.833C73.0365 362.619 75.2858 363.273 76.9818 364.632C79.0868 366.318 80.2281 368.905 80.1281 371.996Z" fill="#F5FF7D" stroke="#F5FF7D" stroke-width="2"/>
<path d="M13.1965 344.358L13.1965 344.358C14.3227 348.176 16.8078 350.916 19.9359 351.992C23.0639 353.068 26.7085 352.437 29.9454 350.119C32.928 347.984 35.3493 344.622 36.723 340.628L13.1965 344.358ZM13.1965 344.358C12.1586 340.839 12.3183 336.699 13.692 332.706C15.0657 328.712 17.487 325.35 20.4696 323.215C23.7062 320.898 27.351 320.267 30.4791 321.343C33.6072 322.419 36.0923 325.158 37.2185 328.976L38.1777 328.693M13.1965 344.358L38.1777 328.693M38.1777 328.693L37.2186 328.976C38.2563 332.495 38.0966 336.635 36.723 340.628L38.1777 328.693Z" fill="#F5FF7D" stroke="#F5FF7D" stroke-width="2"/>
<path d="M1.60392 339.09L1.60391 339.09C-0.165133 337.438 -2.34104 336.57 -4.51362 336.597L1.60392 339.09ZM1.60392 339.09C4.05407 341.377 5.54566 344.907 5.62275 348.803M1.60392 339.09L5.62275 348.803M-14.0144 348.952L-14.0153 348.908C-14.0781 345.729 -13.1787 342.734 -11.5249 340.468C-9.70234 337.97 -7.21074 336.632 -4.51372 336.597L-14.0144 348.952ZM-14.0144 348.952C-13.9267 352.831 -12.4373 356.342 -9.99651 358.621C-8.98795 359.563 -7.84667 360.25 -6.65108 360.661C-5.7493 360.971 -4.8149 361.125 -3.87893 361.113L-14.0144 348.952ZM5.62275 348.803C5.68528 351.982 4.78586 354.977 3.13245 357.243L5.62275 348.803ZM3.13239 357.243C1.30986 359.741 -1.18152 361.079 -3.87883 361.113L3.13239 357.243Z" fill="#F5FF7D" stroke="#F5FF7D" stroke-width="2"/>
</g>
<g opacity="0.5">
<path d="M43.1041 167.348L43.1041 167.348C47.8021 155.464 55.9871 147.025 66.0876 143.468C76.188 139.911 87.8551 141.361 98.9628 147.679C108.962 153.367 116.79 162.171 119.953 171.156C121.436 175.368 121.159 178.944 119.296 181.904C117.312 185.056 113.729 187.136 109.283 188.626C104.847 190.113 99.7259 190.96 94.8292 191.766L94.7418 191.781C90.6352 192.457 86.6242 193.118 83.9074 194.075C80.7739 195.178 76.9989 197.299 73.1187 199.478L73.0522 199.516C68.5328 202.054 64.0316 204.579 59.7336 206.092C55.6956 207.514 51.9843 207.988 48.7037 206.854L48.7037 206.854C45.4232 205.719 42.9622 203.08 41.454 198.797C38.2903 189.812 38.8747 178.046 43.1041 167.348Z" fill="#4B0B9D" stroke="#4B0B9D" stroke-width="2"/>
<path d="M81.9844 97.0158L81.9844 97.0158C85.8373 99.7319 88.9695 104.022 90.7641 109.118C92.5586 114.215 92.805 119.521 91.5042 124.052C90.0913 128.972 86.9117 132.546 82.8598 133.972C78.8082 135.399 74.0909 134.606 69.9068 131.657C66.0538 128.94 62.9217 124.651 61.1271 119.554C59.3326 114.458 59.0862 109.152 60.387 104.621C61.7999 99.7001 64.9795 96.1266 69.0314 94.6999C73.083 93.2733 77.8002 94.0659 81.9844 97.0158Z" fill="#4B0B9D" stroke="#4B0B9D" stroke-width="2"/>
<path d="M122.776 118.658L122.776 118.658C124.933 121.569 126.116 125.416 126.065 129.5L126.064 129.557C125.988 134.538 124.108 139.076 120.974 142.045L120.974 142.045C119.678 143.273 118.205 144.175 116.656 144.721C115.487 145.132 114.273 145.341 113.054 145.335L113.054 145.335C109.54 145.316 106.292 143.594 103.914 140.383L103.178 140.929L103.914 140.383C101.758 137.472 100.575 133.625 100.626 129.54L99.7246 129.529L100.626 129.54C100.689 124.537 102.571 119.976 105.717 116.996L105.717 116.996C107.99 114.842 110.806 113.69 113.637 113.706C117.151 113.725 120.398 115.447 122.776 118.658Z" fill="#4B0B9D" stroke="#4B0B9D" stroke-width="2"/>
<path d="M46.1909 109.619L46.7671 108.802L46.1909 109.619C50.0436 112.335 53.1758 116.625 54.9706 121.722C56.7653 126.819 57.0116 132.124 55.7107 136.655C54.2979 141.576 51.1183 145.149 47.0665 146.576C43.0146 148.003 38.2976 147.21 34.1134 144.26L33.5795 145.017L34.1134 144.26C30.2603 141.544 27.1282 137.254 25.3337 132.158C23.5391 127.061 23.2927 121.755 24.5936 117.224C26.0062 112.304 29.186 108.73 33.2379 107.303C37.2898 105.877 42.0067 106.669 46.1909 109.619Z" fill="#4B0B9D" stroke="#4B0B9D" stroke-width="2"/>
<path d="M10.6306 170.203L10.5944 170.159C7.99571 167.008 6.50695 163.269 6.36362 159.649C6.20559 155.656 7.65763 152.28 10.3846 150.063C12.5808 148.278 15.4971 147.41 18.6188 147.665L18.6946 146.734L18.6188 147.665C22.9373 148.016 27.2624 150.392 30.446 154.252C33.0447 157.404 34.5334 161.143 34.6771 164.763L10.6306 170.203ZM10.6306 170.203C13.8111 174.037 18.1196 176.397 22.4217 176.747C24.2013 176.892 25.9146 176.672 27.4641 176.126C28.6329 175.715 29.7101 175.117 30.6559 174.349C33.3833 172.132 34.8351 168.755 34.6771 164.763L10.6306 170.203Z" fill="#4B0B9D" stroke="#4B0B9D" stroke-width="2"/>
</g>
<g opacity="0.5">
<path d="M536.378 773.975L536.378 773.975C539.062 756.769 547.42 743.06 559.826 735.274C572.232 727.488 588.211 725.923 604.872 730.988C619.864 735.546 632.925 744.9 639.845 755.927C643.108 761.126 643.843 766.052 642.217 770.648C640.491 775.526 636.287 779.402 630.823 782.717C625.368 786.027 618.817 788.686 612.585 791.213L612.503 791.247C607.249 793.377 602.162 795.44 598.879 797.501C595.089 799.879 590.745 803.795 586.246 807.851L586.189 807.902C580.973 812.605 575.747 817.311 570.48 820.617C565.532 823.722 560.68 825.504 555.885 824.97L555.775 825.959L555.885 824.97C551.073 824.434 546.944 821.596 543.628 816.313C536.707 805.287 533.963 789.457 536.378 773.975Z" fill="#F5FF7D" stroke="#F5FF7D" stroke-width="2"/>
<path d="M540.527 685.869C540.934 678.844 544.122 673.052 549.171 669.883C554.22 666.715 560.822 666.362 567.326 669.051L567.326 669.051C573.311 671.525 578.789 676.318 582.718 682.578C586.647 688.838 588.58 695.856 588.206 702.321C587.799 709.347 584.611 715.139 579.562 718.308C574.513 721.476 567.911 721.829 561.408 719.14C555.423 716.666 549.944 711.873 546.016 705.613C542.087 699.352 540.153 692.335 540.527 685.869ZM540.527 685.869L539.529 685.812L540.527 685.869Z" fill="#F5FF7D" stroke="#F5FF7D" stroke-width="2"/>
<path d="M627.849 685.557L627.849 685.557C631.637 688.821 634.385 693.628 635.551 699.114L635.567 699.19C636.969 705.882 635.827 712.547 632.505 717.501L632.505 717.501C631.131 719.551 629.415 721.221 627.483 722.433C626.026 723.348 624.444 724.003 622.788 724.368C618.011 725.419 613.088 724.07 608.909 720.469L608.257 721.227L608.909 720.469C605.122 717.206 602.374 712.398 601.209 706.912L600.238 707.119L601.208 706.912C599.781 700.195 600.92 693.497 604.254 688.525L604.254 688.525C606.666 684.928 610.123 682.505 613.97 681.658C618.748 680.607 623.67 681.956 627.849 685.557Z" fill="#F5FF7D" stroke="#F5FF7D" stroke-width="2"/>
<path d="M517.811 746.502L517.429 747.426L517.811 746.502C511.825 744.027 506.347 739.234 502.418 732.974C498.49 726.714 496.556 719.697 496.93 713.231C497.337 706.205 500.525 700.414 505.574 697.245C510.623 694.076 517.225 693.724 523.728 696.413C529.713 698.887 535.192 703.68 539.121 709.94C543.05 716.2 544.983 723.218 544.609 729.683C544.202 736.709 541.014 742.501 535.965 745.67C530.916 748.838 524.314 749.191 517.811 746.502Z" fill="#F5FF7D" stroke="#F5FF7D" stroke-width="2"/>
<path d="M498.272 753.962L498.413 754.951C494.124 755.558 490.438 757.619 488.003 760.715C484.979 764.56 484.053 769.58 485.479 774.908C486.771 779.738 489.905 784.304 494.338 787.738L494.399 787.786C499.817 791.958 506.316 793.828 512.22 792.991C512.22 792.991 512.22 792.991 512.22 792.991L512.36 793.982C514.937 793.616 517.321 792.751 519.377 791.461C520.929 790.487 522.294 789.271 523.415 787.846C526.657 783.724 527.617 778.372 526.12 772.775L498.272 753.962ZM498.272 753.962L498.413 754.951M498.272 753.962L498.413 754.951M498.413 754.951C504.339 754.111 510.865 755.998 516.294 760.204L498.413 754.951Z" fill="#F5FF7D" stroke="#F5FF7D" stroke-width="2"/>
</g>
<g opacity="0.5">
<path d="M29.699 582.039L29.699 582.039C49.7331 572.255 70.2661 570.983 87.5458 578.331C104.826 585.678 118.155 601.348 125.007 622.565C131.172 641.653 130.896 662.242 124.357 677.62C121.263 684.897 116.581 689.337 110.483 691.018C104.026 692.798 96.8305 691.194 89.3563 687.882C81.8919 684.574 74.3148 679.64 67.1317 674.959L66.5857 675.797L67.1317 674.959L67.0565 674.91C60.9816 670.951 55.1299 667.138 50.6031 665.213C45.3719 662.989 38.1242 661.303 30.5821 659.548L30.5078 659.531C21.7878 657.501 13.0255 655.459 5.70061 652.345C-1.18213 649.418 -6.64992 645.604 -9.62669 640.111L-10.4391 640.551L-9.62671 640.111C-12.6211 634.586 -12.6432 628.094 -9.50039 620.703C-2.96132 605.324 11.6755 590.842 29.699 582.039Z" fill="#4B0B9D" stroke="#4B0B9D" stroke-width="2"/>
<path d="M159.565 564.187C155.85 572.922 149.873 580.122 142.773 584.487C135.054 589.232 126.572 590.143 119.479 587.127C112.387 584.111 107.158 577.37 105.22 568.519C103.437 560.378 104.476 551.078 108.191 542.342C111.905 533.607 117.882 526.407 124.983 522.042C132.701 517.297 141.184 516.386 148.276 519.402C155.369 522.418 160.598 529.159 162.535 538.01L162.535 538.01C164.318 546.151 163.279 555.451 159.565 564.187Z" fill="#4B0B9D" stroke="#4B0B9D" stroke-width="2"/>
<path d="M189.346 613.568L189.346 613.568C188.68 619.987 185.617 626.435 180.683 631.702L180.616 631.774C174.583 638.179 166.701 641.89 159.009 642.03L159.009 642.03C155.822 642.088 152.785 641.504 150.071 640.349C148.023 639.479 146.157 638.284 144.545 636.792C139.893 632.489 137.695 626.257 138.43 619.171L137.436 619.068L138.43 619.171C139.097 612.752 142.16 606.305 147.094 601.038L146.493 600.476L147.094 601.038C153.135 594.588 161.048 590.85 168.768 590.71L168.768 590.71C174.358 590.608 179.486 592.482 183.231 595.947C187.883 600.25 190.081 606.482 189.346 613.568Z" fill="#4B0B9D" stroke="#4B0B9D" stroke-width="2"/>
<path d="M102.113 512.318L103.09 512.104L102.113 512.318C103.896 520.459 102.857 529.759 99.1425 538.495C95.428 547.231 89.4509 554.43 82.3508 558.795C74.632 563.54 66.1494 564.451 59.0569 561.435C51.9643 558.42 46.7356 551.678 44.7979 542.827L43.8211 543.041L44.7979 542.827C43.0153 534.685 44.0544 525.386 47.7688 516.65C51.4832 507.915 57.4604 500.715 64.5605 496.35C72.2787 491.605 80.7617 490.694 87.8543 493.71C94.9468 496.726 100.176 503.467 102.113 512.318Z" fill="#4B0B9D" stroke="#4B0B9D" stroke-width="2"/>
<path d="M23.0199 527.744L22.2872 528.424C18.4821 524.328 13.5742 521.936 8.48083 521.642C2.15344 521.277 -3.85943 524.017 -8.45235 529.463C-12.6131 534.395 -15.1312 541.075 -15.5017 548.282L-15.5068 548.381C-15.934 557.17 -13.1382 565.421 -7.9031 571.058L23.0199 527.744ZM23.0199 527.744L22.2872 528.424M23.0199 527.744L22.2872 528.424M22.2872 528.424C27.5419 534.082 30.3394 542.374 29.8859 551.2L22.2872 528.424Z" fill="#4B0B9D" stroke="#4B0B9D" stroke-width="2"/>
</g>
<g opacity="0.5">
<path d="M861.778 61.346L861.778 61.346C885.071 49.4469 909.144 47.5159 929.59 55.7796C950.037 64.0432 966.008 82.1582 974.493 106.901C982.125 129.157 982.24 153.319 974.886 171.513C971.401 180.137 965.976 185.481 958.809 187.596C951.227 189.834 942.721 188.089 933.885 184.361C925.058 180.638 916.068 175.01 907.56 169.681L907.029 170.528L907.56 169.681L907.484 169.633C900.276 165.119 893.352 160.782 888.024 158.629C881.864 156.139 873.352 154.319 864.472 152.421L864.397 152.405C854.146 150.213 843.825 148.002 835.164 144.502C827.026 141.213 820.501 136.841 816.871 130.422L816.067 130.877L816.871 130.422C813.216 123.958 813.061 116.299 816.601 107.541C823.954 89.3471 840.825 72.0491 861.778 61.346Z" fill="#4B0B9D" stroke="#4B0B9D" stroke-width="2"/>
<path d="M1016.67 7.09774L1016.67 7.09779C1018.94 16.6342 1017.91 27.5845 1013.73 37.922C1009.56 48.2594 1002.69 56.8476 994.429 62.1305C985.45 67.8742 975.476 69.134 967.047 65.7269C958.617 62.3201 952.319 54.4841 949.853 44.1148C947.584 34.5779 948.611 23.6281 952.789 13.2906C956.967 2.95322 963.837 -5.63501 972.095 -10.9179C981.073 -16.6616 991.047 -17.9213 999.477 -14.5143C1007.91 -11.1075 1014.2 -3.27188 1016.67 7.09774Z" fill="#4B0B9D" stroke="#4B0B9D" stroke-width="2"/>
<path d="M1049.66 95.0802L1049.66 95.0802C1050.38 86.7187 1047.66 79.4111 1042.07 74.429M1049.66 95.0802L1042.07 74.429M1049.66 95.0802C1049.02 102.653 1045.55 110.303 1039.86 116.6L1039.78 116.687C1032.82 124.344 1023.63 128.881 1014.57 129.209L1014.57 129.209C1010.81 129.345 1007.22 128.72 1003.99 127.416C1001.56 126.432 999.333 125.062 997.398 123.336L996.733 124.082L997.398 123.336C991.814 118.353 989.093 111.046 989.809 102.684L988.817 102.599L989.809 102.684C990.458 95.1113 993.928 87.462 999.617 81.1646L999.007 80.613L999.617 81.1646C1006.58 73.4546 1015.81 68.8848 1024.91 68.556L1024.91 68.556C1031.49 68.3174 1037.58 70.4181 1042.07 74.429M1049.66 95.0802L1042.74 73.6828L1042.07 74.429" fill="#4B0B9D" stroke="#4B0B9D" stroke-width="2"/>
<path d="M878.548 15.2965L877.575 15.5279L878.548 15.2965C876.279 5.75956 877.306 -5.19027 881.484 -15.5277C885.662 -25.8651 892.532 -34.4534 900.79 -39.7363C909.768 -45.4802 919.742 -46.7397 928.172 -43.3327C936.602 -39.9256 942.899 -32.0903 945.365 -21.7206C947.633 -12.1843 946.606 -1.23404 942.429 9.1036C938.251 19.4415 931.381 28.0293 923.123 33.3122C914.145 39.0563 904.171 40.316 895.741 36.909C887.311 33.502 881.014 25.6662 878.548 15.2965Z" fill="#4B0B9D" stroke="#4B0B9D" stroke-width="2"/>
<path d="M852.17 -1.25687L852.889 -1.94911L852.17 -1.25687C858.48 5.29651 861.944 14.9963 861.597 25.3816C861.313 33.8641 858.493 41.7767 853.699 47.6736C848.404 54.1843 841.371 57.5495 833.891 57.2525C831.301 57.1494 828.747 56.588 826.313 55.6043C823.086 54.3002 820.068 52.2526 817.463 49.5466C811.176 43.0177 807.716 33.366 808.032 23.0243L808.036 22.9078C808.32 14.4259 811.139 6.51332 815.935 0.616336C821.229 -5.89432 828.263 -9.2594 835.742 -8.96276C841.761 -8.72337 847.6 -6.00398 852.17 -1.25687Z" fill="#4B0B9D" stroke="#4B0B9D" stroke-width="2"/>
</g>
<g opacity="0.5">
<path d="M1858.02 555.906L1858.02 555.906C1864.52 541.724 1875.05 531.946 1887.62 528.254C1900.2 524.563 1914.34 527.096 1927.47 535.516C1939.29 543.094 1948.27 554.336 1951.56 565.517C1953.1 570.779 1952.54 575.178 1950.03 578.72C1947.38 582.483 1942.83 584.797 1937.32 586.326C1931.81 587.853 1925.51 588.552 1919.52 589.216L1919.61 590.096L1919.52 589.216L1919.43 589.226C1914.38 589.785 1909.48 590.328 1906.13 591.31C1902.27 592.443 1897.56 594.77 1892.7 597.173L1892.63 597.207C1886.98 599.998 1881.33 602.785 1875.99 604.353C1870.97 605.827 1866.37 606.177 1862.39 604.56L1862.02 605.487L1862.39 604.56C1858.4 602.939 1855.55 599.512 1853.98 594.164C1850.69 582.983 1852.17 568.67 1858.02 555.906Z" fill="#4B0B9D" stroke="#4B0B9D" stroke-width="2"/>
<path d="M1910.13 472.875L1910.13 472.875C1914.67 476.455 1918.23 481.909 1920.09 488.255C1921.95 494.601 1921.91 501.11 1920.02 506.58C1917.97 512.522 1913.83 516.719 1908.74 518.214C1903.64 519.709 1897.89 518.417 1892.95 514.527C1888.4 510.947 1884.85 505.492 1882.99 499.147C1881.13 492.801 1881.17 486.292 1883.06 480.822C1885.11 474.88 1889.25 470.683 1894.34 469.188C1899.44 467.693 1905.19 468.985 1910.13 472.875Z" fill="#4B0B9D" stroke="#4B0B9D" stroke-width="2"/>
<path d="M1958.34 501.852L1958.34 501.852C1955.63 497.747 1951.73 495.403 1947.39 495.149M1958.34 501.852L1947.39 495.149M1958.34 501.852C1960.81 505.572 1962 510.371 1961.68 515.372L1961.67 515.441C1961.25 521.538 1958.66 526.989 1954.61 530.437L1954.61 530.437C1952.93 531.864 1951.06 532.881 1949.11 533.453C1947.64 533.884 1946.12 534.063 1944.62 533.975L1944.56 534.974L1944.62 533.975C1940.27 533.721 1936.38 531.377 1933.66 527.273L1932.83 527.824L1933.66 527.273C1931.2 523.552 1930 518.754 1930.33 513.752L1929.34 513.687L1930.33 513.752C1930.73 507.627 1933.34 502.148 1937.4 498.687L1937.4 498.687C1940.34 496.184 1943.89 494.944 1947.39 495.149M1958.34 501.852L1947.45 494.151L1947.39 495.149" fill="#4B0B9D" stroke="#4B0B9D" stroke-width="2"/>
<path d="M1848.65 527.534L1848.03 528.319L1848.65 527.534C1844.1 523.954 1840.55 518.499 1838.69 512.153C1836.82 505.808 1836.86 499.298 1838.75 493.829C1840.81 487.886 1844.95 483.69 1850.04 482.195C1855.13 480.699 1860.88 481.991 1865.82 485.881C1870.37 489.461 1873.92 494.916 1875.79 501.262C1877.65 507.608 1877.61 514.117 1875.72 519.586C1873.67 525.529 1869.53 529.725 1864.43 531.221C1859.34 532.716 1853.59 531.424 1848.65 527.534Z" fill="#4B0B9D" stroke="#4B0B9D" stroke-width="2"/>
<path d="M1829.9 529.296L1829.76 530.286C1825.94 529.769 1822.28 530.646 1819.45 532.709L1829.9 529.296ZM1829.9 529.296L1829.76 530.286M1829.9 529.296L1829.76 530.286M1818.4 557.501L1818.36 557.445C1815.38 553.415 1813.8 548.73 1813.86 544.269C1813.92 539.349 1815.93 535.272 1819.45 532.709L1818.4 557.501ZM1818.4 557.501C1822.05 562.405 1827.18 565.586 1832.45 566.298C1832.45 566.298 1832.45 566.298 1832.45 566.298L1832.32 567.289C1834.63 567.601 1836.9 567.435 1838.99 566.822L1818.4 557.501ZM1829.76 530.286C1835.05 531.001 1840.21 534.203 1843.86 539.139L1829.76 530.286Z" fill="#4B0B9D" stroke="#4B0B9D" stroke-width="2"/>
</g>
<g opacity="0.5">
<path d="M1877.53 908.71L1877.53 908.71C1886.46 904.153 1895.64 903.442 1903.4 906.58C1911.17 909.717 1917.27 916.606 1920.53 926.09C1923.47 934.63 1923.5 943.867 1920.71 950.776C1919.41 953.995 1917.42 955.91 1914.85 956.667L1915.13 957.626L1914.85 956.667C1912.1 957.476 1908.95 956.859 1905.56 955.429C1902.18 954.003 1898.73 951.842 1895.41 949.764L1895.33 949.717C1892.56 947.983 1889.83 946.274 1887.71 945.416C1885.26 944.427 1881.91 943.71 1878.49 942.978L1878.41 942.962C1874.41 942.105 1870.45 941.255 1867.14 939.916C1864.03 938.659 1861.64 937.028 1860.32 934.706L1860.32 934.706C1859.02 932.393 1858.93 929.619 1860.25 926.343C1863.04 919.434 1869.48 912.813 1877.53 908.71Z" fill="#4B0B9D" stroke="#4B0B9D" stroke-width="2"/>
<path d="M1936.91 887.247L1936.91 887.247C1937.76 890.815 1937.38 894.941 1935.8 898.857C1934.22 902.772 1931.62 906.002 1928.53 907.977C1925.17 910.12 1921.5 910.558 1918.44 909.319C1915.37 908.079 1913.03 905.212 1912.11 901.34C1911.26 897.772 1911.63 893.646 1913.22 889.731C1914.8 885.815 1917.39 882.585 1920.49 880.61C1923.84 878.467 1927.51 878.029 1930.58 879.268C1933.65 880.508 1935.98 883.375 1936.91 887.247Z" fill="#4B0B9D" stroke="#4B0B9D" stroke-width="2"/>
<path d="M1949.74 921.257L1949.74 921.257C1949.5 924.053 1948.22 926.903 1946.09 929.261L1946.06 929.295C1943.45 932.165 1940.02 933.838 1936.68 933.957L1936.68 933.957C1935.3 934.007 1933.99 933.777 1932.82 933.303C1931.94 932.945 1931.13 932.449 1930.43 931.826L1930.43 931.826C1928.42 930.031 1927.41 927.387 1927.68 924.306L1926.68 924.221L1927.68 924.306C1927.91 921.51 1929.2 918.66 1931.33 916.301L1930.59 915.631L1931.33 916.301C1933.95 913.411 1937.39 911.725 1940.74 911.605L1940.74 911.605C1943.16 911.519 1945.37 912.291 1946.99 913.737C1949 915.531 1950.01 918.175 1949.74 921.257Z" fill="#4B0B9D" stroke="#4B0B9D" stroke-width="2"/>
<path d="M1884.36 890.127L1884.36 890.127C1885.29 893.999 1887.62 896.866 1890.69 898.106C1893.76 899.345 1897.43 898.907 1900.78 896.764C1903.88 894.789 1906.47 891.559 1908.05 887.644L1884.36 890.127ZM1884.36 890.127C1883.51 886.559 1883.89 882.433 1885.47 878.517C1887.05 874.602 1889.65 871.372 1892.74 869.397C1896.09 867.254 1899.77 866.816 1902.83 868.055C1905.9 869.295 1908.24 872.162 1909.16 876.034L1910.13 875.802M1884.36 890.127L1910.13 875.802M1910.13 875.802L1909.16 876.034C1910.01 879.602 1909.63 883.728 1908.05 887.644L1910.13 875.802Z" fill="#4B0B9D" stroke="#4B0B9D" stroke-width="2"/>
<path d="M1873.06 884.255L1873.06 884.255C1871.38 882.512 1869.26 881.531 1867.09 881.444L1873.06 884.255ZM1873.06 884.255C1875.39 886.669 1876.69 890.272 1876.56 894.167M1873.06 884.255L1876.56 894.167M1856.95 893.281L1856.95 893.236C1857.05 890.058 1858.11 887.115 1859.88 884.939C1861.83 882.54 1864.39 881.336 1867.09 881.444L1856.95 893.281ZM1856.95 893.281C1856.83 897.158 1858.13 900.743 1860.45 903.148C1861.41 904.141 1862.51 904.888 1863.68 905.361C1864.57 905.719 1865.49 905.922 1866.43 905.959L1856.95 893.281ZM1876.56 894.167C1876.46 897.345 1875.4 900.288 1873.63 902.464L1876.56 894.167ZM1873.63 902.464C1871.68 904.863 1869.12 906.067 1866.43 905.959L1873.63 902.464Z" fill="#4B0B9D" stroke="#4B0B9D" stroke-width="2"/>
</g>
<g opacity="0.5">
<path d="M1244.53 292.71L1244.53 292.71C1253.46 288.153 1262.64 287.442 1270.4 290.58C1278.17 293.717 1284.27 300.606 1287.53 310.09C1290.47 318.63 1290.5 327.867 1287.71 334.776C1286.41 337.995 1284.42 339.91 1281.85 340.667L1282.13 341.626L1281.85 340.667C1279.1 341.476 1275.95 340.859 1272.56 339.429C1269.18 338.003 1265.73 335.842 1262.41 333.764L1262.33 333.717C1259.56 331.983 1256.83 330.274 1254.71 329.416C1252.26 328.427 1248.91 327.71 1245.49 326.978L1245.41 326.962C1241.41 326.105 1237.45 325.255 1234.14 323.916C1231.03 322.659 1228.64 321.028 1227.32 318.706L1227.32 318.706C1226.02 316.393 1225.93 313.619 1227.25 310.343C1230.04 303.434 1236.48 296.813 1244.53 292.71Z" fill="#4B0B9D" stroke="#4B0B9D" stroke-width="2"/>
<path d="M1303.91 271.247L1303.91 271.247C1304.76 274.815 1304.38 278.941 1302.8 282.857C1301.22 286.772 1298.62 290.002 1295.53 291.977C1292.17 294.12 1288.5 294.558 1285.43 293.319C1282.37 292.079 1280.03 289.212 1279.11 285.34C1278.26 281.772 1278.63 277.646 1280.22 273.731C1281.8 269.815 1284.39 266.585 1287.49 264.61C1290.84 262.467 1294.51 262.029 1297.58 263.268C1300.65 264.508 1302.98 267.375 1303.91 271.247Z" fill="#4B0B9D" stroke="#4B0B9D" stroke-width="2"/>
<path d="M1316.74 305.257L1316.74 305.257C1316.5 308.053 1315.22 310.903 1313.09 313.261L1313.06 313.295C1310.45 316.165 1307.02 317.838 1303.68 317.957L1303.68 317.957C1302.3 318.007 1300.99 317.777 1299.82 317.303C1298.94 316.945 1298.13 316.449 1297.43 315.826L1297.43 315.826C1295.42 314.031 1294.41 311.387 1294.68 308.306L1293.68 308.221L1294.68 308.306C1294.91 305.51 1296.2 302.66 1298.33 300.301L1297.59 299.631L1298.33 300.301C1300.95 297.411 1304.39 295.725 1307.74 295.605L1307.74 295.605C1310.16 295.519 1312.37 296.291 1313.99 297.737C1316 299.531 1317.01 302.175 1316.74 305.257Z" fill="#4B0B9D" stroke="#4B0B9D" stroke-width="2"/>
<path d="M1251.36 274.127L1251.36 274.127C1252.29 277.999 1254.62 280.866 1257.69 282.106C1260.76 283.345 1264.43 282.907 1267.78 280.764C1270.88 278.789 1273.47 275.559 1275.05 271.644L1251.36 274.127ZM1251.36 274.127C1250.51 270.559 1250.89 266.433 1252.47 262.517C1254.05 258.602 1256.65 255.372 1259.74 253.397C1263.09 251.254 1266.77 250.816 1269.83 252.055C1272.9 253.295 1275.24 256.162 1276.16 260.034L1277.13 259.802M1251.36 274.127L1277.13 259.802M1277.13 259.802L1276.16 260.034C1277.01 263.602 1276.63 267.728 1275.05 271.644L1277.13 259.802Z" fill="#4B0B9D" stroke="#4B0B9D" stroke-width="2"/>
<path d="M1240.06 268.255L1240.06 268.255C1238.38 266.512 1236.26 265.531 1234.09 265.444L1240.06 268.255ZM1240.06 268.255C1242.39 270.669 1243.69 274.272 1243.56 278.167M1240.06 268.255L1243.56 278.167M1223.95 277.281L1223.95 277.236C1224.05 274.058 1225.11 271.115 1226.88 268.939C1228.83 266.54 1231.39 265.336 1234.09 265.444L1223.95 277.281ZM1223.95 277.281C1223.83 281.158 1225.13 284.743 1227.45 287.148C1228.41 288.141 1229.51 288.888 1230.68 289.361C1231.57 289.719 1232.49 289.922 1233.43 289.959L1223.95 277.281ZM1243.56 278.167C1243.46 281.345 1242.4 284.288 1240.63 286.464L1243.56 278.167ZM1240.63 286.464C1238.68 288.863 1236.12 290.067 1233.43 289.959L1240.63 286.464Z" fill="#4B0B9D" stroke="#4B0B9D" stroke-width="2"/>
</g>
<g opacity="0.5">
<path d="M1367.06 20.9505L1367.06 20.9505C1376.73 18.3055 1385.87 19.4759 1392.83 24.1259C1399.79 28.7758 1404.37 36.7627 1405.63 46.7112C1406.77 55.6704 1404.92 64.7211 1400.78 70.9175C1398.85 73.8052 1396.52 75.2761 1393.85 75.4946L1393.93 76.4912L1393.85 75.4946C1391 75.7281 1388.04 74.4838 1385.01 72.3938C1381.99 70.3099 1379.04 67.4919 1376.22 64.7814L1376.15 64.7208C1373.79 62.4594 1371.47 60.2314 1369.56 58.9595C1367.37 57.4942 1364.23 56.1096 1361.03 54.6975L1360.96 54.6669C1357.22 53.0145 1353.51 51.3763 1350.54 49.3927C1347.75 47.5294 1345.74 45.4459 1344.93 42.9051L1344.93 42.9051C1344.12 40.3745 1344.6 37.6398 1346.56 34.7014C1350.7 28.5048 1358.35 23.3324 1367.06 20.9505Z" fill="#F5FF7D" stroke="#F5FF7D" stroke-width="2"/>
<path d="M1429.56 12.0098L1429.56 12.0098C1429.67 15.6763 1428.46 19.6395 1426.12 23.1513C1423.77 26.663 1420.57 29.2977 1417.14 30.6031C1413.42 32.0194 1409.74 31.7015 1406.99 29.8643C1404.24 28.0271 1402.53 24.7447 1402.42 20.7657C1402.31 17.099 1403.52 13.136 1405.86 9.62423C1408.21 6.11248 1411.41 3.47777 1414.83 2.17245C1418.55 0.756086 1422.24 1.07401 1424.99 2.91126C1427.74 4.74843 1429.45 8.03065 1429.56 12.0098Z" fill="#F5FF7D" stroke="#F5FF7D" stroke-width="2"/>
<path d="M1435.22 47.919L1435.22 47.919C1434.41 50.608 1432.58 53.1373 1430.01 55.0131L1429.97 55.0398C1426.83 57.3189 1423.14 58.2604 1419.85 57.6985L1419.85 57.6985C1418.49 57.4665 1417.25 56.9744 1416.2 56.2722C1415.4 55.7425 1414.71 55.0925 1414.16 54.3404L1414.16 54.3404C1412.55 52.1737 1412.11 49.3809 1412.99 46.4175L1412.03 46.1317L1412.99 46.4175C1413.79 43.7285 1415.63 41.1994 1418.2 39.3236L1417.61 38.5171L1418.2 39.3236C1421.34 37.025 1425.06 36.0741 1428.36 36.6381L1428.36 36.6381C1430.75 37.0452 1432.75 38.2506 1434.05 39.9961C1435.65 42.1627 1436.1 44.9556 1435.22 47.919Z" fill="#F5FF7D" stroke="#F5FF7D" stroke-width="2"/>
<path d="M1377.53 4.14512L1377.53 4.14514C1377.65 8.12432 1379.35 11.4066 1382.1 13.2438C1384.85 15.0811 1388.54 15.399 1392.26 13.9825C1395.69 12.6772 1398.88 10.0426 1401.23 6.53073L1377.53 4.14512ZM1377.53 4.14512C1377.42 0.478434 1378.63 -3.4846 1380.98 -6.99637C1383.32 -10.5081 1386.52 -13.1428 1389.95 -14.4482C1393.67 -15.8646 1397.35 -15.5466 1400.1 -13.7093C1402.85 -11.8721 1404.56 -8.58997 1404.68 -4.61082L1405.68 -4.64013M1377.53 4.14512L1405.68 -4.64013M1405.68 -4.64013L1404.68 -4.61082C1404.78 -0.944413 1403.58 3.01878 1401.23 6.53069L1405.68 -4.64013Z" fill="#F5FF7D" stroke="#F5FF7D" stroke-width="2"/>
<path d="M1367.66 -3.90166L1367.66 -3.90167C1366.37 -5.94953 1364.49 -7.3431 1362.38 -7.86992L1367.66 -3.90166ZM1367.66 -3.90166C1369.45 -1.06541 1369.99 2.72743 1369.07 6.51459M1367.66 -3.90166L1369.07 6.51459M1350.05 1.65796L1350.06 1.61475C1350.81 -1.47574 1352.44 -4.14213 1354.61 -5.91299C1357.01 -7.86444 1359.76 -8.5236 1362.38 -7.86995L1350.05 1.65796ZM1350.05 1.65796C1349.14 5.43094 1349.69 9.20567 1351.47 12.0311C1352.2 13.1986 1353.13 14.1537 1354.18 14.8559C1354.98 15.3856 1355.84 15.7724 1356.75 15.9994L1350.05 1.65796ZM1369.07 6.51459C1368.32 9.60528 1366.69 12.2717 1364.52 14.0426L1369.07 6.51459ZM1364.52 14.0426C1362.12 15.994 1359.37 16.6533 1356.75 15.9994L1364.52 14.0426Z" fill="#F5FF7D" stroke="#F5FF7D" stroke-width="2"/>
</g>
<g opacity="0.5">
<path d="M1717.57 328.124L1717.57 328.124C1726.94 324.546 1736.14 324.819 1743.52 328.766C1750.91 332.714 1756.25 340.215 1758.47 349.993C1760.48 358.798 1759.53 367.986 1756.01 374.557C1754.38 377.619 1752.2 379.311 1749.56 379.789L1749.74 380.773L1749.56 379.789C1746.74 380.301 1743.68 379.351 1740.46 377.567C1737.25 375.788 1734.04 373.271 1730.96 370.85L1730.9 370.796C1728.33 368.776 1725.79 366.786 1723.78 365.706C1721.45 364.462 1718.19 363.391 1714.87 362.298L1714.8 362.274C1710.91 360.996 1707.06 359.727 1703.91 358.043C1700.95 356.462 1698.75 354.584 1697.69 352.135L1697.69 352.135C1696.64 349.696 1696.84 346.928 1698.51 343.812C1702.02 337.241 1709.13 331.345 1717.57 328.124Z" fill="#F5FF7D" stroke="#F5FF7D" stroke-width="2"/>
<path d="M1778.9 313.119L1778.9 313.119C1779.37 316.758 1778.55 320.82 1776.56 324.544C1774.57 328.268 1771.64 331.203 1768.36 332.837C1764.79 334.61 1761.1 334.653 1758.18 333.094C1755.26 331.534 1753.24 328.434 1752.74 324.485C1752.27 320.847 1753.09 316.785 1755.08 313.061C1757.07 309.336 1760 306.402 1763.28 304.768C1766.84 302.995 1770.54 302.951 1773.46 304.511C1776.38 306.071 1778.4 309.17 1778.9 313.119Z" fill="#F5FF7D" stroke="#F5FF7D" stroke-width="2"/>
<path d="M1788.03 348.304L1788.03 348.304C1787.5 351.059 1785.92 353.755 1783.54 355.873L1783.51 355.903C1780.61 358.478 1777.02 359.776 1773.69 359.538L1773.69 359.538C1772.32 359.44 1771.04 359.072 1769.92 358.476C1769.08 358.026 1768.33 357.446 1767.7 356.752L1767.7 356.752C1765.89 354.753 1765.18 352.017 1765.77 348.981L1764.79 348.79L1765.77 348.981C1766.3 346.227 1767.89 343.53 1770.26 341.412L1769.59 340.667L1770.26 341.412C1773.16 338.817 1776.77 337.508 1780.11 337.747L1780.11 337.747C1782.52 337.919 1784.64 338.922 1786.1 340.533C1787.91 342.532 1788.62 345.268 1788.03 348.304Z" fill="#F5FF7D" stroke="#F5FF7D" stroke-width="2"/>
<path d="M1726.35 310.376L1726.35 310.376C1726.85 314.324 1728.87 317.424 1731.79 318.984C1734.71 320.544 1738.4 320.5 1741.97 318.727C1745.25 317.093 1748.18 314.158 1750.17 310.434L1726.35 310.376ZM1726.35 310.376C1725.88 306.737 1726.7 302.675 1728.69 298.951C1730.68 295.227 1733.61 292.292 1736.89 290.658C1740.45 288.885 1744.15 288.841 1747.07 290.401C1749.99 291.961 1752 295.061 1752.51 299.009L1753.5 298.882M1726.35 310.376L1753.5 298.882M1753.5 298.882L1752.51 299.009C1752.98 302.648 1752.16 306.71 1750.17 310.434L1753.5 298.882Z" fill="#F5FF7D" stroke="#F5FF7D" stroke-width="2"/>
<path d="M1715.74 303.332L1715.74 303.332C1714.26 301.42 1712.25 300.217 1710.1 299.899L1715.74 303.332ZM1715.74 303.332C1717.8 305.98 1718.71 309.702 1718.16 313.56M1715.74 303.332L1718.16 313.56M1698.75 310.586L1698.76 310.542C1699.2 307.393 1700.57 304.58 1702.56 302.605C1704.76 300.429 1707.43 299.504 1710.1 299.899L1698.75 310.586ZM1698.75 310.586C1698.22 314.429 1699.13 318.133 1701.18 320.771C1702.03 321.861 1703.05 322.72 1704.16 323.317C1705 323.766 1705.9 324.067 1706.83 324.204L1698.75 310.586ZM1718.16 313.56C1717.72 316.71 1716.36 319.523 1714.36 321.498L1718.16 313.56ZM1714.36 321.498C1712.17 323.674 1709.49 324.599 1706.83 324.204L1714.36 321.498Z" fill="#F5FF7D" stroke="#F5FF7D" stroke-width="2"/>
</g>
<g opacity="0.5">
<path d="M170.353 907.275L170.353 907.275C179.033 902.254 188.162 901.06 196.079 903.783C203.996 906.507 210.458 913.064 214.213 922.363C217.594 930.737 218.114 939.96 215.689 947.006C214.56 950.289 212.677 952.306 210.151 953.198L210.483 954.141L210.151 953.198C207.449 954.151 204.273 953.7 200.811 952.451C197.359 951.205 193.795 949.23 190.369 947.329L190.292 947.286C187.435 945.701 184.619 944.138 182.453 943.393C179.958 942.535 176.572 941.995 173.118 941.445L173.043 941.433C169.002 940.788 165.002 940.148 161.625 938.986C158.452 937.895 155.979 936.392 154.543 934.142L154.543 934.142C153.114 931.902 152.879 929.136 154.028 925.794C156.452 918.748 162.535 911.797 170.353 907.275Z" fill="#F5FF7D" stroke="#F5FF7D" stroke-width="2"/>
<path d="M228.517 882.711L228.517 882.711C229.555 886.229 229.395 890.369 228.021 894.363C226.647 898.356 224.226 901.718 221.244 903.854C218.007 906.171 214.362 906.802 211.234 905.726C208.106 904.65 205.621 901.91 204.495 898.092C203.457 894.574 203.616 890.433 204.99 886.44C206.364 882.447 208.785 879.085 211.768 876.949C215.005 874.632 218.649 874.001 221.777 875.077C224.905 876.153 227.39 878.893 228.517 882.711Z" fill="#F5FF7D" stroke="#F5FF7D" stroke-width="2"/>
<path d="M243.128 915.996L243.128 915.996C243.038 918.801 241.905 921.715 239.899 924.183L239.871 924.218C237.416 927.221 234.082 929.073 230.756 929.368L230.756 929.368C229.381 929.49 228.059 929.329 226.863 928.918C225.961 928.608 225.13 928.154 224.399 927.569L224.399 927.569C222.294 925.883 221.153 923.296 221.253 920.205L220.253 920.172L221.253 920.205C221.344 917.4 222.476 914.487 224.482 912.019L223.707 911.389L224.482 912.019C226.939 908.994 230.287 907.129 233.626 906.833L233.626 906.833C236.036 906.619 238.286 907.273 239.982 908.632C242.087 910.318 243.228 912.905 243.128 915.996Z" fill="#F5FF7D" stroke="#F5FF7D" stroke-width="2"/>
<path d="M176.196 888.358L176.196 888.358C177.323 892.176 179.808 894.916 182.936 895.992C186.064 897.068 189.709 896.437 192.945 894.119C195.928 891.984 198.349 888.622 199.723 884.628L176.196 888.358ZM176.196 888.358C175.159 884.839 175.318 880.699 176.692 876.706C178.066 872.712 180.487 869.35 183.47 867.215C186.706 864.898 190.351 864.267 193.479 865.343C196.607 866.419 199.092 869.158 200.219 872.976L201.178 872.693M176.196 888.358L201.178 872.693M201.178 872.693L200.219 872.976C201.256 876.495 201.097 880.635 199.723 884.628L201.178 872.693Z" fill="#F5FF7D" stroke="#F5FF7D" stroke-width="2"/>
<path d="M164.604 883.09L164.604 883.09C162.835 881.438 160.659 880.57 158.486 880.597L164.604 883.09ZM164.604 883.09C167.054 885.377 168.546 888.907 168.623 892.803M164.604 883.09L168.623 892.803M148.986 892.952L148.985 892.908C148.922 889.729 149.821 886.734 151.475 884.468C153.298 881.97 155.789 880.632 158.486 880.597L148.986 892.952ZM148.986 892.952C149.073 896.831 150.563 900.342 153.003 902.621C154.012 903.563 155.153 904.25 156.349 904.661C157.251 904.971 158.185 905.125 159.121 905.113L148.986 892.952ZM168.623 892.803C168.685 895.982 167.786 898.977 166.132 901.243L168.623 892.803ZM166.132 901.243C164.31 903.741 161.818 905.079 159.121 905.113L166.132 901.243Z" fill="#F5FF7D" stroke="#F5FF7D" stroke-width="2"/>
</g>
<g opacity="0.5">
<path d="M844.104 871.348L844.104 871.348C848.802 859.464 856.987 851.025 867.088 847.468C877.188 843.911 888.855 845.361 899.963 851.679C909.962 857.367 917.79 866.171 920.953 875.156C922.436 879.368 922.159 882.944 920.296 885.904C918.312 889.056 914.729 891.136 910.283 892.626C905.847 894.113 900.726 894.96 895.829 895.766L895.742 895.781C891.635 896.457 887.624 897.118 884.907 898.075C881.774 899.178 877.999 901.299 874.119 903.478L874.052 903.516C869.533 906.054 865.032 908.579 860.734 910.092C856.696 911.514 852.984 911.988 849.704 910.854L849.704 910.854C846.423 909.719 843.962 907.08 842.454 902.797C839.29 893.812 839.875 882.046 844.104 871.348Z" fill="#4B0B9D" stroke="#4B0B9D" stroke-width="2"/>
<path d="M882.984 801.016L882.984 801.016C886.837 803.732 889.97 808.022 891.764 813.119C893.559 818.215 893.805 823.521 892.504 828.052C891.091 832.973 887.912 836.546 883.86 837.973C879.808 839.399 875.091 838.607 870.907 835.657C867.054 832.94 863.922 828.651 862.127 823.554C860.333 818.458 860.086 813.152 861.387 808.621C862.8 803.7 865.979 800.127 870.031 798.7C874.083 797.274 878.8 798.066 882.984 801.016Z" fill="#4B0B9D" stroke="#4B0B9D" stroke-width="2"/>
<path d="M923.776 822.658L923.776 822.658C925.933 825.569 927.116 829.417 927.065 833.501L927.064 833.558C926.988 838.538 925.108 843.077 921.974 846.045L921.974 846.045C920.678 847.273 919.205 848.175 917.656 848.721C916.487 849.133 915.273 849.342 914.054 849.335L914.054 849.335C910.54 849.316 907.292 847.594 904.914 844.384L904.178 844.929L904.914 844.384C902.758 841.472 901.575 837.625 901.626 833.541L900.725 833.53L901.626 833.541C901.689 828.538 903.571 823.976 906.717 820.996L906.717 820.996C908.99 818.842 911.806 817.691 914.637 817.706C918.151 817.725 921.398 819.447 923.776 822.658Z" fill="#4B0B9D" stroke="#4B0B9D" stroke-width="2"/>
<path d="M847.191 813.619L847.767 812.802L847.191 813.619C851.044 816.335 854.176 820.625 855.971 825.722C857.765 830.819 858.012 836.124 856.711 840.655C855.298 845.576 852.118 849.149 848.066 850.576C844.015 852.003 839.298 851.21 835.113 848.26L834.579 849.017L835.113 848.26C831.26 845.544 828.128 841.254 826.334 836.158C824.539 831.061 824.293 825.755 825.594 821.224C827.006 816.304 830.186 812.73 834.238 811.303C838.29 809.877 843.007 810.669 847.191 813.619Z" fill="#4B0B9D" stroke="#4B0B9D" stroke-width="2"/>
<path d="M811.631 874.203L811.594 874.159C808.996 871.008 807.507 867.269 807.364 863.649C807.206 859.657 808.658 856.28 811.385 854.063C813.581 852.278 816.497 851.411 819.619 851.665L819.695 850.734L819.619 851.665C823.937 852.016 828.262 854.392 831.446 858.252C834.045 861.404 835.533 865.143 835.677 868.763L811.631 874.203ZM811.631 874.203C814.811 878.038 819.12 880.397 823.422 880.747C825.201 880.892 826.915 880.672 828.464 880.127C829.633 879.715 830.71 879.118 831.656 878.349C834.383 876.132 835.835 872.755 835.677 868.763L811.631 874.203Z" fill="#4B0B9D" stroke="#4B0B9D" stroke-width="2"/>
</g>
<g opacity="0.5">
<path d="M1563.38 716.975L1563.38 716.975C1566.06 699.769 1574.42 686.06 1586.83 678.274C1599.23 670.488 1615.21 668.923 1631.87 673.988C1646.86 678.546 1659.93 687.9 1666.85 698.927C1670.11 704.126 1670.84 709.052 1669.22 713.648C1667.49 718.526 1663.29 722.402 1657.82 725.717C1652.37 729.027 1645.82 731.686 1639.59 734.213L1639.5 734.247C1634.25 736.377 1629.16 738.44 1625.88 740.501C1622.09 742.879 1617.75 746.795 1613.25 750.851L1613.19 750.902C1607.97 755.605 1602.75 760.311 1597.48 763.617C1592.53 766.722 1587.68 768.504 1582.89 767.97L1582.78 768.959L1582.89 767.97C1578.07 767.434 1573.94 764.596 1570.63 759.313C1563.71 748.287 1560.96 732.457 1563.38 716.975Z" fill="#F5FF7D" stroke="#F5FF7D" stroke-width="2"/>
<path d="M1567.53 628.869C1567.93 621.844 1571.12 616.052 1576.17 612.883C1581.22 609.715 1587.82 609.362 1594.33 612.051L1594.33 612.051C1600.31 614.525 1605.79 619.318 1609.72 625.578C1613.65 631.838 1615.58 638.856 1615.21 645.321C1614.8 652.347 1611.61 658.139 1606.56 661.308C1601.51 664.476 1594.91 664.829 1588.41 662.14C1582.42 659.666 1576.94 654.873 1573.02 648.613C1569.09 642.352 1567.15 635.335 1567.53 628.869ZM1567.53 628.869L1566.53 628.812L1567.53 628.869Z" fill="#F5FF7D" stroke="#F5FF7D" stroke-width="2"/>
<path d="M1654.85 628.557L1654.85 628.557C1658.64 631.821 1661.39 636.628 1662.55 642.114L1662.57 642.19C1663.97 648.882 1662.83 655.547 1659.51 660.501L1659.51 660.501C1658.13 662.551 1656.41 664.221 1654.48 665.433C1653.03 666.348 1651.44 667.003 1649.79 667.368C1645.01 668.419 1640.09 667.07 1635.91 663.469L1635.26 664.227L1635.91 663.469C1632.12 660.206 1629.37 655.398 1628.21 649.912L1627.24 650.119L1628.21 649.912C1626.78 643.195 1627.92 636.497 1631.25 631.525L1631.25 631.525C1633.67 627.928 1637.12 625.505 1640.97 624.658C1645.75 623.607 1650.67 624.956 1654.85 628.557Z" fill="#F5FF7D" stroke="#F5FF7D" stroke-width="2"/>
<path d="M1544.81 689.502L1544.43 690.426L1544.81 689.502C1538.83 687.027 1533.35 682.234 1529.42 675.974C1525.49 669.714 1523.56 662.697 1523.93 656.231C1524.34 649.205 1527.52 643.414 1532.57 640.245C1537.62 637.076 1544.22 636.724 1550.73 639.413C1556.71 641.887 1562.19 646.68 1566.12 652.94C1570.05 659.2 1571.98 666.218 1571.61 672.683C1571.2 679.709 1568.01 685.501 1562.97 688.67C1557.92 691.838 1551.31 692.191 1544.81 689.502Z" fill="#F5FF7D" stroke="#F5FF7D" stroke-width="2"/>
<path d="M1525.27 696.962L1525.41 697.951C1521.12 698.558 1517.44 700.619 1515 703.715C1511.98 707.56 1511.05 712.58 1512.48 717.908C1513.77 722.738 1516.91 727.304 1521.34 730.738L1521.4 730.786C1526.82 734.958 1533.32 736.828 1539.22 735.991C1539.22 735.991 1539.22 735.991 1539.22 735.991L1539.36 736.982C1541.94 736.616 1544.32 735.751 1546.38 734.461C1547.93 733.487 1549.29 732.271 1550.42 730.846C1553.66 726.724 1554.62 721.372 1553.12 715.775L1525.27 696.962ZM1525.27 696.962L1525.41 697.951M1525.27 696.962L1525.41 697.951M1525.41 697.951C1531.34 697.111 1537.87 698.998 1543.29 703.204L1525.41 697.951Z" fill="#F5FF7D" stroke="#F5FF7D" stroke-width="2"/>
</g>
<g opacity="0.5">
<path d="M1276.68 934.329L1276.68 934.329C1296.71 924.544 1317.25 923.273 1334.53 930.621C1351.81 937.968 1365.14 953.638 1371.99 974.855C1378.15 993.942 1377.88 1014.53 1371.34 1029.91C1368.24 1037.19 1363.56 1041.63 1357.46 1043.31C1351.01 1045.09 1343.81 1043.48 1336.34 1040.17C1328.87 1036.86 1321.3 1031.93 1314.11 1027.25L1313.57 1028.09L1314.11 1027.25L1314.04 1027.2C1307.96 1023.24 1302.11 1019.43 1297.58 1017.5C1292.35 1015.28 1285.11 1013.59 1277.56 1011.84L1277.49 1011.82C1268.77 1009.79 1260.01 1007.75 1252.68 1004.63C1245.8 1001.71 1240.33 997.894 1237.35 992.401L1236.54 992.841L1237.35 992.401C1234.36 986.876 1234.34 980.384 1237.48 972.993C1244.02 957.614 1258.66 943.131 1276.68 934.329Z" fill="#4B0B9D" stroke="#4B0B9D" stroke-width="2"/>
<path d="M1406.55 916.477C1402.83 925.212 1396.85 932.412 1389.75 936.777C1382.04 941.522 1373.55 942.433 1366.46 939.417C1359.37 936.401 1354.14 929.66 1352.2 920.809C1350.42 912.667 1351.46 903.368 1355.17 894.632C1358.89 885.897 1364.86 878.697 1371.96 874.332C1379.68 869.587 1388.17 868.676 1395.26 871.692C1402.35 874.707 1407.58 881.449 1409.52 890.3L1409.52 890.3C1411.3 898.441 1410.26 907.741 1406.55 916.477Z" fill="#4B0B9D" stroke="#4B0B9D" stroke-width="2"/>
<path d="M1436.33 965.858L1436.33 965.858C1435.66 972.277 1432.6 978.724 1427.66 983.991L1427.6 984.064C1421.56 990.469 1413.68 994.18 1405.99 994.32L1405.99 994.32C1402.8 994.378 1399.77 993.793 1397.05 992.639C1395 991.769 1393.14 990.573 1391.53 989.082C1386.87 984.779 1384.68 978.547 1385.41 971.461L1384.42 971.358L1385.41 971.461C1386.08 965.042 1389.14 958.595 1394.08 953.328L1393.47 952.765L1394.08 953.328C1400.12 946.878 1408.03 943.14 1415.75 942.999L1415.75 942.999C1421.34 942.897 1426.47 944.772 1430.21 948.237C1434.86 952.54 1437.06 958.772 1436.33 965.858Z" fill="#4B0B9D" stroke="#4B0B9D" stroke-width="2"/>
<path d="M1349.09 864.607L1350.07 864.394L1349.09 864.607C1350.88 872.749 1349.84 882.049 1346.12 890.784C1342.41 899.52 1336.43 906.72 1329.33 911.085C1321.61 915.83 1313.13 916.741 1306.04 913.725C1298.95 910.709 1293.72 903.968 1291.78 895.117L1290.8 895.331L1291.78 895.117C1290 886.975 1291.04 877.675 1294.75 868.94C1298.46 860.205 1304.44 853.004 1311.54 848.64C1319.26 843.895 1327.74 842.984 1334.84 846C1341.93 849.015 1347.16 855.756 1349.09 864.607Z" fill="#4B0B9D" stroke="#4B0B9D" stroke-width="2"/>
<path d="M1270 880.034L1269.27 880.714C1265.46 876.617 1260.56 874.226 1255.46 873.931C1249.13 873.566 1243.12 876.307 1238.53 881.752C1234.37 886.685 1231.85 893.365 1231.48 900.572L1231.47 900.671C1231.05 909.46 1233.84 917.711 1239.08 923.347L1270 880.034ZM1270 880.034L1269.27 880.714M1270 880.034L1269.27 880.714M1269.27 880.714C1274.52 886.372 1277.32 894.664 1276.87 903.489L1269.27 880.714Z" fill="#4B0B9D" stroke="#4B0B9D" stroke-width="2"/>
</g>
<g opacity="0.5">
<path d="M1797.76 61.346L1797.76 61.346C1821.05 49.4469 1845.13 47.5159 1865.57 55.7796C1886.02 64.0432 1901.99 82.1582 1910.47 106.901C1918.11 129.157 1918.22 153.319 1910.87 171.513C1907.38 180.137 1901.96 185.481 1894.79 187.596C1887.21 189.834 1878.7 188.089 1869.87 184.361C1861.04 180.638 1852.05 175.01 1843.54 169.681L1843.01 170.528L1843.54 169.681L1843.47 169.633C1836.26 165.119 1829.33 160.782 1824.01 158.629C1817.85 156.139 1809.33 154.319 1800.45 152.421L1800.38 152.405C1790.13 150.213 1779.81 148.002 1771.15 144.502C1763.01 141.213 1756.48 136.841 1752.85 130.422L1752.05 130.877L1752.85 130.422C1749.2 123.958 1749.04 116.299 1752.58 107.541C1759.94 89.3471 1776.81 72.0491 1797.76 61.346Z" fill="#4B0B9D" stroke="#4B0B9D" stroke-width="2"/>
<path d="M1952.65 7.09774L1952.65 7.09779C1954.92 16.6342 1953.89 27.5845 1949.72 37.922C1945.54 48.2594 1938.67 56.8476 1930.41 62.1305C1921.43 67.8742 1911.46 69.134 1903.03 65.7269C1894.6 62.3201 1888.3 54.4841 1885.83 44.1148C1883.57 34.5779 1884.59 23.6281 1888.77 13.2906C1892.95 2.95322 1899.82 -5.63501 1908.08 -10.9179C1917.05 -16.6616 1927.03 -17.9213 1935.46 -14.5143C1943.89 -11.1075 1950.19 -3.27188 1952.65 7.09774Z" fill="#4B0B9D" stroke="#4B0B9D" stroke-width="2"/>
<path d="M1985.64 95.0802L1985.64 95.0802C1986.36 86.7187 1983.64 79.4111 1978.06 74.429M1985.64 95.0802L1978.06 74.429M1985.64 95.0802C1985 102.653 1981.53 110.303 1975.84 116.6L1975.76 116.687C1968.8 124.344 1959.61 128.881 1950.55 129.209L1950.55 129.209C1946.8 129.345 1943.2 128.72 1939.98 127.416C1937.54 126.432 1935.31 125.062 1933.38 123.336L1932.71 124.082L1933.38 123.336C1927.8 118.353 1925.07 111.046 1925.79 102.684L1924.8 102.599L1925.79 102.684C1926.44 95.1113 1929.91 87.462 1935.6 81.1646L1934.99 80.613L1935.6 81.1646C1942.56 73.4546 1951.8 68.8848 1960.89 68.556L1960.89 68.556C1967.47 68.3174 1973.56 70.4181 1978.06 74.429M1985.64 95.0802L1978.72 73.6828L1978.06 74.429" fill="#4B0B9D" stroke="#4B0B9D" stroke-width="2"/>
<path d="M1814.53 15.2965L1813.56 15.5279L1814.53 15.2965C1812.26 5.75956 1813.29 -5.19027 1817.47 -15.5277C1821.64 -25.8651 1828.51 -34.4534 1836.77 -39.7363C1845.75 -45.4802 1855.72 -46.7397 1864.15 -43.3327C1872.58 -39.9256 1878.88 -32.0903 1881.35 -21.7206C1883.61 -12.1843 1882.59 -1.23404 1878.41 9.1036C1874.23 19.4415 1867.36 28.0293 1859.1 33.3122C1850.13 39.0563 1840.15 40.316 1831.72 36.909C1823.29 33.502 1817 25.6662 1814.53 15.2965Z" fill="#4B0B9D" stroke="#4B0B9D" stroke-width="2"/>
<path d="M1788.15 -1.25687L1788.87 -1.94911L1788.15 -1.25687C1794.46 5.29651 1797.93 14.9963 1797.58 25.3816C1797.29 33.8641 1794.47 41.7767 1789.68 47.6736C1784.39 54.1843 1777.35 57.5495 1769.87 57.2525C1767.28 57.1494 1764.73 56.588 1762.29 55.6043C1759.07 54.3002 1756.05 52.2526 1753.44 49.5466C1747.16 43.0177 1743.7 33.366 1744.01 23.0243L1744.02 22.9078C1744.3 14.4259 1747.12 6.51332 1751.92 0.616336C1757.21 -5.89432 1764.24 -9.2594 1771.72 -8.96276C1777.74 -8.72337 1783.58 -6.00398 1788.15 -1.25687Z" fill="#4B0B9D" stroke="#4B0B9D" stroke-width="2"/>
</g>
</g>
<defs>
<linearGradient id="paint0_linear" x1="1000" y1="0" x2="1000" y2="1000" gradientUnits="userSpaceOnUse">
<stop stop-color="#A1B0FF"/>
<stop offset="1" stop-color="#FBCBFF"/>
</linearGradient>
<clipPath id="clip0">
<rect width="2000" height="1000" fill="white"/>
</clipPath>
</defs>
</svg>
