<svg width="42" height="34" viewBox="0 0 42 34" fill="none" xmlns="http://www.w3.org/2000/svg">
<path d="M11.6928 20.3636L11.6928 20.3636C14.3639 17.3268 17.6763 15.7214 20.9993 15.7214C24.3223 15.7214 27.6347 17.3268 30.3059 20.3636L31.0568 19.7031L30.3059 20.3636C32.7188 23.1067 34.113 26.5193 34.113 29.4379C34.113 30.7369 33.695 31.5932 32.9837 32.1501L33.5748 32.9052L32.9836 32.1501C32.1964 32.7664 31.035 33.0166 29.5363 32.9943C28.0493 32.9721 26.4102 32.688 24.7799 32.4029L24.7799 32.4029L24.702 32.3893C23.3831 32.1587 22.0117 31.9189 20.9994 31.9189C19.8415 31.9189 18.383 32.1709 16.9652 32.4159L16.8964 32.4278C15.191 32.7223 13.5665 33 12.1252 33H12.1252C10.7711 33.0001 9.73638 32.7517 9.00678 32.1793L9.00675 32.1793C8.30575 31.6293 7.88574 30.7668 7.88574 29.4379C7.88574 26.5193 9.27997 23.1067 11.6928 20.3636Z" fill="#4B0B9D" stroke="#4B0B9D" stroke-width="2"/>
<path d="M30.5342 2.84297L30.5342 2.84293C29.6573 1.62561 28.4602 1 27.2837 1C26.1072 1 24.9102 1.62564 24.0333 2.84291L30.5342 2.84297ZM30.5342 2.84297C31.3464 3.97046 31.8184 5.49122 31.8184 7.13411C31.8184 8.77694 31.3464 10.2977 30.5342 11.4253C29.6573 12.6426 28.4602 13.2682 27.2837 13.2682C26.1073 13.2682 24.9101 12.6426 24.0333 11.4253C23.221 10.2977 22.749 8.77699 22.749 7.13411C22.749 5.49129 23.221 3.97058 24.0333 2.84295L30.5342 2.84297Z" fill="#4B0B9D" stroke="#4B0B9D" stroke-width="2"/>
<path d="M40.8008 13.7546L40.8008 13.7545C40.4677 12.6876 39.7839 11.9783 38.9065 11.668L40.8008 13.7546ZM40.8008 13.7546C41.1049 14.7283 41.066 15.8889 40.6469 17.0187L40.6407 17.0354C40.1247 18.414 39.1557 19.4599 38.035 19.9537L38.035 19.9537C37.5758 20.1561 37.1073 20.2535 36.6596 20.2535C36.322 20.2535 35.9949 20.1982 35.6886 20.0899L35.6886 20.0899C34.8112 19.7796 34.1273 19.0702 33.7942 18.0033L33.7942 18.0033C33.4902 17.0296 33.5292 15.869 33.9483 14.7392L33.9483 14.7392C34.4628 13.3523 35.435 12.2999 36.5602 11.8041L36.5603 11.8041M40.8008 13.7546L36.5603 11.8041M36.5603 11.8041C37.3661 11.449 38.1973 11.4172 38.9065 11.668L36.5603 11.8041Z" fill="#4B0B9D" stroke="#4B0B9D" stroke-width="2"/>
<path d="M17.9658 2.84293L17.9658 2.84293C17.0889 1.6256 15.8919 1 14.7154 1C13.5388 1 12.3417 1.62567 11.4649 2.84292C10.6527 3.97054 10.1807 5.49127 10.1807 7.13411C10.1807 8.77699 10.6526 10.2977 11.4649 11.4253L11.4649 11.4253C12.3418 12.6427 13.5388 13.2683 14.7154 13.2683C15.8919 13.2683 17.0889 12.6427 17.9658 11.4253M17.9658 2.84293L19.25 7.13416C19.25 8.77705 18.778 10.2977 17.9658 11.4253M17.9658 2.84293C18.778 3.97043 19.25 5.49121 19.25 7.13411L17.9658 2.84293ZM17.9658 11.4253L18.7772 12.0098L17.9658 11.4253Z" fill="#4B0B9D" stroke="#4B0B9D" stroke-width="2"/>
<path d="M5.43976 11.8041L5.43974 11.8041C4.63388 11.449 3.80264 11.4172 3.09346 11.6679L5.43976 11.8041ZM5.43976 11.8041C6.5649 12.2999 7.53717 13.3522 8.05174 14.7391M5.43976 11.8041L8.05174 14.7391M1.35921 17.0352L1.35306 17.0186C0.933945 15.8889 0.895011 14.7282 1.19902 13.7545C1.53209 12.6877 2.21592 11.9784 3.09336 11.668L1.35921 17.0352ZM1.35921 17.0352C1.87545 18.414 2.8444 19.4599 3.96504 19.9537C4.42433 20.156 4.89271 20.2534 5.34038 20.2534C5.67791 20.2534 6.00504 20.1981 6.31138 20.0898C7.18895 19.7795 7.87272 19.0701 8.20582 18.0034L1.35921 17.0352ZM8.05174 14.7391C8.47077 15.869 8.5097 17.0296 8.20585 18.0033L8.05174 14.7391Z" fill="#4B0B9D" stroke="#4B0B9D" stroke-width="2"/>
</svg>
