<svg width="18" height="19" viewBox="0 0 18 19" fill="none" xmlns="http://www.w3.org/2000/svg">
<path d="M3.83 5.03133C3.83 5.03133 11.3763 3.8412 15.5 7.53133C16.5 8.42618 17.5 9.53133 17.5 11.5313C17.5 13.0313 16.7462 15.0104 14.5 16.5313C11.5897 18.5019 6 18.0313 6 18.0313V16.0313C6 16.0313 11.0095 16.9176 13.5 15.0313C14.9684 13.9191 15.5 13.0313 15.5 11.5313C15.5 10.0313 14.2038 8.4244 11.7038 7.4244C9.20384 6.4244 3.83 7.03133 3.83 7.03133L7.41 10.6213C7.41 10.6213 6.5 11.8087 6 12.0313C5.5 12.254 0 7.03134 0 6.03133C0 5.03132 5.5 -0.468628 6 0.0313266L7.41 1.44133L3.83 5.03133Z" fill="#4B0B9D"/>
</svg>
